<svg version="1" xmlns="http://www.w3.org/2000/svg" width="933.333" height="933.333" viewBox="0 0 700.000000 700.000000"><path d="M209 202.6c-3 .7-6.7 1.6-8.1 1.9-7.9 1.5-23 9-30.9 15.2-21 16.6-32.9 41.8-32.8 69.8 0 52.4 35.8 88.5 89.4 89.9 41.3 1.1 74.6-19.9 88.5-55.8 3.7-9.7 5.7-21.1 5.7-33.1 0-8.7-.4-13-2.3-22-2.8-14-11.5-30.1-21.7-40.4-13.4-13.6-28.7-21.8-48.3-25.6-8.9-1.7-32.1-1.7-39.5.1zm28.8 43.9c13.5 3.4 23.3 13.8 27.2 29.1 4.8 18.5-.1 39-12.1 50.2-9.2 8.6-24.5 11.6-36.2 7.2-18.2-6.9-27.9-25.4-25.5-48.7 1-9 3-15 7.4-21.9 8.4-13.2 24.4-19.6 39.2-15.9zM451.9 202.5c-35.1 6.6-60.7 30-69.4 63.3-3.8 14.5-4 33.8-.4 47.7 7.5 29.2 26.4 50.1 54.2 60 5.2 1.8 11.4 3.6 13.8 4 2.4.4 4.7.9 5.2 1.2 1.5.9 29.1.5 34.2-.6 2.8-.6 6.1-1.3 7.4-1.5 8.4-1.8 18.9-6.3 28-12 16.3-10.3 28.9-27.4 34.5-46.9 9.5-32.9 1.4-67.7-20.9-90.2-6.7-6.8-7.8-7.6-15.4-12.5-14.7-9.3-27.9-13-48.6-13.6-10.3-.2-17.4.1-22.6 1.1zm28.2 44c14.4 3.1 26.3 17.5 28.5 34.4 2.9 21.7-4.7 40.8-19.8 49.5-6.4 3.7-8 4.1-18.8 4-8.6 0-10-.2-14.9-2.9-10.5-5.8-18.6-16.8-21-29-1.6-7.8-.7-23 1.8-30 7.1-20 24.5-30.2 44.2-26zM179.7 450.3c-2 .7-5.3 2.4-7.1 3.9-11.1 8.9-9.6 27.1 2.6 34.1 5.2 3 43 14.5 53.8 16.3 1.4.3 3.9.9 5.5 1.4 3 .9 28.8 6.3 35.5 7.4 1.9.3 4.6.8 5.8 1.1 8.4 1.6 36.5 5 51.2 6.2 16.2 1.3 52 .7 67.5-1.2 41.2-4.8 76.6-12.5 113.7-24.7 10.7-3.5 16.9-6 19.3-8 11.7-9.7 9.8-28.4-3.6-35.3-6.6-3.4-11.3-3-27.9 2.5-31.4 10.4-72.7 19.7-100.5 22.6-14.9 1.5-22.8 1.9-40.5 1.9-18.5 0-43.6-1.1-45.1-2-.3-.2-3-.7-6-1-3-.3-7.9-1-10.9-1.5-7.2-1.2-11.6-1.9-16.5-2.6-2.2-.3-8.9-1.7-15-3.1-11-2.4-13.2-2.9-17-3.7-1.1-.2-4.9-1.2-8.5-2.1l-8-2c-2.8-.5-23.4-6.6-29.5-8.7-7.6-2.6-13.9-3.1-18.8-1.5z"/></svg>