<svg xmlns="http://www.w3.org/2000/svg" width="32" height="32" viewBox="0 0 32 32"><g transform="translate(11263 -9857)"><circle cx="16" cy="16" r="16" transform="translate(-11263 9857)" fill="#140635"/><path d="M7.364.8a.785.785,0,0,1-.026.2L5.938,5.26,4.692,9.469H.789A.789.789,0,0,1,0,8.68a.8.8,0,0,1,.007-.105L1.059.684A.789.789,0,0,1,1.841,0H6.575A.792.792,0,0,1,7.364.8Z" transform="matrix(1, -0.017, 0.017, 1, -11252.414, 9864.656)" fill="#fff"/><path d="M7.362.791a.787.787,0,0,1-.106.392L1.47,11.178A.789.789,0,0,1,.02,10.6L1.536,4.208,2.782,0H6.575A.789.789,0,0,1,7.362.791Z" transform="matrix(1, -0.017, 0.017, 1, -11249.229, 9869.861)" fill="#fff"/></g></svg>