<svg version="1" xmlns="http://www.w3.org/2000/svg" width="682.667" height="682.667" viewBox="0 0 512.000000 512.000000"><path d="M166.8 167.6c-9.3 2.2-17.6 7-24.8 14.3-10.3 10.4-15 22.3-15 38.1s4.7 27.8 14.9 38.1C153 269.2 165.2 274 183 274c32.9 0 55.4-21.9 55.4-54 0-15.6-4.2-26.4-14.4-37.3-6.7-7.2-16-12.7-25.6-15.2-7.2-1.9-23.8-1.9-31.6.1zm28.4 29c11.3 7.9 14.1 27.6 5.8 40.8-8.4 13.2-27.9 13.4-36.7.3-7.2-10.8-6.6-27.3 1.5-36.7 5.3-6.3 9.4-8.1 17.9-7.7 6.1.2 7.8.7 11.5 3.3zM313.5 167.9c-23.9 7-38.5 26.5-38.6 51.6 0 10.9 1.2 16.6 5.6 26 6.2 13 19.7 23.5 35.1 27.1 10.9 2.5 27.8 1.6 36.9-2.1 22.1-8.9 33.6-26.2 33.6-50.5.1-25.7-15.5-46.1-39.8-52.4-8.3-2.2-24.9-2-32.8.3zm28.9 28.1c13.7 9.3 15.3 33.4 3 45.4-6.4 6.3-17.2 7.8-25.4 3.6-14.3-7.4-17.5-31.9-5.7-44.7 5.5-6 8.7-7.3 17.3-7 5.6.2 7.8.7 10.8 2.7zM150.4 318.9c-1.8 1.1-3.9 3-4.8 4.2-2.4 3.4-2 10 .7 14 2.7 4.1 8.1 6.2 30.2 11.9 64.3 16.8 112 15.8 174.2-3.6 6.5-2 12.5-4.5 14.2-6 5.8-4.8 5.9-13.3.3-18.7-4.6-4.4-8.5-4.4-20.9-.3-37.9 12.5-78.5 17.3-112.3 13.2-17.8-2.2-39.9-6.7-58.8-12.2-8.5-2.4-16.4-4.4-17.6-4.4-1.1 0-3.5.9-5.2 1.9z"/></svg>