<svg xmlns="http://www.w3.org/2000/svg" xmlns:xlink="http://www.w3.org/1999/xlink" width="750" height="1000"><defs><linearGradient id="b" x1=".136" y1="-.118" x2=".817" y2="1.04" gradientUnits="objectBoundingBox"><stop offset="0" stop-color="#002871"/><stop offset=".476" stop-color="#29a2ff"/><stop offset="1" stop-color="#76fac7"/></linearGradient><linearGradient id="a" x1="-8.027" y1="-4.839" x2="-8.027" y2="-5.838" gradientUnits="objectBoundingBox"><stop offset="0" stop-color="#fff" stop-opacity=".502"/><stop offset="1" stop-color="#fff"/></linearGradient><linearGradient id="c" x1="-8.027" y1="-4.847" x2="-8.027" y2="-5.847" xlink:href="#a"/><linearGradient id="d" x1="-8.042" y1="-4.847" x2="-8.042" y2="-5.847" xlink:href="#a"/><linearGradient id="e" x1="-8.027" y1="-4.846" x2="-8.027" y2="-5.847" xlink:href="#a"/><linearGradient id="f" x1="-8.027" y1="-4.846" x2="-8.027" y2="-5.847" xlink:href="#a"/><linearGradient id="g" x1="-8.042" y1="-4.846" x2="-8.042" y2="-5.847" xlink:href="#a"/><linearGradient id="h" x1="-8.028" y1="-4.846" x2="-8.028" y2="-5.846" xlink:href="#a"/><linearGradient id="i" x1="-8.027" y1="-4.839" x2="-8.027" y2="-5.838" xlink:href="#a"/><linearGradient id="j" x1="-8.027" y1="-4.996" x2="-8.027" y2="-5.996" xlink:href="#a"/><linearGradient id="k" x1="-8.027" y1="-4.846" x2="-8.027" y2="-5.847" xlink:href="#a"/><linearGradient id="l" x1="-8.028" y1="-4.996" x2="-8.028" y2="-5.996" xlink:href="#a"/><linearGradient id="m" x1="-8.028" y1="-4.996" x2="-8.028" y2="-5.996" xlink:href="#a"/><linearGradient id="n" x1="-8.027" y1="-4.846" x2="-8.027" y2="-5.847" xlink:href="#a"/><linearGradient id="o" x1="-8.042" y1="-4.839" x2="-8.042" y2="-5.838" xlink:href="#a"/><linearGradient id="p" x1="-8.028" y1="-4.847" x2="-8.028" y2="-5.847" xlink:href="#a"/><linearGradient id="q" x1="-8.027" y1="-4.847" x2="-8.027" y2="-5.847" xlink:href="#a"/><linearGradient id="r" x1="-8.027" y1="-4.988" x2="-8.027" y2="-5.987" xlink:href="#a"/><linearGradient id="s" x1="-8.027" y1="-4.839" x2="-8.027" y2="-5.837" xlink:href="#a"/><linearGradient id="t" x1="-16.583" y1="-4.988" x2="-16.583" y2="-5.987" xlink:href="#a"/><linearGradient id="u" x1="-8.027" y1="-4.846" x2="-8.027" y2="-5.847" xlink:href="#a"/><linearGradient id="v" x1="-8.027" y1="-4.839" x2="-8.027" y2="-5.837" xlink:href="#a"/><linearGradient id="w" x1="-8.027" y1="-4.839" x2="-8.027" y2="-5.837" xlink:href="#a"/><linearGradient id="x" x1="-8.028" y1="-4.847" x2="-8.028" y2="-5.847" xlink:href="#a"/><linearGradient id="y" x1="-8.042" y1="-4.847" x2="-8.042" y2="-5.847" xlink:href="#a"/><linearGradient id="z" x1="-8.027" y1="-4.847" x2="-8.027" y2="-5.847" xlink:href="#a"/><linearGradient id="A" x1="-8.028" y1="-4.846" x2="-8.028" y2="-5.847" xlink:href="#a"/><linearGradient id="C" x1=".136" y1="1.118" x2=".817" y2="-.04" xlink:href="#b"/><linearGradient id="D" x1="-8.027" y1="5.839" x2="-8.027" y2="6.838" xlink:href="#a"/><linearGradient id="E" x1="-8.027" y1="5.847" x2="-8.027" y2="6.847" xlink:href="#a"/><linearGradient id="F" x1="-8.042" y1="5.847" x2="-8.042" y2="6.847" xlink:href="#a"/><linearGradient id="G" x1="-8.027" y1="5.846" x2="-8.027" y2="6.847" xlink:href="#a"/><linearGradient id="H" x1="-8.027" y1="5.846" x2="-8.027" y2="6.847" xlink:href="#a"/><linearGradient id="I" x1="-8.042" y1="5.846" x2="-8.042" y2="6.847" xlink:href="#a"/><linearGradient id="J" x1="-8.028" y1="5.846" x2="-8.028" y2="6.846" xlink:href="#a"/><linearGradient id="K" x1="-8.027" y1="5.839" x2="-8.027" y2="6.838" xlink:href="#a"/><linearGradient id="L" x1="-8.027" y1="5.996" x2="-8.027" y2="6.996" xlink:href="#a"/><linearGradient id="M" x1="-8.027" y1="5.846" x2="-8.027" y2="6.847" xlink:href="#a"/><linearGradient id="N" x1="-8.028" y1="5.996" x2="-8.028" y2="6.996" xlink:href="#a"/><linearGradient id="O" x1="-8.028" y1="5.996" x2="-8.028" y2="6.996" xlink:href="#a"/><linearGradient id="P" x1="-8.027" y1="5.846" x2="-8.027" y2="6.847" xlink:href="#a"/><linearGradient id="Q" x1="-8.042" y1="5.839" x2="-8.042" y2="6.838" xlink:href="#a"/><linearGradient id="R" x1="-8.028" y1="5.847" x2="-8.028" y2="6.847" xlink:href="#a"/><linearGradient id="S" x1="-8.027" y1="5.847" x2="-8.027" y2="6.847" xlink:href="#a"/><linearGradient id="T" x1="-8.027" y1="5.988" x2="-8.027" y2="6.987" xlink:href="#a"/><linearGradient id="U" x1="-8.027" y1="5.839" x2="-8.027" y2="6.837" xlink:href="#a"/><linearGradient id="V" x1="-16.583" y1="5.988" x2="-16.583" y2="6.987" xlink:href="#a"/><linearGradient id="W" x1="-8.027" y1="5.846" x2="-8.027" y2="6.847" xlink:href="#a"/><linearGradient id="X" x1="-8.027" y1="5.839" x2="-8.027" y2="6.837" xlink:href="#a"/><linearGradient id="Y" x1="-8.027" y1="5.839" x2="-8.027" y2="6.837" xlink:href="#a"/><linearGradient id="Z" x1="-8.028" y1="5.847" x2="-8.028" y2="6.847" xlink:href="#a"/><linearGradient id="aa" x1="-8.042" y1="5.847" x2="-8.042" y2="6.847" xlink:href="#a"/><linearGradient id="ab" x1="-8.027" y1="5.847" x2="-8.027" y2="6.847" xlink:href="#a"/><linearGradient id="ac" x1="-8.028" y1="5.846" x2="-8.028" y2="6.847" xlink:href="#a"/><clipPath id="B"><path transform="translate(166.8 364.9)" fill="none" d="M0 0h750v500H0z"/></clipPath><clipPath id="ad"><path fill="none" d="M0 0h750v500H0z"/></clipPath></defs><path fill="url(#b)" d="M0 0h750v500H0z"/><g opacity=".23"><path d="M466.9 382l29.5-17.1L526 382v34.1l-29.6 17.1-29.5-17.1z" opacity=".6" fill="url(#a)" transform="translate(-166.8 -364.9)"/><path d="M466.9 484.3l29.5-17 29.6 17v34.1l-29.6 17.1-29.5-17.1z" opacity=".6" fill="url(#c)" transform="translate(-166.8 -364.9)"/><path d="M585.1 484.3l29.5-17 29.5 17v34.1l-29.5 17.1-29.5-17.1z" fill="url(#d)" transform="translate(-166.8 -364.9)"/><path d="M496.4 433.2l29.6-17.1 29.5 17.1v34.1l-29.5 17-29.6-17z" fill="url(#e)" transform="translate(-166.8 -364.9)"/><path d="M555.5 433.2l29.6-17.1 29.5 17.1v34.1l-29.5 17-29.6-17z" opacity=".6" fill="url(#f)" transform="translate(-166.8 -364.9)"/><path d="M437.4 433.2l29.5-17.1 29.5 17.1v34.1l-29.5 17-29.5-17z" opacity=".8" fill="url(#g)" transform="translate(-166.8 -364.9)"/><path d="M378.3 501.4l29.5-17.1 29.6 17.1v34.1l-29.6 17-29.5-17z" fill="url(#h)" transform="translate(-166.8 -364.9)"/><path d="M496.4 535.5l29.6-17.1 29.5 17.1v34.1L526 586.7l-29.6-17.1z" fill="url(#i)" transform="translate(-166.8 -364.9)"/><path d="M496.4 636.1l29.6-16.6 29.5 16.6v33.3L526 686l-29.6-16.6z" fill="url(#j)" transform="translate(-166.8 -364.9)"/><path d="M407.8 620.8l29.6-17.1 29.5 17.1v34.1l-29.5 17-29.6-17z" opacity=".6" fill="url(#k)" transform="translate(-166.8 -364.9)"/><path d="M526 586.2l29.5-16.6 29.6 16.6v33.3l-29.6 16.6-29.5-16.6z" opacity=".6" fill="url(#l)" transform="translate(-166.8 -364.9)"/><path d="M526 686l29.5-16.6 29.6 16.6v33.3l-29.6 16.6-29.5-16.6z" opacity=".3" fill="url(#m)" transform="translate(-166.8 -364.9)"/><path d="M585.1 586.7l29.5-17.1 29.5 17.1v34.1l-29.5 17-29.5-17z" opacity=".8" fill="url(#g)" transform="translate(-166.8 -364.9)"/></g><g opacity=".23"><path d="M826.9 433.2l29.5-17.1 29.6 17.1v34.1l-29.6 17-29.5-17z" opacity=".6" fill="url(#n)" transform="translate(-166.8 -364.9)"/><path d="M856.4 382l29.6-17.1 29.5 17.1v34.1L886 433.2l-29.6-17.1z" fill="url(#i)" transform="translate(-166.8 -364.9)"/><path d="M797.4 382l29.5-17.1 29.5 17.1v34.1l-29.5 17.1-29.5-17.1z" opacity=".8" fill="url(#o)" transform="translate(-166.8 -364.9)"/><path d="M738.3 450.2l29.5-17 29.6 17v34.1l-29.6 17.1-29.5-17.1z" fill="url(#p)" transform="translate(-166.8 -364.9)"/><path d="M856.4 484.3l29.6-17 29.5 17v34.1L886 535.5l-29.6-17.1z" fill="url(#q)" transform="translate(-166.8 -364.9)"/><path d="M856.4 585l29.6-16.7 29.5 16.7v33.2L886 634.9l-29.6-16.7z" fill="url(#r)" transform="translate(-166.8 -364.9)"/><path d="M767.8 569.6l29.6-17.1 29.5 17.1v34.1l-29.5 17.1-29.6-17.1z" opacity=".6" fill="url(#s)" transform="translate(-166.8 -364.9)"/><path d="M886 535.1l29.5-16.7V585L886 568.3z" opacity=".6" fill="url(#t)" transform="translate(-166.8 -364.9)"/><path d="M886 634.9l29.5-16.7v66.6L886 668.1z" opacity=".3" fill="url(#t)" transform="translate(-166.8 -364.9)"/></g><g opacity=".23"><path d="M255.4 660.3l29.6-17.1 29.5 17.1v34.1l-29.5 17-29.6-17z" opacity=".6" fill="url(#u)" transform="translate(-166.8 -364.9)"/><path d="M255.4 762.6l29.6-17.1 29.5 17.1v34.1L285 813.8l-29.6-17.1z" opacity=".6" fill="url(#v)" transform="translate(-166.8 -364.9)"/><path d="M373.6 762.6l29.5-17.1 29.6 17.1v34.1l-29.6 17.1-29.5-17.1z" fill="url(#w)" transform="translate(-166.8 -364.9)"/><path d="M285 711.4l29.5-17 29.6 17v34.1l-29.6 17.1-29.5-17.1z" fill="url(#x)" transform="translate(-166.8 -364.9)"/><path d="M344.1 711.4l29.5-17 29.5 17v34.1l-29.5 17.1-29.5-17.1z" opacity=".6" fill="url(#y)" transform="translate(-166.8 -364.9)"/><path d="M225.9 711.4l29.5-17 29.6 17v34.1l-29.6 17.1-29.5-17.1z" opacity=".8" fill="url(#z)" transform="translate(-166.8 -364.9)"/><path d="M166.8 779.7l29.5-17.1 29.6 17.1v34.1l-29.6 17-29.5-17z" fill="url(#n)" transform="translate(-166.8 -364.9)"/><path d="M285 813.8l29.5-17.1 29.6 17.1v34.1l-29.6 17-29.5-17z" fill="url(#A)" transform="translate(-166.8 -364.9)"/></g><g clip-path="url(#B)" transform="translate(-166.8 -364.9)"><path d="M410.2 868.2l92.5-53.3a11.8 11.8 0 0116.1 4.4l34.3 59.4a11.9 11.9 0 0016.1 4.3l108-62.3a11.8 11.8 0 0116.1 4.3l30.8 53.4a11.9 11.9 0 01-4.3 16.1l-43.4 25a11.9 11.9 0 01-16.1-4.3l-11.8-20.4a11.9 11.9 0 014.3-16.1l109.4-63.1a11.9 11.9 0 004.4-16.1l-39.9-69a11.8 11.8 0 014.4-16.1l33-19a11.8 11.8 0 0116.1 4.3l16.9 29.4a11.9 11.9 0 0016.1 4.3l34.2-19.7a11.8 11.8 0 004.3-16.1L792.5 595a11.9 11.9 0 014.3-16.1l39-22.5a11.9 11.9 0 0116.1 4.3l113.9 197.4a11.8 11.8 0 0016.1 4.3l36-20.7" fill="none" stroke="#fff" stroke-linecap="round" stroke-linejoin="round" stroke-width="1.5"/><path d="M781.9 1207.3l-23.6-40.8a11.7 11.7 0 00-16-4.3l-26.4 15.2a11.7 11.7 0 01-16.1-4.3l-40.9-70.8a11.9 11.9 0 014.3-16.1l137.5-79.2a11.7 11.7 0 0116 4.3l31.9 55.2a11.9 11.9 0 01-4.3 16.1l-58.5 33.7a11.8 11.8 0 01-16.1-4.3l-85.2-147.6a11.7 11.7 0 00-16.1-4.3l-11.1 6.4a11.7 11.7 0 01-16-4.3l-65.8-114.1a11.7 11.7 0 014.3-16l41.4-23.9a11.8 11.8 0 004.3-16.1l-58.1-100.8" fill="none" stroke="#fff" stroke-linecap="round" stroke-linejoin="round" stroke-width="1.5"/><path d="M986.4 687.1L910.2 731a11.8 11.8 0 00-4.3 16.1l82.4 142.8a11.7 11.7 0 0016 4.3l34.3-19.7a11.9 11.9 0 004.3-16.1l-22.5-39a11.9 11.9 0 00-16.1-4.3l-71.4 41.2a11.8 11.8 0 00-4.3 16.1l65.7 114a11.8 11.8 0 01-4.3 16.1l-41.4 23.9a11.9 11.9 0 01-16.1-4.3l-12.8-22.2a11.8 11.8 0 00-16.1-4.4l-102 58.9a11.9 11.9 0 01-16.1-4.3L753.2 994a11.9 11.9 0 00-16.1-4.4l-162 93.5M514.3 977.8l22.2-12.8a11.8 11.8 0 004.3-16.1l-76.5-132.6a11.8 11.8 0 014.4-16.1l66-38.1a11.7 11.7 0 0116 4.4l8.4 14.4a11.7 11.7 0 0016 4.3l94.2-54.4a11.8 11.8 0 004.4-16.1l-11.8-20.4a11.9 11.9 0 00-16.1-4.3l-19.2 11.1a11.9 11.9 0 00-4.3 16.1l38.1 66a11.8 11.8 0 0016.1 4.3l79.8-46a11.9 11.9 0 004.3-16.1L678 582.5" fill="none" stroke="#fff" stroke-linecap="round" stroke-linejoin="round" stroke-width="1.5"/><path d="M1020.1 1069.9L893.4 850.3a11.8 11.8 0 00-16.1-4.3l-58.2 33.5a11.9 11.9 0 00-4.3 16.1l23.9 41.4a11.8 11.8 0 0016.1 4.3l141.6-81.6a11.8 11.8 0 0116.1 4.3l48.4 84a11.9 11.9 0 0016.1 4.3l46.8-27" fill="none" stroke="#fff" stroke-linecap="round" stroke-linejoin="round" stroke-width="1.5"/><path d="M917.9 568.3l-123.7 71.3a11.8 11.8 0 00-4.3 16.1l76.9 133.2a11.9 11.9 0 01-4.3 16.1l-89.4 51.5a11.8 11.8 0 00-4.4 16.1l105.6 183a11.8 11.8 0 0016.1 4.3l19.2-11a11.8 11.8 0 0116.1 4.3l30.8 53.4M553.1 1045l76.6-44.2a11.4 11.4 0 0115.4 4.1l51.8 89.7a11.3 11.3 0 01-4.2 15.4l-76.6 44.2" fill="none" stroke="#fff" stroke-linecap="round" stroke-linejoin="round" stroke-width="1.5"/><path d="M999.5 1034.2a4.143 4.143 0 11-4.1-7.2 4 4 0 015.6 1.5 4.1 4.1 0 01-1.5 5.7zM933.3 795.3a4.2 4.2 0 01-5.7-1.5 4.1 4.1 0 011.5-5.7 4.2 4.2 0 014.2 7.2zM1034 843a4.1 4.1 0 01-5.7-1.5 4.143 4.143 0 117.2-4.1 4 4 0 01-1.5 5.6zM900.1 920.3a4.3 4.3 0 01-5.7-1.5 4.168 4.168 0 115.7 1.5zM679.9 586.1a4.1 4.1 0 01-5.6-1.6 4 4 0 011.5-5.6 4.1 4.1 0 015.7 1.5 4.3 4.3 0 01-1.6 5.7zM697.7 780.4a4.1 4.1 0 01-5.7-1.5 4.3 4.3 0 011.6-5.7 4.1 4.1 0 015.6 1.6 4 4 0 01-1.5 5.6zM569.4 694.9a4.1 4.1 0 111.6-5.7 4.3 4.3 0 01-1.6 5.7zM618.4 922.6a4.3 4.3 0 01-5.7-1.6 4.1 4.1 0 011.6-5.6 4 4 0 015.6 1.5 4.1 4.1 0 01-1.5 5.7zM652.9 839.2a4.2 4.2 0 11-4.2-7.2 4.3 4.3 0 015.7 1.6 4.2 4.2 0 01-1.5 5.6zM537.8 852.6a4.3 4.3 0 01-5.7-1.6 4.1 4.1 0 115.7 1.6zM527.4 975.1a4.3 4.3 0 01-5.7-1.6 3.911 3.911 0 115.7 1.6zM598.4 1023.7a4.3 4.3 0 01-5.7-1.5 4.168 4.168 0 115.7 1.5zM625.6 1153.5a4.2 4.2 0 11-4.2-7.2 4.3 4.3 0 015.7 1.6 4.1 4.1 0 01-1.5 5.6zM686.4 1023.7a4.168 4.168 0 111.5-5.7 4.3 4.3 0 01-1.5 5.7zM682.6 1143.3a4.1 4.1 0 01-5.7-1.5 4.2 4.2 0 011.5-5.7 4.3 4.3 0 015.7 1.5 4.1 4.1 0 01-1.5 5.7zM771.2 1188.7a4.2 4.2 0 111.079-5.455 4.2 4.2 0 01-1.079 5.455zM1002.9 755.1a4.1 4.1 0 01-5.7-1.5 4.143 4.143 0 117.2-4.1 4.1 4.1 0 01-1.5 5.6zM910.6 663.2a4.1 4.1 0 111.6-5.7 4.3 4.3 0 01-1.6 5.7zM818.4 571.2a4.1 4.1 0 01-5.7-1.5 4.3 4.3 0 011.6-5.7 4.1 4.1 0 015.6 1.6 4 4 0 01-1.5 5.6zM906.4 579.7a4.1 4.1 0 01-5.6-1.6 4 4 0 011.5-5.6 4.1 4.1 0 015.7 1.5 4.3 4.3 0 01-1.6 5.7zM846.1 753.2a4.1 4.1 0 01-5.7-1.5 4.2 4.2 0 011.5-5.7 4.3 4.3 0 015.7 1.5 4.1 4.1 0 01-1.5 5.7zM885.9 1010.6a4.3 4.3 0 01-5.7-1.6 4.1 4.1 0 011.6-5.6 4 4 0 015.6 1.5 4.1 4.1 0 01-1.5 5.7zM819.1 1102.2a4.2 4.2 0 01-5.7-1.6 4 4 0 011.5-5.6 4.1 4.1 0 015.7 1.5 4.3 4.3 0 01-1.5 5.7zM1041.9 915.7a4 4 0 01-5.6-1.5 4.1 4.1 0 011.5-5.7 4.3 4.3 0 015.7 1.6 4.1 4.1 0 01-1.6 5.6z" fill="#fff"/><g opacity=".4"><path d="M1065.1 915.9l-73.8 42.4a9.5 9.5 0 01-12.8-3.5l-27.3-47.3a9.3 9.3 0 00-12.8-3.4l-86 49.6a9.4 9.4 0 01-12.8-3.4L815 907.7a9.4 9.4 0 013.5-12.8L853 875a9.3 9.3 0 0112.8 3.4l9.4 16.3a9.4 9.4 0 01-3.4 12.8l-87.2 50.2a9.5 9.5 0 00-3.4 12.9l31.7 54.9a9.4 9.4 0 01-3.4 12.8l-26.3 15.2a9.4 9.4 0 01-12.8-3.4l-13.6-23.5a9.4 9.4 0 00-12.8-3.4l-27.2 15.7a9.4 9.4 0 00-3.4 12.8l47.1 81.8a9.4 9.4 0 01-3.4 12.8l-31.1 17.9a9.4 9.4 0 01-12.8-3.4l-90.7-157.3a9.4 9.4 0 00-12.8-3.4l-28.7 16.5" fill="none" stroke="#fff" stroke-linecap="round" stroke-linejoin="round" stroke-width="1.5"/><path d="M750.2 613.6l37.5 64.6a9.5 9.5 0 0012.8 3.5l21.1-12.2a9.5 9.5 0 0112.8 3.5l32.5 56.4a9.4 9.4 0 01-3.4 12.8L754 805.3a9.4 9.4 0 01-12.8-3.4l-25.4-44a9.5 9.5 0 013.5-12.8l46.6-26.9a9.4 9.4 0 0112.8 3.5l67.8 117.5a9.5 9.5 0 0012.8 3.5l8.9-5.1A9.4 9.4 0 01881 841l52.4 90.8a9.4 9.4 0 01-3.5 12.8l-32.9 19a9.5 9.5 0 00-3.5 12.9l46.3 80.3" fill="none" stroke="#fff" stroke-linecap="round" stroke-linejoin="round" stroke-width="1.5"/><path d="M606.1 1060.1l60.7-35a9.4 9.4 0 003.4-12.8l-65.6-113.8a9.4 9.4 0 00-12.8-3.4l-27.3 15.7a9.4 9.4 0 00-3.4 12.8l17.9 31.1a9.4 9.4 0 0012.8 3.4l56.9-32.8a9.5 9.5 0 003.5-12.8l-52.4-90.8a9.3 9.3 0 013.4-12.8l33-19a9.4 9.4 0 0112.8 3.4l10.2 17.7a9.4 9.4 0 0012.8 3.4l81.3-46.9a9.5 9.5 0 0112.8 3.5l25.7 44.7a9.5 9.5 0 0012.9 3.4l129-74.4M982.1 828.5l-17.7 10.2a9.4 9.4 0 00-3.4 12.9l60.9 105.6a9.4 9.4 0 01-3.4 12.8l-52.6 30.3a9.3 9.3 0 01-12.8-3.4l-6.6-11.5a9.4 9.4 0 00-12.8-3.4l-75.1 43.3a9.3 9.3 0 00-3.4 12.8l9.4 16.2a9.4 9.4 0 0012.8 3.5l15.3-8.9a9.4 9.4 0 003.4-12.8l-30.3-52.5a9.4 9.4 0 00-12.8-3.5l-63.6 36.7a9.3 9.3 0 00-3.4 12.8l65.8 113.8" fill="none" stroke="#fff" stroke-linecap="round" stroke-linejoin="round" stroke-width="1.5"/><path d="M552.8 709.6l127.3 220.5a9.6 9.6 0 0012.9 3.5l46.3-26.8a9.5 9.5 0 003.5-12.8l-19.1-33a9.3 9.3 0 00-12.8-3.4l-112.8 65a9.4 9.4 0 01-12.8-3.4l-38.6-66.9a9.3 9.3 0 00-12.8-3.4l-37.3 21.5" fill="none" stroke="#fff" stroke-linecap="round" stroke-linejoin="round" stroke-width="1.5"/><path d="M660.7 1154.7l98.4-56.8a9.4 9.4 0 003.5-12.8L701.4 979a9.4 9.4 0 013.4-12.8l71.2-41.1a9.3 9.3 0 003.4-12.8l-99.6-172.4a9.3 9.3 0 00-12.8-3.4l-15.3 8.8a9.4 9.4 0 01-12.8-3.5l-21.5-37.5M951.2 775l-61 35.2a9 9 0 01-12.3-3.3l-41.2-71.4a9 9 0 013.3-12.3l82.4-47.4" fill="none" stroke="#fff" stroke-linecap="round" stroke-linejoin="round" stroke-width="1.5"/><path d="M551 706.7a3.3 3.3 0 11-1.2 4.5 3.3 3.3 0 011.2-4.5zM615.7 701.4a3.4 3.4 0 014.6 1.3 3.3 3.3 0 01-1.3 4.5 3.4 3.4 0 01-4.5-1.2 3.5 3.5 0 011.2-4.6zM648.4 973.9a3.3 3.3 0 013.3 5.7 3.2 3.2 0 01-4.5-1.2 3.3 3.3 0 011.2-4.5zM568.2 935.9a3.3 3.3 0 11-1.2 4.5 3.3 3.3 0 011.2-4.5zM674.8 874.4a3.3 3.3 0 11-1.114 4.5 3.3 3.3 0 011.114-4.5zM850.2 1140.6a3.3 3.3 0 11-1.2 4.5 3.3 3.3 0 011.2-4.5zM836 985.7a3.3 3.3 0 014.5 1.3 3.2 3.2 0 01-1.2 4.5 3.337 3.337 0 11-3.3-5.8zM938.2 1053.9a3.3 3.3 0 11-1.2 4.5 3.3 3.3 0 011.2-4.5zM899.2 872.5a3.3 3.3 0 11-1.2 4.6 3.4 3.4 0 011.2-4.6zM871.8 938.9a3.3 3.3 0 014.5 1.2 3.4 3.4 0 01-1.2 4.5 3.3 3.3 0 11-3.3-5.7zM963.4 928.3a3.3 3.3 0 11-1.2 4.5 3.3 3.3 0 011.2-4.5zM971.7 830.7a3.337 3.337 0 013.3 5.8 3.337 3.337 0 11-3.3-5.8zM915.1 792a3.3 3.3 0 11-1.2 4.5 3.4 3.4 0 011.2-4.5zM893.5 688.6a3.2 3.2 0 014.5 1.2 3.3 3.3 0 11-4.5-1.2zM845.1 792a3.3 3.3 0 11-1.2 4.5 3.2 3.2 0 011.2-4.5zM848.1 696.7a3.3 3.3 0 11-1.022 4.4 3.3 3.3 0 011.022-4.4zM748.5 610.7a3.3 3.3 0 11-1.022 4.4 3.3 3.3 0 011.022-4.4zM593 1005.9a3.3 3.3 0 014.5 1.2 3.337 3.337 0 01-5.8 3.3 3.3 3.3 0 011.3-4.5zM666.4 1079.1a3.4 3.4 0 014.5 1.2 3.3 3.3 0 11-4.5-1.2zM739.9 1152.4a3.2 3.2 0 014.5 1.2 3.3 3.3 0 11-4.5-1.2zM669.8 1145.7a3.3 3.3 0 11-1.2 4.5 3.2 3.2 0 011.2-4.5zM717.8 1007.4a3.5 3.5 0 014.6 1.2 3.4 3.4 0 01-1.3 4.6 3.3 3.3 0 01-4.5-1.3 3.4 3.4 0 011.2-4.5zM686.1 802.4a3.3 3.3 0 014.5 1.3 3.2 3.2 0 01-1.2 4.5 3.3 3.3 0 01-4.5-1.2 3.4 3.4 0 011.2-4.6zM739.4 729.5a3.3 3.3 0 11-1.2 4.5 3.2 3.2 0 011.2-4.5zM561.8 878a3.4 3.4 0 014.6 1.2 3.337 3.337 0 01-5.8 3.3 3.4 3.4 0 011.2-4.5z" fill="#fff"/></g><g opacity=".4"><path d="M569.2 305.6L495.4 348a9.5 9.5 0 01-12.8-3.5l-27.3-47.3a9.3 9.3 0 00-5.689-4.377 9.3 9.3 0 00-7.111.977l-86 49.6a9.4 9.4 0 01-12.8-3.4l-24.6-42.6a9.5 9.5 0 013.5-12.8l34.5-19.9a9.4 9.4 0 017.158-.985A9.4 9.4 0 01370 268.1l9.3 16.3a9.4 9.4 0 01-3.4 12.8l-87.1 50.2a9.5 9.5 0 00-3.5 12.9l31.7 54.9a9.3 9.3 0 01-3.4 12.8l-26.3 15.2a9.4 9.4 0 01-12.8-3.4L261 416.3a9.4 9.4 0 00-12.8-3.4l-27.3 15.7a9.4 9.4 0 00-3.4 12.8l47.1 81.8a9.4 9.4 0 01-3.4 12.8l-31.1 17.9a9.4 9.4 0 01-12.8-3.4l-90.7-157.3a9.3 9.3 0 00-5.689-4.377 9.3 9.3 0 00-7.111.977l-28.7 16.5" fill="none" stroke="#fff" stroke-linecap="round" stroke-linejoin="round" stroke-width="1.5"/><path d="M254.3 3.3l37.6 64.6a9.4 9.4 0 0012.8 3.5l21-12.2a9.5 9.5 0 0112.8 3.5l32.5 56.4a9.4 9.4 0 01-3.4 12.8L258.2 195a9.4 9.4 0 01-7.158.985 9.4 9.4 0 01-5.742-4.385l-25.3-44a9.3 9.3 0 01-.977-7.111 9.3 9.3 0 014.377-5.689l46.6-26.9a9.4 9.4 0 0112.8 3.5l67.9 117.5a9.4 9.4 0 0012.8 3.5l8.8-5.1a9.3 9.3 0 017.111-.977 9.3 9.3 0 015.689 4.377l52.4 90.8a9.4 9.4 0 01-3.4 12.8l-33 19.1a9.4 9.4 0 00-3.5 12.8l46.4 80.3" fill="none" stroke="#fff" stroke-linecap="round" stroke-linejoin="round" stroke-width="1.5"/><path d="M110.2 449.8l60.7-35a9.3 9.3 0 004.377-5.689A9.3 9.3 0 00174.3 402l-65.6-113.8a9.4 9.4 0 00-12.8-3.4l-27.2 15.7a9.5 9.5 0 00-3.5 12.8l18 31.1a9.3 9.3 0 005.689 4.377A9.3 9.3 0 0096 347.8l56.8-32.8a9.4 9.4 0 003.5-12.8l-52.4-90.8a9.4 9.4 0 013.4-12.8l33-19a9.3 9.3 0 017.111-.977A9.3 9.3 0 01153.1 183l10.2 17.7a9.4 9.4 0 0012.8 3.4l81.3-46.9a9.5 9.5 0 0112.8 3.5l25.8 44.7a9.4 9.4 0 0012.8 3.4l129-74.4M486.2 218.2l-17.7 10.2a9.5 9.5 0 00-3.4 12.9L526 346.9a9.3 9.3 0 01.977 7.111 9.3 9.3 0 01-4.377 5.689L470 390a9.4 9.4 0 01-12.8-3.4l-6.6-11.5a9.4 9.4 0 00-12.8-3.4L362.7 415a9.4 9.4 0 00-3.4 12.8l9.4 16.2a9.5 9.5 0 0012.8 3.5l15.3-8.9a9.3 9.3 0 003.4-12.8l-30.3-52.5a9.4 9.4 0 00-12.8-3.5l-63.6 36.7a9.3 9.3 0 00-3.4 12.8l65.8 113.8" fill="none" stroke="#fff" stroke-linecap="round" stroke-linejoin="round" stroke-width="1.5"/><path d="M57 99.3l127.3 220.5a9.4 9.4 0 0012.8 3.5l46.3-26.8a9.4 9.4 0 003.5-12.8l-19-33a9.5 9.5 0 00-12.9-3.4l-112.7 65.1a9.6 9.6 0 01-12.9-3.5L50.8 242a9.3 9.3 0 00-5.689-4.377A9.3 9.3 0 0038 238.6L.7 260.1" fill="none" stroke="#fff" stroke-linecap="round" stroke-linejoin="round" stroke-width="1.5"/><path d="M164.8 544.4l98.5-56.8a9.4 9.4 0 003.4-12.8l-61.2-106.1a9.4 9.4 0 013.4-12.8l71.2-41.1a9.3 9.3 0 004.435-5.666A9.3 9.3 0 00283.6 302l-99.7-172.4a9.3 9.3 0 00-5.689-4.377 9.3 9.3 0 00-7.111.977l-15.3 8.8a9.4 9.4 0 01-12.8-3.4L121.5 94M455.3 164.7l-61 35.2a9 9 0 01-6.834.9 9 9 0 01-5.466-4.2l-41.2-71.4a9.1 9.1 0 013.3-12.3l82.4-47.4" fill="none" stroke="#fff" stroke-linecap="round" stroke-linejoin="round" stroke-width="1.5"/><path d="M55.1 96.4a3.3 3.3 0 014.5 1.2 3.2 3.2 0 01.371 2.509A3.2 3.2 0 0158.4 102.1a3.3 3.3 0 01-4.5-1.2 3.3 3.3 0 011.2-4.5zM119.9 91.1a3.3 3.3 0 012.521-.287A3.3 3.3 0 01124.4 92.4a3.3 3.3 0 01-1.2 4.5 3.5 3.5 0 01-4.6-1.2 3.4 3.4 0 011.3-4.6zM152.5 363.6a3.3 3.3 0 014.5 1.2 3.2 3.2 0 01.371 2.509 3.2 3.2 0 01-1.571 1.991 3.2 3.2 0 01-2.509.371 3.2 3.2 0 01-1.991-1.571 3.3 3.3 0 011.2-4.5zM72.3 325.6a3.3 3.3 0 014.5 1.2 3.3 3.3 0 01-1.2 4.5 3.3 3.3 0 01-4.5-1.2 3.3 3.3 0 011.2-4.5zM179 264.1a3.2 3.2 0 012.509-.371 3.2 3.2 0 011.991 1.571 3.3 3.3 0 01-1.2 4.5 3.3 3.3 0 01-4.5-1.2 3.2 3.2 0 01-.371-2.509A3.2 3.2 0 01179 264.1zM354.3 530.3a3.3 3.3 0 11-1.2 4.5 3.3 3.3 0 011.2-4.5zM340.2 375.4a3.3 3.3 0 014.5 1.3 3.337 3.337 0 11-5.8 3.3 3.4 3.4 0 011.3-4.6zM442.3 443.6a3.3 3.3 0 014.5 1.2 3.2 3.2 0 01-1.2 4.5 3.3 3.3 0 11-3.3-5.7zM403.3 262.3a3.2 3.2 0 012.509-.371 3.2 3.2 0 011.991 1.571 3.3 3.3 0 01-1.2 4.5 3.3 3.3 0 01-4.5-1.2 3.3 3.3 0 011.2-4.5zM375.9 328.6a3.3 3.3 0 014.5 1.2 3.3 3.3 0 01-1.2 4.5 3.2 3.2 0 01-2.509.371 3.2 3.2 0 01-1.991-1.571 3.3 3.3 0 011.2-4.5zM467.5 318a3.4 3.4 0 014.6 1.2 3.3 3.3 0 01.287 2.521 3.3 3.3 0 01-1.587 1.979 3.3 3.3 0 01-4.5-1.2 3.4 3.4 0 011.2-4.5zM475.8 220.4a3.4 3.4 0 014.5 1.2 3.4 3.4 0 01-1.2 4.6 3.4 3.4 0 01-4.5-1.2 3.4 3.4 0 011.2-4.6zM419.3 181.7a3.3 3.3 0 014.5 1.2 3.3 3.3 0 01-1.2 4.5 3.3 3.3 0 01-4.5-1.2 3.2 3.2 0 01-.371-2.509 3.2 3.2 0 011.571-1.991zM397.6 78.3a3.2 3.2 0 012.509-.371A3.2 3.2 0 01402.1 79.5a3.3 3.3 0 01-1.2 4.5 3.3 3.3 0 01-4.5-1.2 3.3 3.3 0 011.2-4.5zM349.2 181.7a3.3 3.3 0 014.5 1.2 3.3 3.3 0 01-1.2 4.5 3.3 3.3 0 01-4.5-1.2 3.3 3.3 0 011.2-4.5zM352.2 86.4a3.3 3.3 0 014.5 1.2 3.3 3.3 0 01-1.2 4.5 3.2 3.2 0 01-2.509.371A3.2 3.2 0 01351 90.9a3.3 3.3 0 011.2-4.5zM252.6.4a3.3 3.3 0 014.5 1.2 3.3 3.3 0 01-1.2 4.5 3.2 3.2 0 01-2.509.371A3.2 3.2 0 01251.4 4.9a3.3 3.3 0 011.2-4.5zM97.1 395.6a3.3 3.3 0 014.5 1.2 3.3 3.3 0 01-1.2 4.5 3.3 3.3 0 01-4.5-1.2 3.3 3.3 0 011.2-4.5zM170.5 468.8a3.5 3.5 0 014.6 1.2 3.5 3.5 0 01-1.2 4.6 3.5 3.5 0 01-4.6-1.2 3.5 3.5 0 011.2-4.6zM244 542.1a3.3 3.3 0 11-1.2 4.5 3.3 3.3 0 011.2-4.5zM173.9 535.4a3.3 3.3 0 11-1.2 4.5 3.3 3.3 0 011.2-4.5zM222 397.1a3.337 3.337 0 113.3 5.8 3.4 3.4 0 01-4.6-1.3 3.3 3.3 0 011.3-4.5zM190.2 192.2a3.3 3.3 0 012.555-.378 3.3 3.3 0 012.045 1.578 3.4 3.4 0 01-1.2 4.5 3.4 3.4 0 01-4.6-1.2 3.4 3.4 0 011.2-4.5zM243.5 119.2a3.3 3.3 0 014.5 1.2 3.3 3.3 0 01-1.2 4.5 3.3 3.3 0 01-4.5-1.2 3.3 3.3 0 011.2-4.5zM66 267.7a3.3 3.3 0 014.5 1.2 3.3 3.3 0 01-1.2 4.5 3.3 3.3 0 01-4.5-1.2 3.2 3.2 0 01-.371-2.509A3.2 3.2 0 0166 267.7z" fill="#fff"/></g></g><path d="M126.7 420.3a2 2 0 000-4c-2.5 0-2.5 4 0 4zM436.1 316.3a2 2 0 10-2-2 2 2 0 002 2zM489.4 410.9a2 2 0 10-2-2 2 2 0 002 2zM76.4 93.9a2 2 0 002.7.8l1.3-.7a1.9 1.9 0 00.7-2.7 2 2 0 00-2.7-.8l-1.3.7a1.9 1.9 0 00-.7 2.7zM464.4 110.9a2 2 0 10-2-2 2 2 0 002 2zM342.1 454.6a1 1 0 10-1-1 1 1 0 001 1zM461.4 409.9a1 1 0 10-1-1 1 1 0 001 1zM495.4 379.9a1 1 0 10-1-1 1 1 0 001 1zM470.1 336.6a1 1 0 10-1-1 1 1 0 001 1zM422.1 311.9a1 1 0 10-1-1 1 1 0 001 1zM17.9 247.7a2 2 0 10-2-2 2 2 0 002 2zM71.3 342.4c2.5 0 2.5-4 0-4a2 2 0 000 4zM43.3 341.4a1 1 0 10-1-1 1 1 0 001 1zM77.3 311.4a1 1 0 10-1-1 1 1 0 001 1zM51.9 268.1a1 1 0 10-1-1 1 1 0 001 1zM3.9 243.4a1 1 0 10-1-1 1 1 0 001 1zM164.1 399.3a1 1 0 10-1-1 1 1 0 001 1zM184.7 374.6a1 1 0 10-1-1 1 1 0 001 1zM98.1 422.6a1 1 0 10-1-1 1 1 0 001 1zM192.7 339.9a1 1 0 10-1-1 1 1 0 001 1zM92.1 159.3a1 1 0 10-1-1 1 1 0 001 1zM101.4 139.9a1 1 0 10-1-1 1 1 0 001 1zM68.1 128.6a1 1 0 10-1-1 1 1 0 001 1zM65.4 87.3a1 1 0 10-1-1 1 1 0 001 1zM154.1 47.3a1 1 0 10-1-1 1 1 0 001 1zM314.1 21.3a1 1 0 10-1-1 1 1 0 001 1zM466.7 81.9a1 1 0 10-1-1 1 1 0 001 1zM484.1 85.9a1 1 0 10-1-1 1 1 0 001 1zM478.1 97.9a1 1 0 10-1-1 1 1 0 001 1zM480.7 149.3a1 1 0 10-1-1 1 1 0 001 1zM496.1 203.3a1 1 0 10-1-1 1 1 0 001 1zM246.1 406.6a1 1 0 10-1-1 1 1 0 001 1zM179.4 420.6a1 1 0 10-1-1 1 1 0 001 1zM38.4 434.7a1 1 0 10-1-1 1 1 0 001 1zM46.4 400.1a1 1 0 10-1-1 1 1 0 001 1zM99.7 466.7a1 1 0 10-1-1 1 1 0 001 1zM222.7 213.5a2 2 0 000-4c-2.5 0-2.5 4 0 4zM167.3 135.6c2.5 0 2.5-4 0-4a2 2 0 000 4zM260.1 192.5a1 1 0 10-1-1 1 1 0 001 1zM280.7 167.8a1 1 0 10-1-1 1 1 0 001 1zM194.1 215.8a1 1 0 10-1-1 1 1 0 001 1zM288.7 133.2a1 1 0 10-1-1 1 1 0 001 1zM342.1 199.8a1 1 0 10-1-1 1 1 0 001 1zM275.4 213.8a1 1 0 10-1-1 1 1 0 001 1zM195.7 260a1 1 0 10-1-1 1 1 0 001 1zM33 481.7a1 1 0 10-1-1 1 1 0 001 1z" fill="#fff"/><g><path transform="translate(0 500)" fill="url(#C)" d="M0 0h750v500H0z"/><g opacity=".23"><path d="M466.9 416.1l29.5 17.1 29.6-17.1V382l-29.6-17.1-29.5 17.1z" transform="translate(-166.8 566.8)" opacity=".6" fill="url(#D)"/><path d="M466.9 518.5l29.5 17 29.6-17v-34.1l-29.6-17.1-29.5 17.1z" transform="translate(-166.8 362.1)" opacity=".6" fill="url(#E)"/><path d="M585.1 518.5l29.5 17 29.5-17v-34.1l-29.5-17.1-29.5 17.1z" transform="translate(-166.8 362.1)" fill="url(#F)"/><path d="M496.4 467.2l29.6 17.1 29.5-17.1v-34.1l-29.5-17-29.6 17z" transform="translate(-166.8 464.5)" fill="url(#G)"/><path d="M555.5 467.2l29.6 17.1 29.5-17.1v-34.1l-29.5-17-29.6 17z" transform="translate(-166.8 464.5)" opacity=".6" fill="url(#H)"/><path d="M437.4 467.2l29.5 17.1 29.5-17.1v-34.1l-29.5-17-29.5 17z" transform="translate(-166.8 464.5)" opacity=".8" fill="url(#I)"/><path d="M378.3 535.4l29.5 17.1 29.6-17.1v-34.1l-29.6-17-29.5 17z" transform="translate(-166.8 328.1)" fill="url(#J)"/><path d="M496.4 569.6l29.6 17.1 29.5-17.1v-34.1L526 518.4l-29.6 17.1z" transform="translate(-166.8 259.8)" fill="url(#K)"/><path d="M496.4 669.4L526 686l29.5-16.6v-33.3L526 619.5l-29.6 16.6z" transform="translate(-166.8 59.4)" fill="url(#L)"/><path d="M407.8 654.8l29.6 17.1 29.5-17.1v-34.1l-29.5-17-29.6 17z" transform="translate(-166.8 89.3)" opacity=".6" fill="url(#M)"/><path d="M526 619.5l29.5 16.6 29.6-16.6v-33.3l-29.6-16.6-29.5 16.6z" transform="translate(-166.8 159.2)" opacity=".6" fill="url(#N)"/><path d="M526 719.3l29.5 16.6 29.6-16.6V686l-29.6-16.6L526 686z" transform="translate(-166.8 -40.4)" opacity=".3" fill="url(#O)"/><path d="M585.1 620.7l29.5 17.1 29.5-17.1v-34.1l-29.5-17-29.5 17z" transform="translate(-166.8 157.5)" opacity=".8" fill="url(#I)"/></g><g opacity=".23"><path d="M826.9 467.2l29.5 17.1 29.6-17.1v-34.1l-29.6-17-29.5 17z" transform="translate(-166.8 464.5)" opacity=".6" fill="url(#P)"/><path d="M856.4 416.1l29.6 17.1 29.5-17.1V382L886 364.9 856.4 382z" transform="translate(-166.8 566.8)" fill="url(#K)"/><path d="M797.4 416.1l29.5 17.1 29.5-17.1V382l-29.5-17.1-29.5 17.1z" transform="translate(-166.8 566.8)" opacity=".8" fill="url(#Q)"/><path d="M738.3 484.4l29.5 17 29.6-17v-34.1l-29.6-17.1-29.5 17.1z" transform="translate(-166.8 430.3)" fill="url(#R)"/><path d="M856.4 518.5l29.6 17 29.5-17v-34.1L886 467.3l-29.6 17.1z" transform="translate(-166.8 362.1)" fill="url(#S)"/><path d="M856.4 618.2l29.6 16.7 29.5-16.7V585L886 568.3 856.4 585z" transform="translate(-166.8 161.7)" fill="url(#T)"/><path d="M767.8 603.7l29.6 17.1 29.5-17.1v-34.1l-29.5-17.1-29.6 17.1z" transform="translate(-166.8 191.6)" opacity=".6" fill="url(#U)"/><path d="M886 568.3l29.5 16.7v-66.6L886 535.1z" transform="translate(-166.8 261.5)" opacity=".6" fill="url(#V)"/><path d="M886 668.1l29.5 16.7v-66.6L886 634.9z" transform="translate(-166.8 61.9)" opacity=".3" fill="url(#V)"/></g><g opacity=".23"><path d="M255.4 694.3l29.6 17.1 29.5-17.1v-34.1l-29.5-17-29.6 17z" transform="translate(-166.8 10.3)" opacity=".6" fill="url(#W)"/><path d="M255.4 796.7l29.6 17.1 29.5-17.1v-34.1L285 745.5l-29.6 17.1z" transform="translate(-166.8 -194.4)" opacity=".6" fill="url(#X)"/><path d="M373.6 796.7l29.5 17.1 29.6-17.1v-34.1l-29.6-17.1-29.5 17.1z" transform="translate(-166.8 -194.4)" fill="url(#Y)"/><path d="M285 745.6l29.5 17 29.6-17v-34.1l-29.6-17.1-29.5 17.1z" transform="translate(-166.8 -92.1)" fill="url(#Z)"/><path d="M344.1 745.6l29.5 17 29.5-17v-34.1l-29.5-17.1-29.5 17.1z" transform="translate(-166.8 -92.1)" opacity=".6" fill="url(#aa)"/><path d="M225.9 745.6l29.5 17 29.6-17v-34.1l-29.6-17.1-29.5 17.1z" transform="translate(-166.8 -92.1)" opacity=".8" fill="url(#ab)"/><path d="M166.8 813.7l29.5 17.1 29.6-17.1v-34.1l-29.6-17-29.5 17z" transform="translate(-166.8 -228.5)" fill="url(#P)"/><path d="M285 847.8l29.5 17.1 29.6-17.1v-34.1l-29.6-17-29.5 17z" transform="translate(-166.8 -296.7)" fill="url(#ac)"/></g><g transform="translate(0 500)" clip-path="url(#ad)"><path d="M243.4-3.3L335.9 50a11.8 11.8 0 0016.1-4.4l34.3-59.4a11.9 11.9 0 0116.1-4.3l108 62.3a11.8 11.8 0 0016.1-4.3l30.8-53.4a11.9 11.9 0 00-4.3-16.1l-43.4-25a11.9 11.9 0 00-16.1 4.3l-11.8 20.4a11.9 11.9 0 004.3 16.1l109.4 63.1a11.9 11.9 0 014.4 16.1l-39.9 69a11.8 11.8 0 004.4 16.1l33 19a11.8 11.8 0 0016.1-4.3l16.9-29.4a11.9 11.9 0 0116.1-4.3l34.2 19.7a11.8 11.8 0 014.3 16.1l-59.2 102.6A11.9 11.9 0 00630 286l39 22.5a11.9 11.9 0 0016.1-4.3L799 106.8a11.8 11.8 0 0116.1-4.3l36 20.7" fill="none" stroke="#fff" stroke-linecap="round" stroke-linejoin="round" stroke-width="1.5"/><path d="M615.1-342.4l-23.6 40.8a11.7 11.7 0 01-16 4.3l-26.4-15.2a11.7 11.7 0 00-16.1 4.3l-40.9 70.8a11.9 11.9 0 004.3 16.1l137.5 79.2a11.7 11.7 0 0016-4.3l31.9-55.2a11.9 11.9 0 00-4.3-16.1L619-251.4a11.8 11.8 0 00-16.1 4.3L517.7-99.5a11.7 11.7 0 01-16.1 4.3l-11.1-6.4a11.7 11.7 0 00-16 4.3L408.7 16.8a11.7 11.7 0 004.3 16l41.4 23.9a11.8 11.8 0 014.3 16.1l-58.1 100.8" fill="none" stroke="#fff" stroke-linecap="round" stroke-linejoin="round" stroke-width="1.5"/><path d="M819.6 177.8l-76.2-43.9a11.8 11.8 0 01-4.3-16.1L821.5-25a11.7 11.7 0 0116-4.3l34.3 19.7a11.9 11.9 0 014.3 16.1l-22.5 39a11.9 11.9 0 01-16.1 4.3L766.1 8.6a11.8 11.8 0 01-4.3-16.1l65.7-114a11.8 11.8 0 00-4.3-16.1l-41.4-23.9a11.9 11.9 0 00-16.1 4.3L752.9-135a11.8 11.8 0 01-16.1 4.4l-102-58.9a11.9 11.9 0 00-16.1 4.3l-32.3 56.1a11.9 11.9 0 01-16.1 4.4l-162-93.5M347.5-112.9l22.2 12.8A11.8 11.8 0 01374-84L297.5 48.6a11.8 11.8 0 004.4 16.1l66 38.1a11.7 11.7 0 0016-4.4l8.4-14.4a11.7 11.7 0 0116-4.3l94.2 54.4a11.8 11.8 0 014.4 16.1l-11.8 20.4a11.9 11.9 0 01-16.1 4.3l-19.2-11.1a11.9 11.9 0 01-4.3-16.1l38.1-66a11.8 11.8 0 0116.1-4.3l79.8 46a11.9 11.9 0 014.3 16.1l-82.6 142.9" fill="none" stroke="#fff" stroke-linecap="round" stroke-linejoin="round" stroke-width="1.5"/><path d="M853.3-204.999l-126.7 219.6a11.8 11.8 0 01-16.1 4.3l-58.2-33.5a11.9 11.9 0 01-4.3-16.1l23.9-41.4a11.8 11.8 0 0116.1-4.3l141.6 81.6a11.8 11.8 0 0016.1-4.3l48.4-84a11.9 11.9 0 0116.1-4.3l46.8 27" fill="none" stroke="#fff" stroke-linecap="round" stroke-linejoin="round" stroke-width="1.5"/><path d="M751.1 296.6l-123.7-71.3a11.8 11.8 0 01-4.3-16.1L700 76a11.9 11.9 0 00-4.3-16.1L606.3 8.4a11.8 11.8 0 01-4.4-16.1l105.6-183a11.8 11.8 0 0116.1-4.3l19.2 11a11.8 11.8 0 0016.1-4.3l30.8-53.4M386.3-180.099l76.6 44.2a11.4 11.4 0 0015.4-4.1l51.8-89.7a11.3 11.3 0 00-4.2-15.4l-76.6-44.2" fill="none" stroke="#fff" stroke-linecap="round" stroke-linejoin="round" stroke-width="1.5"/><path d="M832.7-169.3a4.143 4.143 0 00-4.1 7.2 4 4 0 005.6-1.5 4.1 4.1 0 00-1.5-5.7zM766.5 69.6a4.2 4.2 0 00-5.7 1.5 4.1 4.1 0 001.5 5.7 4.2 4.2 0 004.2-7.2zM867.2 21.9a4.1 4.1 0 00-5.7 1.5 4.143 4.143 0 107.2 4.1 4 4 0 00-1.5-5.6zM733.3-55.4a4.3 4.3 0 00-5.7 1.5 4.168 4.168 0 105.7-1.5zM513.1 278.8a4.1 4.1 0 00-5.6 1.6 4 4 0 001.5 5.6 4.1 4.1 0 005.7-1.5 4.3 4.3 0 00-1.6-5.7zM530.9 84.5a4.1 4.1 0 00-5.7 1.5 4.3 4.3 0 001.6 5.7 4.1 4.1 0 005.6-1.6 4 4 0 00-1.5-5.6zM402.6 170a4.1 4.1 0 101.6 5.7 4.3 4.3 0 00-1.6-5.7zM451.6-57.7a4.3 4.3 0 00-5.7 1.6 4.1 4.1 0 001.6 5.6 4 4 0 005.6-1.5 4.1 4.1 0 00-1.5-5.7zM486.1 25.7a4.2 4.2 0 10-4.2 7.2 4.3 4.3 0 005.7-1.6 4.2 4.2 0 00-1.5-5.6zM371 12.3a4.3 4.3 0 00-5.7 1.6 4.1 4.1 0 105.7-1.6zM360.6-110.2a4.3 4.3 0 00-5.7 1.6 3.911 3.911 0 105.7-1.6zM431.6-158.8a4.3 4.3 0 00-5.7 1.5 4.168 4.168 0 105.7-1.5zM458.8-288.6a4.2 4.2 0 10-4.2 7.2 4.3 4.3 0 005.7-1.6 4.1 4.1 0 00-1.5-5.6zM519.6-158.8a4.168 4.168 0 101.5 5.7 4.3 4.3 0 00-1.5-5.7zM515.8-278.4a4.1 4.1 0 00-5.7 1.5 4.2 4.2 0 001.5 5.7 4.3 4.3 0 005.7-1.5 4.1 4.1 0 00-1.5-5.7zM604.4-323.8a4.2 4.2 0 101.079 5.455 4.2 4.2 0 00-1.079-5.455zM836.1 109.8a4.1 4.1 0 00-5.7 1.5 4.143 4.143 0 107.2 4.1 4.1 4.1 0 00-1.5-5.6zM743.8 201.7a4.1 4.1 0 101.6 5.7 4.3 4.3 0 00-1.6-5.7zM651.6 293.701a4.1 4.1 0 00-5.7 1.5 4.3 4.3 0 001.6 5.7 4.1 4.1 0 005.6-1.6 4 4 0 00-1.5-5.6zM739.6 285.2a4.1 4.1 0 00-5.6 1.6 4 4 0 001.5 5.6 4.1 4.1 0 005.7-1.5 4.3 4.3 0 00-1.6-5.7zM679.3 111.7a4.1 4.1 0 00-5.7 1.5 4.2 4.2 0 001.5 5.7 4.3 4.3 0 005.7-1.5 4.1 4.1 0 00-1.5-5.7zM719.1-145.7a4.3 4.3 0 00-5.7 1.6 4.1 4.1 0 001.6 5.6 4 4 0 005.6-1.5 4.1 4.1 0 00-1.5-5.7zM652.3-237.3a4.2 4.2 0 00-5.7 1.6 4 4 0 001.5 5.6 4.1 4.1 0 005.7-1.5 4.3 4.3 0 00-1.5-5.7zM875.1-50.799a4 4 0 00-5.6 1.5 4.1 4.1 0 001.5 5.7 4.3 4.3 0 005.7-1.6 4.1 4.1 0 00-1.6-5.6z" fill="#fff"/><g opacity=".4"><path d="M898.3-51l-73.8-42.4a9.5 9.5 0 00-12.8 3.5l-27.3 47.3a9.3 9.3 0 01-12.8 3.4l-86-49.6a9.4 9.4 0 00-12.8 3.4l-24.6 42.6a9.4 9.4 0 003.5 12.8l34.5 19.9a9.3 9.3 0 0012.8-3.4l9.4-16.3a9.4 9.4 0 00-3.4-12.8l-87.2-50.2a9.5 9.5 0 01-3.4-12.9l31.7-54.9a9.4 9.4 0 00-3.4-12.8l-26.3-15.2a9.4 9.4 0 00-12.8 3.4L590-161.7a9.4 9.4 0 01-12.8 3.4L550-174a9.4 9.4 0 01-3.4-12.8l47.1-81.8a9.4 9.4 0 00-3.4-12.8l-31.1-17.9a9.4 9.4 0 00-12.8 3.4l-90.7 157.3a9.4 9.4 0 01-12.8 3.4l-28.7-16.5" fill="none" stroke="#fff" stroke-linecap="round" stroke-linejoin="round" stroke-width="1.5"/><path d="M583.4 251.3l37.5-64.6a9.5 9.5 0 0112.8-3.5l21.1 12.2a9.5 9.5 0 0012.8-3.5l32.5-56.4a9.4 9.4 0 00-3.4-12.8L587.2 59.6a9.4 9.4 0 00-12.8 3.4L549 107a9.5 9.5 0 003.5 12.8l46.6 26.9a9.4 9.4 0 0012.8-3.5l67.8-117.5a9.5 9.5 0 0112.8-3.5l8.9 5.1a9.4 9.4 0 0012.8-3.4l52.4-90.8a9.4 9.4 0 00-3.5-12.8l-32.9-19a9.5 9.5 0 01-3.5-12.9l46.3-80.3" fill="none" stroke="#fff" stroke-linecap="round" stroke-linejoin="round" stroke-width="1.5"/><path d="M439.3-195.2l60.7 35a9.4 9.4 0 013.4 12.8L437.8-33.6a9.4 9.4 0 01-12.8 3.4l-27.3-15.7a9.4 9.4 0 01-3.4-12.8l17.9-31.1a9.4 9.4 0 0112.8-3.4l56.9 32.8a9.5 9.5 0 013.5 12.8L433 43.2a9.3 9.3 0 003.4 12.8l33 19a9.4 9.4 0 0012.8-3.4l10.2-17.7a9.4 9.4 0 0112.8-3.4l81.3 46.9a9.5 9.5 0 0012.8-3.5L625 49.2a9.5 9.5 0 0112.9-3.4l129 74.4M815.3 36.4l-17.7-10.2a9.4 9.4 0 01-3.4-12.9l60.9-105.6a9.4 9.4 0 00-3.4-12.8l-52.6-30.3a9.3 9.3 0 00-12.8 3.4l-6.6 11.5a9.4 9.4 0 01-12.8 3.4l-75.1-43.3a9.3 9.3 0 01-3.4-12.8l9.4-16.2a9.4 9.4 0 0112.8-3.5l15.3 8.9a9.4 9.4 0 013.4 12.8L699-118.7a9.4 9.4 0 01-12.8 3.5l-63.6-36.7a9.3 9.3 0 01-3.4-12.8L685-278.5" fill="none" stroke="#fff" stroke-linecap="round" stroke-linejoin="round" stroke-width="1.5"/><path d="M386 155.299l127.3-220.5a9.6 9.6 0 0112.9-3.5l46.3 26.8a9.5 9.5 0 013.5 12.8l-19.1 33a9.3 9.3 0 01-12.8 3.4l-112.8-65a9.4 9.4 0 00-12.8 3.4l-38.6 66.9a9.3 9.3 0 01-12.8 3.4l-37.3-21.5" fill="none" stroke="#fff" stroke-linecap="round" stroke-linejoin="round" stroke-width="1.5"/><path d="M493.9-289.8l98.4 56.8a9.4 9.4 0 013.5 12.8l-61.2 106.1a9.4 9.4 0 003.4 12.8l71.2 41.1a9.3 9.3 0 013.4 12.8L513 125a9.3 9.3 0 01-12.8 3.4l-15.3-8.8a9.4 9.4 0 00-12.8 3.5l-21.5 37.5M784.4 89.9l-61-35.2a9 9 0 00-12.3 3.3l-41.2 71.4a9 9 0 003.3 12.3l82.4 47.4" fill="none" stroke="#fff" stroke-linecap="round" stroke-linejoin="round" stroke-width="1.5"/><path d="M384.2 158.199a3.3 3.3 0 10-1.2-4.5 3.3 3.3 0 001.2 4.5zM448.9 163.499a3.4 3.4 0 004.6-1.3 3.3 3.3 0 00-1.3-4.5 3.4 3.4 0 00-4.5 1.2 3.5 3.5 0 001.2 4.6zM481.6-109a3.3 3.3 0 003.3-5.7 3.2 3.2 0 00-4.5 1.2 3.3 3.3 0 001.2 4.5zM401.4-71.005a3.3 3.3 0 10-1.2-4.5 3.3 3.3 0 001.2 4.5zM508-9.501a3.3 3.3 0 10-1.114-4.5 3.3 3.3 0 001.114 4.5zM683.4-275.701a3.3 3.3 0 10-1.2-4.5 3.3 3.3 0 001.2 4.5zM669.2-120.8a3.3 3.3 0 004.5-1.3 3.2 3.2 0 00-1.2-4.5 3.337 3.337 0 10-3.3 5.8zM771.4-189a3.3 3.3 0 10-1.2-4.5 3.3 3.3 0 001.2 4.5zM732.4-7.6a3.3 3.3 0 10-1.2-4.6 3.4 3.4 0 001.2 4.6zM705-74a3.3 3.3 0 004.5-1.2 3.4 3.4 0 00-1.2-4.5A3.3 3.3 0 10705-74zM796.6-63.405a3.3 3.3 0 10-1.2-4.5 3.3 3.3 0 001.2 4.5zM804.9 34.199a3.337 3.337 0 003.3-5.8 3.337 3.337 0 10-3.3 5.8zM748.3 72.899a3.3 3.3 0 10-1.2-4.5 3.4 3.4 0 001.2 4.5zM726.7 176.299a3.2 3.2 0 004.5-1.2 3.3 3.3 0 10-4.5 1.2zM678.3 72.899a3.3 3.3 0 10-1.2-4.5 3.2 3.2 0 001.2 4.5zM681.3 168.2a3.3 3.3 0 10-1.022-4.4 3.3 3.3 0 001.022 4.4zM581.7 254.2a3.3 3.3 0 10-1.022-4.4 3.3 3.3 0 001.022 4.4zM426.2-141a3.3 3.3 0 004.5-1.2 3.337 3.337 0 00-5.8-3.3 3.3 3.3 0 001.3 4.5zM499.6-214.2a3.4 3.4 0 004.5-1.2 3.3 3.3 0 10-4.5 1.2zM573.1-287.501a3.2 3.2 0 004.5-1.2 3.3 3.3 0 10-4.5 1.2zM503-280.8a3.3 3.3 0 10-1.2-4.5 3.2 3.2 0 001.2 4.5zM551-142.502a3.5 3.5 0 004.6-1.2 3.4 3.4 0 00-1.3-4.6 3.3 3.3 0 00-4.5 1.3 3.4 3.4 0 001.2 4.5zM519.3 62.5a3.3 3.3 0 004.5-1.3 3.2 3.2 0 00-1.2-4.5 3.3 3.3 0 00-4.5 1.2 3.4 3.4 0 001.2 4.6zM572.6 135.399a3.3 3.3 0 10-1.2-4.5 3.2 3.2 0 001.2 4.5zM395-13.1a3.4 3.4 0 004.6-1.2 3.337 3.337 0 00-5.8-3.3 3.4 3.4 0 001.2 4.5z" fill="#fff"/></g><g opacity=".4"><path d="M402.4 559.301l-73.8-42.4a9.5 9.5 0 00-12.8 3.5l-27.3 47.3a9.3 9.3 0 01-12.8 3.4l-86-49.6a9.4 9.4 0 00-12.8 3.4l-24.6 42.6a9.5 9.5 0 003.5 12.8l34.5 19.9a9.4 9.4 0 0012.9-3.4l9.3-16.3a9.4 9.4 0 00-3.4-12.8l-87.1-50.2a9.5 9.5 0 01-3.5-12.9l31.7-54.9a9.3 9.3 0 00-3.4-12.8l-26.3-15.2a9.4 9.4 0 00-12.8 3.4l-13.5 23.5a9.4 9.4 0 01-12.8 3.4l-27.3-15.7a9.4 9.4 0 01-3.4-12.8l47.1-81.8a9.4 9.4 0 00-3.4-12.8l-31.1-17.9a9.4 9.4 0 00-12.8 3.4l-90.7 157.3a9.3 9.3 0 01-5.689 4.377 9.3 9.3 0 01-7.111-.977l-28.7-16.5" fill="none" stroke="#fff" stroke-linecap="round" stroke-linejoin="round" stroke-width="1.5"/><path d="M87.5 861.601l37.6-64.6a9.4 9.4 0 0112.8-3.5l21 12.2a9.5 9.5 0 0012.8-3.5l32.5-56.4a9.4 9.4 0 00-3.4-12.8l-109.4-63.1a9.4 9.4 0 00-7.158-.985 9.4 9.4 0 00-5.742 4.385l-25.3 44a9.3 9.3 0 00-.977 7.111 9.3 9.3 0 004.377 5.689l46.6 26.9a9.4 9.4 0 0012.8-3.5l67.9-117.5a9.4 9.4 0 0112.8-3.5l8.8 5.1a9.3 9.3 0 007.111.977 9.3 9.3 0 005.689-4.377l52.4-90.8a9.4 9.4 0 00-3.4-12.8l-33-19.1a9.4 9.4 0 01-3.5-12.8l46.4-80.3" fill="none" stroke="#fff" stroke-linecap="round" stroke-linejoin="round" stroke-width="1.5"/><path d="M-56.6 415.101l60.7 35a9.3 9.3 0 014.377 5.689 9.3 9.3 0 01-.977 7.111l-65.6 113.8a9.4 9.4 0 01-12.8 3.4l-27.2-15.7a9.5 9.5 0 01-3.5-12.8l18-31.1a9.3 9.3 0 015.689-4.377 9.3 9.3 0 017.111.977l56.8 32.8a9.4 9.4 0 013.5 12.8l-52.4 90.8a9.4 9.4 0 003.4 12.8l33 19a9.3 9.3 0 007.111.977 9.3 9.3 0 005.689-4.377l10.2-17.7a9.4 9.4 0 0112.8-3.4l81.3 46.9a9.5 9.5 0 0012.8-3.5l25.8-44.7a9.4 9.4 0 0112.8-3.4l129 74.4M319.4 646.701l-17.7-10.2a9.5 9.5 0 01-3.4-12.9l60.9-105.6a9.3 9.3 0 00-3.4-12.8l-52.6-30.3a9.4 9.4 0 00-12.8 3.4l-6.6 11.5a9.4 9.4 0 01-12.8 3.4l-75.1-43.3a9.4 9.4 0 01-3.4-12.8l9.4-16.2a9.5 9.5 0 0112.8-3.5l15.3 8.9a9.3 9.3 0 014.377 5.689 9.3 9.3 0 01-.977 7.111l-30.3 52.5a9.4 9.4 0 01-12.8 3.5l-63.6-36.7a9.3 9.3 0 01-4.377-5.689 9.3 9.3 0 01.977-7.111l65.8-113.8" fill="none" stroke="#fff" stroke-linecap="round" stroke-linejoin="round" stroke-width="1.5"/><path d="M-109.8 765.601l127.3-220.5a9.4 9.4 0 0112.8-3.5l46.3 26.8a9.4 9.4 0 013.5 12.8l-19 33a9.5 9.5 0 01-12.9 3.4l-112.7-65.1a9.6 9.6 0 00-12.9 3.5l-38.6 66.9a9.3 9.3 0 01-5.689 4.377 9.3 9.3 0 01-7.111-.977l-37.3-21.5" fill="none" stroke="#fff" stroke-linecap="round" stroke-linejoin="round" stroke-width="1.5"/><path d="M-2 320.501l98.5 56.8a9.4 9.4 0 013.4 12.8l-61.2 106.1a9.4 9.4 0 003.4 12.8l71.2 41.1a9.3 9.3 0 014.435 5.666 9.3 9.3 0 01-.935 7.134l-99.7 172.4a9.3 9.3 0 01-12.8 3.4l-15.3-8.8a9.4 9.4 0 00-12.8 3.4l-21.5 37.6M288.5 700.201l-61-35.2a9 9 0 00-6.834-.9 9 9 0 00-5.466 4.2l-41.2 71.4a9.1 9.1 0 003.3 12.3l82.4 47.4" fill="none" stroke="#fff" stroke-linecap="round" stroke-linejoin="round" stroke-width="1.5"/><path d="M-111.7 768.501a3.3 3.3 0 004.5-1.2 3.2 3.2 0 00.371-2.509 3.2 3.2 0 00-1.571-1.991 3.3 3.3 0 00-4.5 1.2 3.3 3.3 0 001.2 4.5zM-46.9 773.803a3.3 3.3 0 002.521.287 3.3 3.3 0 001.979-1.587 3.3 3.3 0 00-1.2-4.5 3.5 3.5 0 00-4.6 1.2 3.4 3.4 0 001.3 4.6zM-14.3 501.301a3.3 3.3 0 004.5-1.2 3.2 3.2 0 00.371-2.509A3.2 3.2 0 00-11 495.601a3.2 3.2 0 00-2.509-.371 3.2 3.2 0 00-1.991 1.571 3.3 3.3 0 001.2 4.5zM-94.5 539.301a3.3 3.3 0 004.5-1.2 3.3 3.3 0 00-1.2-4.5 3.3 3.3 0 00-4.5 1.2 3.3 3.3 0 001.2 4.5zM12.2 600.801a3.2 3.2 0 002.509.371 3.2 3.2 0 001.991-1.571 3.3 3.3 0 00-1.2-4.5 3.3 3.3 0 00-4.5 1.2 3.2 3.2 0 00-.371 2.509 3.2 3.2 0 001.571 1.991zM187.5 334.601a3.3 3.3 0 10-1.2-4.5 3.3 3.3 0 001.2 4.5zM173.4 489.501a3.3 3.3 0 004.5-1.3 3.337 3.337 0 10-5.8-3.3 3.4 3.4 0 001.3 4.6zM275.5 421.301a3.3 3.3 0 004.5-1.2 3.2 3.2 0 00-1.2-4.5 3.3 3.3 0 10-3.3 5.7zM236.5 602.601a3.2 3.2 0 002.509.371 3.2 3.2 0 001.991-1.571 3.3 3.3 0 00-1.2-4.5 3.3 3.3 0 00-4.5 1.2 3.3 3.3 0 001.2 4.5zM209.1 536.301a3.3 3.3 0 004.5-1.2 3.3 3.3 0 00-1.2-4.5 3.2 3.2 0 00-2.509-.371 3.2 3.2 0 00-1.991 1.571 3.3 3.3 0 001.2 4.5zM300.7 546.901a3.4 3.4 0 004.6-1.2 3.3 3.3 0 00.287-2.521 3.3 3.3 0 00-1.587-1.979 3.3 3.3 0 00-4.5 1.2 3.4 3.4 0 001.2 4.5zM309 644.501a3.4 3.4 0 004.5-1.2 3.4 3.4 0 00-1.2-4.6 3.4 3.4 0 00-4.5 1.2 3.4 3.4 0 001.2 4.6zM252.5 683.201a3.3 3.3 0 004.5-1.2 3.3 3.3 0 00-1.2-4.5 3.3 3.3 0 00-4.5 1.2 3.2 3.2 0 00-.371 2.509 3.2 3.2 0 001.571 1.991zM230.8 786.601a3.2 3.2 0 002.509.371 3.2 3.2 0 001.991-1.571 3.3 3.3 0 00-1.2-4.5 3.3 3.3 0 00-4.5 1.2 3.3 3.3 0 001.2 4.5zM182.4 683.201a3.3 3.3 0 004.5-1.2 3.3 3.3 0 00-1.2-4.5 3.3 3.3 0 00-4.5 1.2 3.3 3.3 0 001.2 4.5zM185.4 778.501a3.3 3.3 0 004.5-1.2 3.3 3.3 0 00-1.2-4.5 3.2 3.2 0 00-2.509-.371 3.2 3.2 0 00-1.991 1.571 3.3 3.3 0 001.2 4.5zM85.8 864.501a3.3 3.3 0 004.5-1.2 3.3 3.3 0 00-1.2-4.5 3.2 3.2 0 00-2.509-.371 3.2 3.2 0 00-1.991 1.571 3.3 3.3 0 001.2 4.5zM-69.7 469.301a3.3 3.3 0 004.5-1.2 3.3 3.3 0 00-1.2-4.5 3.3 3.3 0 00-4.5 1.2 3.3 3.3 0 001.2 4.5zM3.7 396.101a3.5 3.5 0 004.6-1.2 3.5 3.5 0 00-1.2-4.6 3.5 3.5 0 00-4.6 1.2 3.5 3.5 0 001.2 4.6zM77.2 322.801a3.3 3.3 0 10-1.2-4.5 3.3 3.3 0 001.2 4.5zM7.1 329.501a3.3 3.3 0 10-1.2-4.5 3.3 3.3 0 001.2 4.5zM55.2 467.8a3.337 3.337 0 103.3-5.8 3.4 3.4 0 00-4.6 1.3 3.3 3.3 0 001.3 4.5zM23.4 672.7a3.3 3.3 0 002.555.378A3.3 3.3 0 0028 671.5a3.4 3.4 0 00-1.2-4.5 3.4 3.4 0 00-4.6 1.2 3.4 3.4 0 001.2 4.5zM76.7 745.701a3.3 3.3 0 004.5-1.2 3.3 3.3 0 00-1.2-4.5 3.3 3.3 0 00-4.5 1.2 3.3 3.3 0 001.2 4.5zM-100.8 597.201a3.3 3.3 0 004.5-1.2 3.3 3.3 0 00-1.2-4.5 3.3 3.3 0 00-4.5 1.2 3.2 3.2 0 00-.371 2.509 3.2 3.2 0 001.571 1.991z" fill="#fff"/></g></g><path d="M126.7 579.7a2 2 0 010 4c-2.5 0-2.5-4 0-4zM436.1 683.7a2 2 0 11-2 2 2 2 0 012-2zM489.4 589.1a2 2 0 11-2 2 2 2 0 012-2zM76.4 906.1a2 2 0 012.7-.8l1.3.7a1.9 1.9 0 01.7 2.7 2 2 0 01-2.7.8l-1.3-.7a1.9 1.9 0 01-.7-2.7zM464.4 889.1a2 2 0 11-2 2 2 2 0 012-2zM342.1 545.4a1 1 0 11-1 1 1 1 0 011-1zM461.4 590.1a1 1 0 11-1 1 1 1 0 011-1zM495.4 620.1a1 1 0 11-1 1 1 1 0 011-1zM470.1 663.4a1 1 0 11-1 1 1 1 0 011-1zM422.1 688.1a1 1 0 11-1 1 1 1 0 011-1zM17.9 752.3a2 2 0 11-2 2 2 2 0 012-2zM71.3 657.6c2.5 0 2.5 4 0 4a2 2 0 010-4zM43.3 658.6a1 1 0 11-1 1 1 1 0 011-1zM77.3 688.6a1 1 0 11-1 1 1 1 0 011-1zM51.9 731.9a1 1 0 11-1 1 1 1 0 011-1zM3.9 756.6a1 1 0 11-1 1 1 1 0 011-1zM164.1 600.7a1 1 0 11-1 1 1 1 0 011-1zM184.7 625.4a1 1 0 11-1 1 1 1 0 011-1zM98.1 577.4a1 1 0 11-1 1 1 1 0 011-1zM192.7 660.1a1 1 0 11-1 1 1 1 0 011-1zM92.1 840.7a1 1 0 11-1 1 1 1 0 011-1zM101.4 860.1a1 1 0 11-1 1 1 1 0 011-1zM68.1 871.4a1 1 0 11-1 1 1 1 0 011-1zM65.4 912.7a1 1 0 11-1 1 1 1 0 011-1zM154.1 952.7a1 1 0 11-1 1 1 1 0 011-1zM314.1 978.7a1 1 0 11-1 1 1 1 0 011-1zM466.7 918.1a1 1 0 11-1 1 1 1 0 011-1zM484.1 914.1a1 1 0 11-1 1 1 1 0 011-1zM478.1 902.1a1 1 0 11-1 1 1 1 0 011-1zM480.7 850.7a1 1 0 11-1 1 1 1 0 011-1zM496.1 796.7a1 1 0 11-1 1 1 1 0 011-1zM246.1 593.4a1 1 0 11-1 1 1 1 0 011-1zM179.4 579.4a1 1 0 11-1 1 1 1 0 011-1zM38.4 565.3a1 1 0 11-1 1 1 1 0 011-1zM46.4 599.9a1 1 0 11-1 1 1 1 0 011-1zM99.7 533.3a1 1 0 11-1 1 1 1 0 011-1zM222.7 786.5a2 2 0 010 4c-2.5 0-2.5-4 0-4zM167.3 864.4c2.5 0 2.5 4 0 4a2 2 0 010-4zM260.1 807.5a1 1 0 11-1 1 1 1 0 011-1zM280.7 832.2a1 1 0 11-1 1 1 1 0 011-1zM194.1 784.2a1 1 0 11-1 1 1 1 0 011-1zM288.7 866.8a1 1 0 11-1 1 1 1 0 011-1zM342.1 800.2a1 1 0 11-1 1 1 1 0 011-1zM275.4 786.2a1 1 0 11-1 1 1 1 0 011-1zM195.7 740a1 1 0 11-1 1 1 1 0 011-1zM33 518.3a1 1 0 11-1 1 1 1 0 011-1z" fill="#fff"/></g></svg>