<svg xmlns="http://www.w3.org/2000/svg" xmlns:xlink="http://www.w3.org/1999/xlink" width="1920.001" height="1080" viewBox="0 0 1920.001 1080"><defs><clipPath id="a"><rect width="1920" height="1080" fill="#fff"/></clipPath><linearGradient id="b" x1="0.532" y1="0.355" x2="0.485" y2="0.564" gradientUnits="objectBoundingBox"><stop offset="0" stop-color="#270c66"/><stop offset="1" stop-color="#140635"/></linearGradient><linearGradient id="c" x1="0.506" y1="0.228" x2="0.407" y2="0.546" xlink:href="#b"/><linearGradient id="d" x1="0.595" y1="0.134" x2="0.538" y2="0.381" xlink:href="#b"/><linearGradient id="e" x1="0.595" y1="0.134" x2="0.538" y2="0.381" xlink:href="#b"/><linearGradient id="f" x1="0.622" y1="0.788" x2="0.052" y2="0.522" gradientUnits="objectBoundingBox"><stop offset="0" stop-color="#fc7a4b"/><stop offset="0.49" stop-color="#cf0054"/><stop offset="1" stop-color="#790054"/></linearGradient><linearGradient id="g" x1="0.878" y1="1.125" x2="0.051" y2="0.26" xlink:href="#f"/><linearGradient id="h" x1="0.778" y1="0.863" x2="-0.017" y2="-0.093" xlink:href="#f"/><linearGradient id="i" x1="0.897" y1="1" x2="-0.07" y2="0.045" xlink:href="#f"/><linearGradient id="j" x1="1" y1="0.5" x2="0" y2="0.5" gradientUnits="objectBoundingBox"><stop offset="0" stop-color="#ffffc2"/><stop offset="1" stop-color="#142c6f"/></linearGradient><linearGradient id="k" y1="0.5" x2="0" y2="0.5" xlink:href="#j"/><linearGradient id="l" x1="0.914" y1="1.022" x2="-0.14" y2="0.007" xlink:href="#j"/><linearGradient id="m" x1="1.035" y1="1.182" x2="-0.239" y2="-0.314" xlink:href="#j"/><clipPath id="n"><path d="M6.6,94.8V1157.456H1921.736c-192-44.288-201.984-198.912-318.464-278.016-104.448-71.168-239.872-5.888-402.176-120.576h0a486.157,486.157,0,0,1-57.344-47.616C903.368,482.384,597.7,608.592,429.768,514.128a280.576,280.576,0,0,1-61.7-48.384l-1.536-1.536C242.632,337.744,173.256,97.36,6.6,94.8Z" transform="translate(-6.6 -94.8)" fill="none"/></clipPath></defs><rect width="1920" height="1080" transform="translate(0.001)" fill="#140635"/><g clip-path="url(#a)"><g transform="translate(-177.792 96.376)"><path d="M1975.38,963.77c-228.1,40.7-348.416-48.384-387.328-92.416S1418.58,624.826,1236.82,602.81c-156.672-19.2-267.776,22.784-462.336-39.936S591.7,328.634,421.2,200.89-22.7,118.714-22.7,118.714L519,757.69l1119.488,356.1s332.8,72.96,331.52,60.672S1975.38,963.77,1975.38,963.77Z" transform="translate(180.525 7.494)" fill="url(#b)"/><path d="M276.259,488.437C140.835,595.445,11.3,436.981-26.845,464.373s90.112,170.24,90.112,170.24,105.472,56.064,139.008,19.968,85.5-88.832,86.784-108.8S276.259,488.437,276.259,488.437Z" transform="translate(1895.517 553.994)" fill="url(#c)"/><path d="M558.7,214.992C758.124,153.04,908.4,240.08,950.38,405.456,926.316,396.5,558.7,214.992,558.7,214.992Z" transform="translate(-282.859 138.8)" fill="url(#d)"/><path d="M226.3,336.174c199.168-62.208,349.44,24.832,391.68,190.208C593.916,517.422,226.3,336.174,226.3,336.174Z" transform="translate(900.485 327.634)" fill="url(#e)"/><path d="M6.6,94.8V1157.456H1921.736c-192-44.288-201.984-198.912-318.464-278.016-104.448-71.168-239.872-5.888-402.176-120.576h0a486.157,486.157,0,0,1-57.344-47.616C903.368,482.384,597.7,608.592,429.768,514.128a280.576,280.576,0,0,1-61.7-48.384l-1.536-1.536C242.632,337.744,173.256,97.36,6.6,94.8Z" transform="translate(159.161 -17.488)" fill="url(#f)"/><path d="M6.6,94.8V664.144c103.936,90.368,260.1,162.816,440.832,164.1,272.64,1.536,578.3,145.152,620.8,329.216h853.5c-192-44.288-201.984-198.912-318.464-278.016-104.448-71.168-239.872-5.888-402.176-120.576h0a486.157,486.157,0,0,1-57.344-47.616C903.368,482.384,597.7,608.592,429.768,514.128a280.576,280.576,0,0,1-61.7-48.384l-1.536-1.536C242.632,337.744,173.256,97.36,6.6,94.8Z" transform="translate(159.161 -17.488)" fill="url(#g)"/><path d="M6.6,239.7C181.96,423.252,400.072,666.964,709.064,720.212c193.536,33.536,294.4,137.728,343.04,211.2h508.16C1368.264,887.124,1358.28,732.5,1241.8,653.4c-104.448-71.168-239.872-5.888-402.176-120.576h0A486.147,486.147,0,0,1,782.28,485.2c-128-121.856-274.688-143.1-409.088-150.528h0c-53.5-3.072-104.96-3.84-152.576-7.68-57.344-5.12-109.312-14.848-152.32-38.912A280.574,280.574,0,0,1,6.6,239.7Z" transform="translate(520.633 208.556)" fill="url(#h)"/><path d="M6.6,354.2c109.056,90.88,163.84,320.768,393.984,398.592H727.24C535.24,708.5,525.256,553.88,408.776,474.776c-52.992-36.1-114.176-37.12-183.04-44.288-36.608-3.84-75.264-9.472-115.968-23.3h-.512A399.869,399.869,0,0,1,6.6,354.2Z" transform="translate(1353.656 387.176)" fill="url(#i)"/><path d="M21.4,374.9c171.776,60.928,128.768,269.568,408.32,345.6,7.936,2.3,16.384,4.352,25.088,6.4,41.984,4.864,146.176,0,146.176,0a196.072,196.072,0,0,1-28.16-6.4C417.432,675.444,333.208,469.364,137.368,398.2,100.76,394.356,62.1,388.724,21.4,374.9Z" transform="translate(1442.025 419.468)" fill="url(#j)" style="mix-blend-mode:soft-light;isolation:isolate"/><path d="M142.7,273.8c251.9,27.9,211.456,216.32,461.056,303.1,215.04,74.752,357.632,221.952,403.456,301.312a139.772,139.772,0,0,1,14.592,32.512l112.128-6.656c-12.8-3.84-28.16-13.056-45.824-25.856C973.42,794.5,793.452,546.44,643.692,438.664,532.588,358.536,437.1,305.288,295.276,281.48h0C241.772,278.408,190.316,277.64,142.7,273.8Z" transform="translate(598.549 261.752)" fill="url(#k)" style="mix-blend-mode:soft-light;isolation:isolate"/><path d="M1580.188,1237.08c-2.048-97.024-126.976-172.288-191.232-189.44s-116.48-40.7-205.312-75.52S631.452,732.248,527.26,506.712,482.716,353.624,376.22,169.048C369.308,164.952,249.5,64.6,249.5,64.6V286.3c137.472,20.992,118.784,247.04,333.824,413.7,145.152,112.384,443.392,199.936,603.136,286.72s297.728,139.008,267.008,237.056Z" transform="translate(-121.115 -64.6)" fill="url(#l)" style="mix-blend-mode:soft-light;isolation:isolate"/><path d="M1333.572,780.468C1279.3,352.436,532.036,645.044,402.5,357.3,443.972,856.5,1075.012,510.9,1333.572,780.468Z" transform="translate(-263.619 392.012)" fill="url(#m)" style="mix-blend-mode:soft-light;isolation:isolate"/><g transform="translate(165.761 77.312)" clip-path="url(#n)"><g transform="translate(-39.424 576.768)" opacity="0.3"><path d="M1412.151,825.444c1.792-31.744-17.664-71.168-55.04-111.36C1264.7,614.5,1065.527,512.356,829.239,508.772,636.983,505.956,444.983,428.388,362.552,320.1l-4.1,3.072c42.752,56.32,112.384,104.448,201.472,138.752,82.688,32.256,178.432,50.688,269.312,51.968,234.752,3.584,432.384,104.7,524.288,203.52,36.352,39.168,55.3,77.312,53.5,107.776Z" transform="translate(-358.456 -320.1)" fill="#fff"/></g><g transform="translate(-23.04 212.992)" opacity="0.3"><path d="M1468.216,1060.688c17.152-105.728-161.536-215.552-314.624-289.28C1116.984,754,1056.568,730.96,986.424,704.08,842.3,649.04,662.84,580.432,589.88,520.784c-52.48-42.752-105.216-124.16-151.808-196.1C387.128,246.1,343.352,178.512,311.352,178v5.12c29.184.256,74.5,70.144,122.368,144.128S533.56,481.36,586.552,524.624c73.728,60.16,253.7,129.024,398.08,184.32,69.888,26.624,130.3,49.664,166.656,67.072,151.552,72.96,328.448,181.248,311.808,283.9Z" transform="translate(-311.352 -178)" fill="#fff"/></g><g transform="translate(270.08 195.84)" opacity="0.3"><path d="M1300.409,1070.884c3.84-65.792-39.936-124.672-130.56-175.1s-204.032-76.288-235.776-82.432c-61.44-11.776-214.784-71.936-365.824-182.784-125.7-92.416-285.184-247.04-331.776-459.264l-4.864,1.024C278.457,386.34,438.969,541.732,565.177,634.66,716.729,746.02,871.353,806.692,933.049,818.468c138.5,26.88,370.688,110.08,362.24,252.16Z" transform="translate(-231.609 -171.3)" fill="#fff"/></g><g transform="translate(629.248 447.488)" opacity="0.3"><path d="M1030.536,937.248l4.864-1.792A551.681,551.681,0,0,0,849.288,697.632c-54.272-39.168-115.712-68.352-175.36-96.256s-123.392-58.368-177.92-98.56c-35.072-25.856-67.072-56.32-98.3-85.5-16.64-15.872-34.048-32.512-51.712-47.872-39.68-34.816-100.608-83.2-173.312-99.84l-1.28,4.864c71.68,16.64,132.1,64.256,171.264,98.816,17.408,15.36,34.816,31.744,51.712,47.616,30.976,29.44,63.232,59.9,98.56,86.016,55.04,40.448,118.016,70.144,178.944,99.072s120.576,56.832,174.336,95.744A544.515,544.515,0,0,1,1030.536,937.248Z" transform="translate(-171.4 -269.6)" fill="#fff"/></g><g transform="translate(1257.472 688.896)" opacity="0.3"><path d="M582.192,772.988h15.616v-5.12c-232.96,6.656-329.984-140.8-408.064-259.072-45.056-68.352-83.712-127.232-139.008-144.9L49.2,368.764c53.5,17.152,91.9,75.52,136.192,142.848C262.448,628.348,357.68,772.988,582.192,772.988Z" transform="translate(-49.2 -363.9)" fill="#fff"/></g></g><path d="M1593.133,1154.3c-32.512-178.432-258.048-315.392-596.992-380.928S901.932,205.313,689.708,107.009c-61.184-28.16-116.736-31.232-164.864-21.248C383.789,114.945,297,257.281,330.8,397.313S493.613,729.344,909.869,832.257c720.64,178.432,312.576,360.192,122.368,347.392Z" transform="translate(-323.5 -39.681)" fill="#fff" opacity="0.1"/><path d="M803.358,888.8c-51.2-199.424-530.432-311.808-705.536-406.016s-137.728-247.808,75.008-185.6,547.84,582.4,824.32,599.808-297.984-156.416-375.3-359.424,215.552-169.472,303.1,52.736,84.224,247.808,176.384,293.12-27.392-51.456,35.84-114.176,312.064-22.272,213.248,128.768S803.358,888.8,803.358,888.8Z" transform="translate(758.115 275.745)" fill="#fff" opacity="0.1"/></g></g></svg>