<svg xmlns="http://www.w3.org/2000/svg" xmlns:xlink="http://www.w3.org/1999/xlink" width="1920" height="1080" viewBox="0 0 1920 1080"><defs><clipPath id="a"><rect width="1920" height="1080" fill="#fff" stroke="#707070" stroke-width="1"/></clipPath><clipPath id="b"><rect width="2203" height="1239" transform="translate(0 0.278)" fill="#fff"/></clipPath><linearGradient id="c" x1="0.532" y1="0.355" x2="0.485" y2="0.564" gradientUnits="objectBoundingBox"><stop offset="0" stop-color="#270c66"/><stop offset="1" stop-color="#140635"/></linearGradient><linearGradient id="d" x1="0.506" y1="0.228" x2="0.407" y2="0.546" xlink:href="#c"/><linearGradient id="e" x1="0.595" y1="0.134" x2="0.538" y2="0.381" xlink:href="#c"/><linearGradient id="f" x1="0.595" y1="0.134" x2="0.538" y2="0.381" xlink:href="#c"/><linearGradient id="g" x1="0.622" y1="0.788" x2="0.052" y2="0.522" gradientUnits="objectBoundingBox"><stop offset="0" stop-color="#fc7a4b"/><stop offset="0.49" stop-color="#cf0054"/><stop offset="1" stop-color="#790054"/></linearGradient><linearGradient id="h" x1="0.878" y1="1.125" x2="0.051" y2="0.26" xlink:href="#g"/><linearGradient id="i" x1="0.778" y1="0.863" x2="-0.017" y2="-0.093" xlink:href="#g"/><linearGradient id="j" x1="0.897" y1="1" x2="-0.07" y2="0.045" xlink:href="#g"/><linearGradient id="k" x1="1" y1="0.5" x2="0" y2="0.5" gradientUnits="objectBoundingBox"><stop offset="0" stop-color="#ffffc2"/><stop offset="1" stop-color="#142c6f"/></linearGradient><linearGradient id="l" y1="0.5" x2="0" y2="0.5" xlink:href="#k"/><linearGradient id="m" x1="0.914" y1="1.022" x2="-0.14" y2="0.007" xlink:href="#k"/><linearGradient id="n" x1="1.035" y1="1.182" x2="-0.239" y2="-0.314" xlink:href="#k"/><clipPath id="o"><path d="M6.6,94.8V1314.176H2204.18c-220.316-50.82-231.773-228.247-365.431-319.018C1718.9,913.495,1563.5,988.4,1377.26,856.8h0a557.856,557.856,0,0,1-65.8-54.638C1035.623,539.545,684.88,684.366,492.177,575.97a321.954,321.954,0,0,1-70.8-55.52l-1.762-1.763C277.442,373.573,197.834,97.737,6.6,94.8Z" transform="translate(-6.6 -94.8)" fill="none"/></clipPath></defs><g clip-path="url(#a)"><g transform="translate(0 -159.278)"><rect width="2203" height="1239" transform="translate(0 0.278)" fill="#140635"/><g clip-path="url(#b)"><g transform="translate(-204.013 110.589)"><path d="M2270.056,1089.564c-261.736,46.707-399.8-55.52-444.451-106.046S1631.14,700.632,1422.574,675.369c-179.778-22.032-307.268,26.144-530.521-45.826S682.312,360.758,486.671,214.174-22.7,119.879-22.7,119.879L598.885,853.091,1883.475,1261.7s381.881,83.72,380.413,69.62S2270.056,1089.564,2270.056,1089.564Z" transform="translate(203.801 24.942)" fill="url(#c)"/><path d="M322.006,492.464C166.61,615.253,17.97,433.419-25.8,464.851S77.6,660.2,77.6,660.2s121.027,64.332,159.509,22.913,98.114-101.933,99.583-124.846S322.006,492.464,322.006,492.464Z" transform="translate(2170.064 703.706)" fill="url(#d)"/><path d="M558.7,217.943c228.835-71.089,401.269,28.788,449.445,218.554C980.532,426.215,558.7,217.943,558.7,217.943Z" transform="translate(-242.178 188.027)" fill="url(#e)"/><path d="M226.3,339.144c228.541-71.382,400.975,28.494,449.445,218.26C648.132,547.123,226.3,339.144,226.3,339.144Z" transform="translate(1066.663 422.562)" fill="url(#f)"/><path d="M6.6,94.8V1314.176H2204.18c-220.316-50.82-231.773-228.247-365.431-319.018C1718.9,913.495,1563.5,988.4,1377.26,856.8h0a557.856,557.856,0,0,1-65.8-54.638C1035.623,539.545,684.88,684.366,492.177,575.97a321.954,321.954,0,0,1-70.8-55.52l-1.762-1.763C277.442,373.573,197.834,97.737,6.6,94.8Z" transform="translate(183.607 -6.086)" fill="url(#g)"/><path d="M6.6,94.8V748.111c119.264,103.7,298.455,186.828,505.846,188.3,312.849,1.762,663.592,166.559,712.355,377.769H2204.18c-220.316-50.82-231.773-228.247-365.431-319.018C1718.9,913.495,1563.5,988.4,1377.26,856.8h0a557.856,557.856,0,0,1-65.8-54.638C1035.623,539.545,684.88,684.366,492.177,575.97a321.954,321.954,0,0,1-70.8-55.52l-1.762-1.763C277.442,373.573,197.834,97.737,6.6,94.8Z" transform="translate(183.607 -6.086)" fill="url(#h)"/><path d="M6.6,239.7C207.822,450.322,458.1,729.977,812.663,791.078c222.079,38.482,337.818,158.04,393.631,242.348h583.1c-220.316-50.82-231.773-228.247-365.431-319.018-119.852-81.664-275.248-6.756-461.489-138.358h0a557.847,557.847,0,0,1-65.8-54.638C749.8,381.583,581.478,357.2,427.257,348.683h0c-61.395-3.525-120.439-4.406-175.078-8.813C186.378,334,126.746,322.833,77.4,295.22A321.953,321.953,0,0,1,6.6,239.7Z" transform="translate(598.389 274.665)" fill="url(#i)"/><path d="M6.6,354.2c125.14,104.283,188,368.075,452.089,457.376H833.52C613.2,760.757,601.747,583.329,468.089,492.559c-60.807-41.419-131.015-42.594-210.035-50.82-42.007-4.406-86.364-10.869-133.071-26.732H124.4A458.84,458.84,0,0,1,6.6,354.2Z" transform="translate(1554.267 496.514)" fill="url(#j)"/><path d="M21.4,374.9c197.109,69.914,147.759,309.324,468.539,396.569,9.106,2.644,18.8,4.994,28.788,7.344,48.176,5.581,167.734,0,167.734,0a224.991,224.991,0,0,1-32.313-7.344C475.839,719.768,379.193,483.3,154.471,401.632,112.464,397.225,68.107,390.763,21.4,374.9Z" transform="translate(1657.85 536.621)" fill="url(#k)" style="mix-blend-mode:soft-light;isolation:isolate"/><path d="M142.7,273.8c289.055,32.019,242.642,248.223,529.053,347.806,246.754,85.776,410.375,254.685,462.957,345.749a160.383,160.383,0,0,1,16.744,37.307l128.665-7.638c-14.688-4.406-32.313-14.981-52.582-29.669-131.6-96.058-338.112-380.706-509.958-504.377-127.49-91.945-237.06-153.046-399.8-180.365h0C256.383,279.088,197.338,278.206,142.7,273.8Z" transform="translate(707.868 340.735)" fill="url(#l)" style="mix-blend-mode:soft-light;isolation:isolate"/><path d="M1776.438,1410c-2.35-111.333-145.7-197.7-219.435-217.379s-133.658-46.707-235.591-86.658S687.782,830.712,568.224,571.914,517.11,396.249,394.909,184.452C386.977,179.752,249.5,64.6,249.5,64.6V318.992C407.246,343.08,385.8,602.465,632.556,793.7c166.559,128.958,508.783,229.423,692.086,329.005s341.637,159.509,306.386,272.017Z" transform="translate(-102.181 -64.6)" fill="url(#m)" style="mix-blend-mode:soft-light;isolation:isolate"/><path d="M1470.886,842.877C1408.61,351.719,551.14,687.48,402.5,357.3,450.088,930.122,1174.194,533.553,1470.886,842.877Z" transform="translate(-243.137 502.52)" fill="url(#n)" style="mix-blend-mode:soft-light;isolation:isolate"/><g transform="translate(190.207 88.714)" clip-path="url(#o)"><g transform="translate(-45.238 661.829)" opacity="0.3"><path d="M1567.55,899.972c2.056-36.425-20.269-81.664-63.157-127.783C1398.347,657.918,1169.806,540.71,898.67,536.6c-220.61-3.231-440.926-92.239-535.515-216.5l-4.7,3.525c49.057,64.626,128.958,119.852,231.185,159.215,94.883,37.013,204.747,58.163,309.03,59.632,269.373,4.113,496.152,120.146,601.61,233.535,41.713,44.944,63.451,88.714,61.4,123.671Z" transform="translate(-358.456 -320.1)" fill="#fff"/></g><g transform="translate(-26.438 244.404)" opacity="0.3"><path d="M1638.83,1190.866c19.682-121.321-185.359-247.341-361.025-331.943-42.007-19.975-111.333-46.413-191.822-77.258C920.6,718.509,714.678,639.783,630.958,571.338c-60.22-49.057-120.733-142.471-174.2-225.016C398.3,256.139,348.072,178.587,311.352,178v5.875c33.488.294,85.483,80.489,140.415,165.384S566.331,526.1,627.139,575.744c84.6,69.032,291.111,148.052,456.789,211.5,80.2,30.55,149.521,56.988,191.234,76.964,173.9,83.72,376.887,207.978,357.793,325.774Z" transform="translate(-311.352 -178)" fill="#fff"/></g><g transform="translate(309.911 224.722)" opacity="0.3"><path d="M1458.036,1203.554c4.406-75.495-45.826-143.059-149.815-200.928s-234.123-87.539-270.548-94.589c-70.5-13.513-246.46-82.545-419.776-209.741-144.234-106.045-327.243-283.473-380.706-527l-5.581,1.175C285.366,418.054,469.551,596.363,614.372,703,788.275,830.78,965.7,900.4,1036.5,913.912c158.921,30.844,425.357,126.315,415.663,289.348Z" transform="translate(-231.609 -171.3)" fill="#fff"/></g><g transform="translate(722.049 513.483)" opacity="0.3"><path d="M1157.241,1035.712l5.581-2.056a633.042,633.042,0,0,0-213.56-272.9c-62.276-44.944-132.777-78.432-201.222-110.452s-141.59-66.976-204.159-113.1c-40.245-29.669-76.964-64.626-112.8-98.114-19.094-18.213-39.069-37.307-59.339-54.932C326.209,344.214,256.3,288.694,172.869,269.6l-1.469,5.581c82.251,19.094,151.578,73.732,196.522,113.389C387.9,406.2,407.873,425,427.26,443.209c35.544,33.782,72.558,68.739,113.1,98.7,63.157,46.413,135.421,80.489,205.335,113.683s138.359,65.214,200.047,109.864A624.821,624.821,0,0,1,1157.241,1035.712Z" transform="translate(-171.4 -269.6)" fill="#fff"/></g><g transform="translate(1442.924 790.494)" opacity="0.3"><path d="M660.8,833.32h17.919v-5.875C411.4,835.083,300.067,665.88,210.471,530.165c-51.7-78.432-96.058-146-159.509-166.265L49.2,369.481c61.395,19.682,105.458,86.658,156.278,163.915C293.9,667.349,403.175,833.32,660.8,833.32Z" transform="translate(-49.2 -363.9)" fill="#fff"/></g></g><path d="M1780.378,1312.658c-37.307-204.747-296.105-361.906-685.036-437.107S987.24,223.709,743.717,110.907C673.51,78.594,609.765,75.069,554.539,86.526,392.68,120.014,293.1,283.341,331.873,444.025s186.828,381,664.473,499.089c826.92,204.747,358.675,413.313,140.415,398.625Z" transform="translate(-323.5 -33.65)" fill="#fff" opacity="0.1"/><path d="M923.777,978.176c-58.751-228.835-608.66-357.793-809.588-465.9s-158.04-284.355,86.07-212.972S828.894,967.6,1146.149,987.576,804.219,808.092,715.5,575.144s247.342-194.466,347.806,60.513,96.645,284.355,202.4,336.349-31.432-59.045,41.126-131.015,358.087-25.557,244.7,147.759S923.777,978.176,923.777,978.176Z" transform="translate(867.982 358.115)" fill="#fff" opacity="0.1"/></g></g></g></g></svg>