<svg xmlns="http://www.w3.org/2000/svg" width="893" height="892" viewBox="0 0 893 892"><g transform="translate(-945 -5461)"><rect width="839" height="839" rx="32" transform="translate(998 5461)" fill="#fff"/><text transform="translate(1681 6349)" fill="#8797a3" font-size="18" font-family="Raleway-Medium, Raleway" font-weight="500"><tspan x="-124.011" y="0">page loading time in seconds</tspan></text><text transform="translate(962 5558) rotate(-90)" fill="#8797a3" font-size="18" font-family="Raleway-Medium, Raleway" font-weight="500"><tspan x="-64.944" y="0">conversion rate</tspan></text><text transform="translate(1060 6136)" fill="#8797a3" font-size="25" font-family="Raleway-Medium, Raleway" font-weight="500"><tspan x="0" y="0">0.25%</tspan></text><text transform="translate(1060 6042)" fill="#8797a3" font-size="25" font-family="Raleway-Medium, Raleway" font-weight="500"><tspan x="0" y="0">0.50%</tspan></text><text transform="translate(1060 5948)" fill="#8797a3" font-size="25" font-family="Raleway-Medium, Raleway" font-weight="500"><tspan x="0" y="0">1.00%</tspan></text><text transform="translate(1060 5854)" fill="#8797a3" font-size="25" font-family="Raleway-Medium, Raleway" font-weight="500"><tspan x="0" y="0">1.25%</tspan></text><text transform="translate(1060 5760)" fill="#8797a3" font-size="25" font-family="Raleway-Medium, Raleway" font-weight="500"><tspan x="0" y="0">1.50%</tspan></text><text transform="translate(1060 5666)" fill="#8797a3" font-size="25" font-family="Raleway-Medium, Raleway" font-weight="500"><tspan x="0" y="0">1.75%</tspan></text><text transform="translate(1060 5572)" fill="#8797a3" font-size="25" font-family="Raleway-Medium, Raleway" font-weight="500"><tspan x="0" y="0">2.00%</tspan></text><text transform="translate(1220 6230)" fill="#8797a3" font-size="25" font-family="Raleway-Medium, Raleway" font-weight="500"><tspan x="0" y="0">1</tspan></text><text transform="translate(1296 6230)" fill="#8797a3" font-size="25" font-family="Raleway-Medium, Raleway" font-weight="500"><tspan x="0" y="0">2</tspan></text><text transform="translate(1372 6230)" fill="#8797a3" font-size="25" font-family="Raleway-Medium, Raleway" font-weight="500"><tspan x="0" y="0">3</tspan></text><text transform="translate(1448 6230)" fill="#8797a3" font-size="25" font-family="Raleway-Medium, Raleway" font-weight="500"><tspan x="0" y="0">4</tspan></text><text transform="translate(1524 6230)" fill="#8797a3" font-size="25" font-family="Raleway-Medium, Raleway" font-weight="500"><tspan x="0" y="0">5</tspan></text><text transform="translate(1600 6230)" fill="#8797a3" font-size="25" font-family="Raleway-Medium, Raleway" font-weight="500"><tspan x="0" y="0">6</tspan></text><text transform="translate(1676 6230)" fill="#8797a3" font-size="25" font-family="Raleway-Medium, Raleway" font-weight="500"><tspan x="0" y="0">7</tspan></text><text transform="translate(1752 6230)" fill="#8797a3" font-size="25" font-family="Raleway-Medium, Raleway" font-weight="500"><tspan x="0" y="0">8</tspan></text><line x2="678" transform="translate(1159 5563)" fill="none" stroke="#f5f5f5" stroke-linecap="round" stroke-width="2"/><line x2="678" transform="translate(1159 5658)" fill="none" stroke="#f5f5f5" stroke-linecap="round" stroke-width="2"/><line x2="678" transform="translate(1159 5753)" fill="none" stroke="#f5f5f5" stroke-linecap="round" stroke-width="2"/><line x2="678" transform="translate(1159 5848)" fill="none" stroke="#f5f5f5" stroke-linecap="round" stroke-width="2"/><line x2="678" transform="translate(1159 5943)" fill="none" stroke="#f5f5f5" stroke-linecap="round" stroke-width="2"/><line x2="678" transform="translate(1159 6038)" fill="none" stroke="#f5f5f5" stroke-linecap="round" stroke-width="2"/><line x2="678" transform="translate(1159 6133)" fill="none" stroke="#f5f5f5" stroke-linecap="round" stroke-width="2"/><rect width="32" height="552" rx="16" transform="translate(1210 5590)" fill="#29a2ff"/><rect width="32" height="124" rx="16" transform="translate(1515 6018)" fill="#29a2ff"/><rect width="32" height="185" rx="16" transform="translate(1439 5957)" fill="#29a2ff"/><rect width="32" height="335" rx="16" transform="translate(1363 5807)" fill="#29a2ff"/><rect width="32" height="470" rx="16" transform="translate(1287 5672)" fill="#29a2ff"/><rect width="32" height="74" rx="16" transform="translate(1591 6068)" fill="#29a2ff"/><rect width="32" height="45" rx="16" transform="translate(1665 6097)" fill="#29a2ff"/><rect width="32" height="19" rx="9.5" transform="translate(1744 6123)" fill="#29a2ff"/></g></svg>