<svg xmlns="http://www.w3.org/2000/svg" width="332" height="332" viewBox="0 0 332 332"><g transform="translate(-389 -334)"><rect width="332" height="332" rx="20" transform="translate(721 666) rotate(180)" fill="#fff" opacity="0.1"/><rect width="100" height="100" rx="20" transform="translate(489 666) rotate(180)" fill="#fff"/><rect width="100" height="100" rx="20" transform="translate(605 666) rotate(180)" fill="#fff"/><rect width="100" height="100" rx="20" transform="translate(721 666) rotate(180)" fill="#fff" opacity="0.2"/><rect width="100" height="100" rx="20" transform="translate(489 434) rotate(180)" fill="#fff" opacity="0.22"/><rect width="100" height="100" rx="20" transform="translate(605 434) rotate(180)" fill="#fff" opacity="0.22"/><rect width="100" height="100" rx="20" transform="translate(721 434) rotate(180)" fill="#fff" opacity="0.2"/><rect width="100" height="100" rx="20" transform="translate(489 550) rotate(180)" fill="#fff"/><rect width="100" height="100" rx="20" transform="translate(605 550) rotate(180)" fill="#fff"/><rect width="100" height="100" rx="20" transform="translate(721 550) rotate(180)" fill="#fff" opacity="0.22"/></g></svg>