<svg xmlns="http://www.w3.org/2000/svg" width="288.31" height="182.28"><path d="M50.32 8.83C128.05 116.13 226.12 71.8 249.5 0c6.42 76.72-3.2 72.35-31.14 100.71-2.6 19.94-3.56 19.38-17.04 48.32-39.5 66.68-181 18.5-193.67-18.25l14.04-32.84c24-.76 44.84-3.54 69.29-5.66C64.74 62.2 59.8 43.44 50.32 8.83z" fill="#bbb"/><path d="M53.12 108.2c9.53 16.92 5.3 34.93-12.81 43-13.87 6.18-30.14-5.2-37.1-23.46S.82 90.55 15.05 85.07s29.54 8.02 38.06 23.14z" fill="#353535"/><path d="M94.06 96.83c0 11.85-9.32 21.46-20.82 21.46s-20.82-9.6-20.82-21.46 9.32-21.46 20.82-21.46 20.82 9.61 20.82 21.46z" fill="#fff"/><path d="M146.58 103.4a25.7 25.7 0 11-25.7-26.1 25.9 25.9 0 0125.7 26.1z" fill="#fff"/><path d="M87.8 102.25c0 5.81-4.1 10.53-9.17 10.53s-9.17-4.72-9.17-10.53 4.1-10.53 9.17-10.53 9.17 4.71 9.17 10.53zM138.3 109.59c0 6.88-4.92 12.45-10.99 12.45s-10.98-5.57-10.98-12.45 4.92-12.45 10.98-12.45 10.98 5.57 10.98 12.45zM49.06 164.9c55.72-1.71 80.06-2.78 109.85-35.55.2 27.85-12.7 45.02-27.23 47.39-25.6 4.18-52.94-.43-82.62-11.85zM146.4 72.88c27.45-.62 69.8-1.4 103.09-72.88-11.52 72.56-42.44 79.92-56.76 82.14-14.63 2.27-36.86-4.43-46.33-9.26z" fill="#353535"/><path d="M138.92 147.24l61.89 2.6-4.16 17.3-65.36-15.2a46.06 46.06 0 007.63-4.7z" fill="#353535"/><path d="M233.4 154.17l-32.6-4.32-4.16 17.29 35.8-.15z" fill="#bbb"/><path d="M241.32 148.73c-6.98.2-11.04 7.8-11.2 13.3-.17 5.33 14.13 25.59 58.2 5.92-16.74-5.66-39.38-19.6-47-19.22z" fill="#353535"/></svg>