<svg aria-hidden="true" xmlns="http://www.w3.org/2000/svg" viewBox="0 0 448 512"><path fill="#fff" d="M283 346c3 2 3 6 0 9-24 24-94 24-118 0-3-3-3-7 0-10 2-2 6-2 9 1 18 19 81 19 100 0 3-3 7-3 9 0zm-91-54a27 27 0 10-53-1 27 27 0 0053 1zm91-27a27 27 0 100 53 27 27 0 000-53zM448 80v352c0 27-21 48-48 48H48c-26 0-48-21-48-48V80c0-26 22-48 48-48h352c27 0 48 22 48 48zM348 221c-10 0-19 4-25 10-24-16-57-27-93-28l19-85 59 14c0 14 12 26 27 26a27 27 0 000-53c-11 0-19 6-24 15l-66-15c-3-1-6 2-7 5l-21 93c-35 1-67 12-91 29-7-7-16-11-26-11-38 0-50 50-16 67l-2 17c0 56 64 102 142 102 79 0 142-46 142-102 0-6 0-12-2-17 34-17 22-67-16-67z"/></svg>