<svg xmlns="http://www.w3.org/2000/svg" xmlns:xlink="http://www.w3.org/1999/xlink" width="332" height="332" viewBox="0 0 332 332"><defs><clipPath id="a"><rect width="332" height="332" rx="20" transform="translate(666 504) rotate(180)" fill="#fff" opacity="0.1"/></clipPath></defs><g transform="translate(-334 -172)"><rect width="332" height="332" rx="20" transform="translate(666 504) rotate(180)" fill="#fff" opacity="0.1"/><rect width="100" height="100" rx="20" transform="translate(469 504) rotate(180)" fill="#fff"/><rect width="100" height="100" rx="20" transform="translate(605 504) rotate(180)" fill="#fff"/><rect width="100" height="100" rx="20" transform="translate(469 272) rotate(180)" fill="#fff"/><rect width="100" height="100" rx="20" transform="translate(605 272) rotate(180)" fill="#fff"/><rect width="100" height="100" rx="20" transform="translate(469 388) rotate(180)" fill="#fff"/><rect width="100" height="100" rx="20" transform="translate(605 388) rotate(180)" fill="#fff"/><g clip-path="url(#a)"><rect width="100" height="100" rx="20" transform="translate(353 272) rotate(180)" fill="#fff"/><rect width="100" height="100" rx="20" transform="translate(721 272) rotate(180)" fill="#fff"/><rect width="100" height="100" rx="20" transform="translate(721 504) rotate(180)" fill="#fff"/></g></g></svg>