<svg xmlns="http://www.w3.org/2000/svg" xmlns:xlink="http://www.w3.org/1999/xlink" width="1920" height="2160" viewBox="0 0 1920 2160"><defs><clipPath id="a"><rect width="1920" height="2160" fill="#fff"/></clipPath><radialGradient id="b" cx="0.799" cy="-0.297" r="1.933" gradientTransform="translate(0.318 -0.004) scale(0.589 0.99)" gradientUnits="objectBoundingBox"><stop offset="0" stop-color="#ab0d5e"/><stop offset="1" stop-color="#3e1a5f"/></radialGradient></defs><g clip-path="url(#a)"><g transform="translate(3003.2 -12526)"><path d="M2978.8,1111.1v227.5c-142.512,302.458-361.294,621.477-697.746,903.016-602.955.218-1025.917-112.659-1222.254-179.121v-9.806c310.957-37.262,582.036-140.116,818.032-284.154C2256.212,1702.288,2682.661,1527.743,2978.8,1111.1Z" transform="translate(-4062 11915.197)" fill="url(#b)"/><path d="M2536.167,804.6v667.892C2240.029,1889.135,1813.58,2063.68,1434.2,2129.925,1961.1,1807.637,2311.939,1277.681,2536.167,804.6Z" transform="translate(-3619.368 11553.806)" fill="url(#b)"/><path d="M1876.832,1412.8c-236,144.038-507.075,246.892-818.032,284.154V1419.119C1168.626,1436.77,1499.413,1478.391,1876.832,1412.8Z" transform="translate(-4062 12270.931)" fill="url(#b)"/><path d="M2978.8,139V1589.4c-224.229,473.081-575.063,1003.037-1101.967,1325.325-377.419,65.591-708.206,23.97-818.032,6.32V139Z" transform="translate(-4062 10769)" fill="url(#b)"/><path d="M2281.053,1726.822c-242.1,202.438-544.991,385.482-923.718,528.866H1058.8V1547.7C1255.137,1614.162,1678.1,1727.039,2281.053,1726.822Z" transform="translate(-4062 12429.989)" fill="url(#b)"/><path d="M2317.446,1215.5v494a2208.962,2208.962,0,0,1-324.9,394.634c-130.963,9.806-255.39,14.164-372.843,14.383C1956.152,1836.977,2174.933,1517.958,2317.446,1215.5Z" transform="translate(-3400.646 12038.295)" fill="url(#b)"/><path d="M2492.361,1623.3c-223.793,215.077-520.368,409.016-913.694,543.248H1195.8c378.727-143.384,681.621-326.428,923.718-528.866C2236.971,1637.464,2361.4,1633.106,2492.361,1623.3Z" transform="translate(-3900.464 12519.129)" fill="url(#b)"/><path d="M2115.7,1442.2v359.986c-112.441,15.471-220.742,26.8-324.9,34.648A2208.986,2208.986,0,0,0,2115.7,1442.2Z" transform="translate(-3198.903 12305.596)" fill="url(#b)"/><path d="M2610.1,1607.4v577.9H1371.5c393.326-134.232,689.9-328.171,913.694-543.248C2389.354,1634.2,2497.656,1622.871,2610.1,1607.4Z" transform="translate(-3693.297 12500.382)" fill="url(#b)"/></g></g></svg>