<svg xmlns="http://www.w3.org/2000/svg" xmlns:xlink="http://www.w3.org/1999/xlink" width="1920" height="2160" viewBox="0 0 1920 2160"><defs><clipPath id="a"><rect width="1920" height="2160" fill="#fff"/></clipPath><radialGradient id="b" cx="-0.11" cy="1.381" r="2.071" gradientTransform="translate(0.009 0.012) scale(1.219 0.99)" gradientUnits="objectBoundingBox"><stop offset="0" stop-color="#3e1a5f"/><stop offset="1" stop-color="#060327"/></radialGradient></defs><g clip-path="url(#a)"><g transform="translate(3965.6 -11435)"><path d="M2016.4,139V2479.613q-81.507-16.563-159.092-35.305C1336.01,1260.489,442.262,1052.58,96.4,1017.057V139Z" transform="translate(-4062 10769)" fill="url(#b)"/><path d="M1063.492,1232.105v398.166c-47.51-157.348-100.9-301.4-159.092-433.471Q982.2,1215.542,1063.492,1232.105Z" transform="translate(-3109.092 12016.508)" fill="url(#b)"/><path d="M1745.29,1739.624C872.9,1506.434,375.792,1081.9,96.4,712.5,875.3,734.076,1413.158,1257.335,1745.29,1739.624Z" transform="translate(-4062 11445.353)" fill="url(#b)"/><path d="M2016.4,2201.426V3240.754H96.4V712.5c279.392,369.4,776.5,793.934,1648.89,1027.124C1859.705,1905.689,1949.494,2067.178,2016.4,2201.426Z" transform="translate(-4062 11445.353)" fill="url(#b)"/><path d="M1857.308,1969.151c-38.139-8.935-75.405-18.524-112.018-28.332C1413.158,1458.531,875.3,935.271,96.4,913.7V541.9C442.262,577.423,1336.01,785.332,1857.308,1969.151Z" transform="translate(-4062 11244.157)" fill="url(#b)"/><path d="M1124.11,1645.6C1057.2,1511.355,967.415,1349.866,853,1183.8c36.613,9.807,73.88,19.4,112.018,28.332C1023.206,1344.2,1076.6,1488.254,1124.11,1645.6Z" transform="translate(-3169.71 12001.177)" fill="url(#b)"/></g></g></svg>