<svg xmlns="http://www.w3.org/2000/svg" xmlns:xlink="http://www.w3.org/1999/xlink" width="1920" height="2160" viewBox="0 0 1920 2160"><defs><clipPath id="a"><rect width="1920" height="2160" fill="#fff"/></clipPath><radialGradient id="b" cx="0.271" cy="1.81" r="3.361" gradientTransform="translate(-0.013 0.014) scale(2.017 0.99)" gradientUnits="objectBoundingBox"><stop offset="0" stop-color="#e74b6a"/><stop offset="1" stop-color="#ab0d5e"/></radialGradient><radialGradient id="c" cx="-1.715" cy="-0.222" r="1.926" gradientTransform="translate(-0.943) scale(2.887 1)" xlink:href="#b"/><radialGradient id="d" cx="1.284" cy="0.855" r="0.906" gradientTransform="translate(-0.068) scale(1.135 1)" xlink:href="#b"/><radialGradient id="e" cx="-0.097" cy="0.184" r="1.236" gradientTransform="translate(-0.1) scale(1.2 1)" xlink:href="#b"/><radialGradient id="f" cx="0.111" cy="-0.14" r="1.169" gradientTransform="translate(-0.335) scale(1.67 1)" xlink:href="#b"/><radialGradient id="g" cx="-0.338" cy="-0.416" r="1.626" gradientTransform="translate(-0.943) scale(2.887 1)" xlink:href="#b"/><radialGradient id="h" cx="0.915" cy="0.129" r="1.112" gradientTransform="translate(0.115) scale(0.77 1)" xlink:href="#b"/><radialGradient id="i" cx="-0.204" cy="-0.152" r="1.34" gradientTransform="translate(-0.525) scale(2.049 1)" xlink:href="#b"/></defs><g clip-path="url(#a)"><g transform="translate(2026.7 -12532)"><path d="M2357.189,1574.7a4077.945,4077.945,0,0,0-192.218,649.226H2035.3V1651.413C2108.308,1640.516,2220.326,1618.505,2357.189,1574.7Z" transform="translate(-4062 12462.181)" fill="url(#b)"/><path d="M2418.21,139c-98.289,341.939-226.652,736.182-382.91,1105.362V139Z" transform="translate(-4062 10769)" fill="url(#c)"/><path d="M3885.129,940V2972.454H2094.8a4067.7,4067.7,0,0,1,183.282-625.908l8.936-23.318,8.717-2.615c377.244-122.261,939.732-409.281,1404.586-1082.043A3448.147,3448.147,0,0,0,3885.129,940Z" transform="translate(-3991.829 11713.653)" fill="url(#d)"/><path d="M3781.111,694.6v534.811A3448.115,3448.115,0,0,1,3596.3,1527.98c-756.667,346.079-1174.23,746.642-1404.586,1082.043l-8.718,2.615C2558.5,1652.421,3231.7,1049.179,3781.111,694.6Z" transform="translate(-3887.812 11424.242)" fill="url(#e)"/><path d="M3955.3,139V1349.842c-549.412,354.579-1222.611,957.821-1598.111,1918.039-136.863,43.8-248.881,65.816-321.889,76.713V2140.508C2595.609,1520.049,2894.179,585.111,3012.081,139Z" transform="translate(-4062 10769)" fill="url(#f)"/><path d="M2418.21,139c-98.289,341.939-226.652,736.182-382.91,1105.362V139Z" transform="translate(-4062 10769)" fill="url(#g)"/><path d="M3591.586,1077C3126.732,1749.763,2564.244,2036.782,2187,2159.043,2417.356,1823.642,2834.919,1423.08,3591.586,1077Z" transform="translate(-3883.094 11875.223)" fill="url(#h)"/><path d="M3012.081,139c-117.9,446.111-416.472,1381.049-976.781,2001.508V1244.362C2191.559,875.182,2319.922,480.939,2418.21,139Z" transform="translate(-4062 10769)" fill="url(#i)"/></g></g></svg>