<svg xmlns="http://www.w3.org/2000/svg" width="374.5" height="123.7"><path d="M349.7 39.1l-20.6-4.8-3.7-1.4-95 .7v45.8l119.3.4z" fill="#fff"/><path d="M311 75.3c1-3.7.7-7.3-1.2-9.6a11.4 11.4 0 00-7.7-4l-64.3-.8-1-.3a.7.7 0 010-1.1c.3-.8.7-1.1 1.4-1.1l64.6-.8c7.8-.4 16-6.6 18.9-14l3.7-9.6c0-.4.3-.8 0-1.1a42 42 0 00-81-4.5 20.2 20.2 0 00-13.2-3.7c-8.9.8-15.9 8.2-17 17a20.2 20.2 0 00.4 6.7 27 27 0 00-26.3 27 15.1 15.1 0 00.4 4 1.2 1.2 0 001.1 1.1h118.6c.7 0 1.4-.4 1.4-1.1l1.2-4zM331.3 34h-1.9c-.3 0-.7.3-1 .7l-2.7 8.9c-1 3.7-.7 7.4 1.1 9.6a11.4 11.4 0 007.8 4l13.7.8 1 .3a.7.7 0 010 1.2c-.3.7-.7 1-1.4 1l-14 .8c-7.8.4-16 6.6-18.9 14l-.7 3.4c-.4.3 0 1 .7 1h48.8a1 1 0 001-1 40.1 40.1 0 001.6-9.6A35.3 35.3 0 00331.3 34M371.2 100.5a3.3 3.3 0 113.3-3.4 3.3 3.3 0 01-3.3 3.4m0-6a2.6 2.6 0 102.5 2.6 2.5 2.5 0 00-2.5-2.6m1.4 4.5h-.7l-.7-1.1h-.8v1h-.7v-3.3h1.8a1 1 0 011.1 1.2c0 .3-.3.7-.7 1l.7 1.2zm-1-1.9c.3 0 .3 0 .3-.3a.4.4 0 00-.4-.4h-1v1.1h1zM40.2 93.8h8V116h14.1v7H40.3zm30.6 14.4c0-8.5 6.7-15.1 15.9-15.1s15.5 6.6 15.5 15.1-6.6 15.1-15.9 15.1a15 15 0 01-15.5-15m23.3 0c0-4.5-3-8.2-7.4-8.2a7.5 7.5 0 00-7.4 7.7 7.5 7.5 0 007.4 7.8c4.4.7 7.4-3 7.4-7.4m18 1.9V93.8h8.2v16.3c0 4 2.2 6.2 5.5 6.2s5.6-1.8 5.6-5.9V93.8h8.1v16.3c0 9.6-5.5 13.6-13.7 13.6-8.5-.4-13.6-4.4-13.6-13.6m39.5-16.3h11.4c10.4 0 16.7 6 16.7 14.4s-6.3 14.8-16.7 14.8h-11V93.8zm11.4 21.8c4.8 0 8.2-2.6 8.2-7.4s-3.4-7.4-8.2-7.4H160v14.8zm28.1-21.8h23.3v7h-15.2v4.8h13.7v6.7h-13.7V123h-8.1zm34.7 0h8.1V116h14v7h-22zm43.2-.4h8.1L290 123H281l-2.2-5.2h-11.4l-2.2 5.2h-8.5zm7.4 18.1l-3.3-8-3.3 8zm23.6-17.7H314c4.4 0 7.4 1.1 9.6 3.3a8.9 8.9 0 012.6 6.7 9 9 0 01-6 8.8l7.1 10.4H318l-6-8.9h-3.6v8.9h-8.2V93.8zm13.3 14c2.6 0 4.5-1.4 4.5-3.3 0-2.2-1.9-3.3-4.5-3.3h-5.1v7h5.1zm24-14h23.7v6.7h-15.5v4.4h14v6.6h-14v4.5h15.9v7h-24zM22.6 112a7.3 7.3 0 01-6.6 4.4 7.5 7.5 0 01-7.4-7.7 7.5 7.5 0 017.4-7.8 7.7 7.7 0 017 4.8h8.5c-1.5-7-7.4-12.2-15.5-12.2C7 93.4 0 100.1 0 108.6s6.6 15.1 15.5 15.1A16 16 0 0031 112z" fill="#cbcbcb"/></svg>