<svg xmlns="http://www.w3.org/2000/svg" width="374.479" height="123.718" viewBox="0 0 374.479 123.718"><g transform="translate(-1426.921 4956.218)"><path d="M181.687,15.178l-20.681-4.8L157.312,8.9,62.4,9.639V55.433l119.287.369Z" transform="translate(1594.97 -4932.25)" fill="#fff"/><path d="M173.61,75.339c1.108-3.693.739-7.386-1.108-9.6a11.427,11.427,0,0,0-7.755-4.062l-64.26-.739c-.369,0-.739-.369-1.108-.369a.692.692,0,0,1,0-1.108c.369-.739.739-1.108,1.477-1.108l64.629-.739c7.755-.369,15.88-6.648,18.835-14.034l3.693-9.6c0-.369.369-.739,0-1.108a42.088,42.088,0,0,0-80.879-4.432,20.162,20.162,0,0,0-13.3-3.693c-8.863.739-15.88,8.125-16.988,16.988a20.173,20.173,0,0,0,.369,6.648A26.966,26.966,0,0,0,51,75.339a15.149,15.149,0,0,0,.369,4.062,1.179,1.179,0,0,0,1.108,1.108H171.025c.739,0,1.477-.369,1.477-1.108l1.108-4.062Z" transform="translate(1564.269 -4956.218)" fill="#353535"/><path d="M102.194,9.2h-1.847c-.369,0-.739.369-1.108.739L96.654,18.8c-1.108,3.693-.739,7.386,1.108,9.6a11.427,11.427,0,0,0,7.755,4.062l13.664.739c.369,0,.739.369,1.108.369a.692.692,0,0,1,0,1.108c-.369.739-.739,1.108-1.477,1.108l-14.034.739c-7.755.369-15.88,6.648-18.835,14.034l-.739,3.324c-.369.369,0,1.108.739,1.108h48.749a.979.979,0,0,0,1.108-1.108,40.149,40.149,0,0,0,1.477-9.6A35.308,35.308,0,0,0,102.194,9.2" transform="translate(1655.997 -4931.442)" fill="#464342"/><path d="M371.155,32.586a3.324,3.324,0,1,1,3.324-3.324,3.31,3.31,0,0,1-3.324,3.324m0-5.909a2.585,2.585,0,1,0,2.585,2.585,2.524,2.524,0,0,0-2.585-2.585m1.477,4.432h-.739L371.155,30h-.739v1.108h-.739V27.785h1.847a.979.979,0,0,1,1.108,1.108c0,.369-.369.739-.739,1.108l.739,1.108Zm-1.108-1.847c.369,0,.369,0,.369-.369a.362.362,0,0,0-.369-.369h-1.108v1.108h1.108ZM40.255,25.939h8.125V48.1H62.413v7.017H40.255Zm30.653,14.4c0-8.494,6.648-15.142,15.88-15.142S102.3,31.848,102.3,40.342s-6.648,15.142-15.88,15.142c-8.863,0-15.511-6.648-15.511-15.142m23.266,0c0-4.432-2.954-8.125-7.386-8.125A7.488,7.488,0,0,0,79.4,39.972a7.488,7.488,0,0,0,7.386,7.755c4.432.739,7.386-2.954,7.386-7.386m18.1,1.847V25.939h8.125v16.25c0,4.062,2.216,6.278,5.54,6.278s5.54-1.847,5.54-5.909V25.939H139.6v16.25c0,9.6-5.54,13.664-13.664,13.664-8.494-.369-13.664-4.432-13.664-13.664m39.516-16.25h11.449c10.341,0,16.619,5.909,16.619,14.4s-6.278,14.772-16.619,14.772H152.155V25.939Zm11.449,21.789c4.8,0,8.125-2.585,8.125-7.386s-3.324-7.386-8.125-7.386H159.91V47.728ZM191.3,25.939h23.266v7.017H199.426v4.8h13.664V44.4H199.426v10.71H191.3Zm34.715,0h8.125V48.1h14.034v7.017H226.017Zm43.209-.369h8.125l12.556,29.545h-8.863l-2.216-5.17H267.379l-2.216,5.17h-8.494Zm7.386,18.1-3.324-8.125-3.324,8.125Zm23.636-17.727h13.664c4.432,0,7.386,1.108,9.6,3.324A8.9,8.9,0,0,1,326.1,35.91a8.906,8.906,0,0,1-5.909,8.863l7.017,10.341h-9.233l-5.909-8.863h-3.693v8.863h-8.125V25.939Zm13.3,14.034c2.585,0,4.432-1.477,4.432-3.324,0-2.216-1.847-3.324-4.432-3.324h-5.17v7.017h5.17Zm24.005-14.034h23.636v6.648H345.673v4.432h14.034v6.648H345.673V48.1h15.88v7.017H337.548Zm-315.02,18.1a7.3,7.3,0,0,1-6.648,4.432,7.488,7.488,0,0,1-7.386-7.755,7.488,7.488,0,0,1,7.386-7.755,7.747,7.747,0,0,1,7.017,4.8h8.494C29.914,30.74,24.005,25.569,15.88,25.569,7.017,25.569,0,32.217,0,40.711S6.648,55.853,15.511,55.853A15.947,15.947,0,0,0,31.022,44.035Z" transform="translate(1426.921 -4888.353)" fill="#464342"/></g></svg>