<svg xmlns="http://www.w3.org/2000/svg" xmlns:xlink="http://www.w3.org/1999/xlink" width="256.017" height="256.051" viewBox="0 0 256.017 256.051"><defs><linearGradient id="a" y1="-0.136" x2="1" y2="-0.136" gradientUnits="objectBoundingBox"><stop offset="0" stop-color="#0c59a4"/><stop offset="1" stop-color="#114a8b"/></linearGradient><linearGradient id="b" x1="0.906" y1="0.521" x2="0.245" y2="-0.063" gradientUnits="objectBoundingBox"><stop offset="0" stop-color="#1b9de2"/><stop offset="0.16" stop-color="#1595df"/><stop offset="0.67" stop-color="#0680d7"/><stop offset="1" stop-color="#0078d4"/></linearGradient><radialGradient id="c" cx="0.101" cy="0.278" r="1.188" gradientTransform="matrix(-0.025, 0.999, 1.417, 0.08, -4.264, 2.626)" gradientUnits="objectBoundingBox"><stop offset="0" stop-color="#35c1f1"/><stop offset="0.11" stop-color="#34c1ed"/><stop offset="0.23" stop-color="#2fc2df"/><stop offset="0.31" stop-color="#2bc3d2"/><stop offset="0.67" stop-color="#36c752"/></radialGradient></defs><g transform="translate(14370 -7721)"><path d="M235.68,195.46a93.725,93.725,0,0,1-10.54,4.71,101.87,101.87,0,0,1-35.9,6.46c-47.32,0-88.54-32.55-88.54-74.32A31.48,31.48,0,0,1,117.13,105c-42.8,1.8-53.8,46.4-53.8,72.53,0,73.88,68.09,81.37,82.76,81.37,7.91,0,19.84-2.3,27-4.56l1.31-.44A128.34,128.34,0,0,0,241,201.1a4,4,0,0,0-5.32-5.64Z" transform="translate(-14374.609 7716.08)" fill="url(#a)"/><path d="M235.68,195.46a93.725,93.725,0,0,1-10.54,4.71,101.87,101.87,0,0,1-35.9,6.46c-47.32,0-88.54-32.55-88.54-74.32A31.48,31.48,0,0,1,117.13,105c-42.8,1.8-53.8,46.4-53.8,72.53,0,73.88,68.09,81.37,82.76,81.37,7.91,0,19.84-2.3,27-4.56l1.31-.44A128.34,128.34,0,0,0,241,201.1a4,4,0,0,0-5.32-5.64Z" transform="translate(-14374.609 7716.08)" fill="#353535"/><path d="M110.34,246.34A79.2,79.2,0,0,1,87.6,225a80.72,80.72,0,0,1,29.53-120c3.12-1.47,8.45-4.13,15.54-4a32.35,32.35,0,0,1,25.69,13,31.88,31.88,0,0,1,6.36,18.66c0-.21,24.46-79.6-80-79.6-43.9,0-80,41.66-80,78.21a130.15,130.15,0,0,0,12.11,56,128,128,0,0,0,156.38,67.11,75.55,75.55,0,0,1-62.78-8Z" transform="translate(-14374.609 7716.08)" fill="url(#b)"/><path d="M110.34,246.34A79.2,79.2,0,0,1,87.6,225a80.72,80.72,0,0,1,29.53-120c3.12-1.47,8.45-4.13,15.54-4a32.35,32.35,0,0,1,25.69,13,31.88,31.88,0,0,1,6.36,18.66c0-.21,24.46-79.6-80-79.6-43.9,0-80,41.66-80,78.21a130.15,130.15,0,0,0,12.11,56,128,128,0,0,0,156.38,67.11,75.55,75.55,0,0,1-62.78-8Z" transform="translate(-14374.609 7716.08)" fill="#bbb"/><path d="M156.94,153.78c-.81,1.05-3.3,2.5-3.3,5.66,0,2.61,1.7,5.12,4.72,7.23,14.38,10,41.49,8.68,41.56,8.68A59.56,59.56,0,0,0,230.19,167a61.38,61.38,0,0,0,30.43-52.88c.26-22.41-8-37.31-11.34-43.91C228.09,28.76,182.35,4.92,132.61,4.92a128,128,0,0,0-128,126.213c.48-36.553,36.8-66.063,80-66.063,3.5,0,23.46.34,42,10.07,16.34,8.58,24.9,18.94,30.85,29.21,6.18,10.67,7.28,24.15,7.28,29.52S162,147.2,156.94,153.78Z" transform="translate(-14374.609 7716.08)" fill="url(#c)"/><path d="M156.94,153.78c-.81,1.05-3.3,2.5-3.3,5.66,0,2.61,1.7,5.12,4.72,7.23,14.38,10,41.49,8.68,41.56,8.68A59.56,59.56,0,0,0,230.19,167a61.38,61.38,0,0,0,30.43-52.88c.26-22.41-8-37.31-11.34-43.91C228.09,28.76,182.35,4.92,132.61,4.92a128,128,0,0,0-128,126.213c.48-36.553,36.8-66.063,80-66.063,3.5,0,23.46.34,42,10.07,16.34,8.58,24.9,18.94,30.85,29.21,6.18,10.67,7.28,24.15,7.28,29.52S162,147.2,156.94,153.78Z" transform="translate(-14374.609 7716.08)" fill="#353535"/></g></svg>