<svg xmlns="http://www.w3.org/2000/svg" width="256" height="256.1"><defs><linearGradient id="a" y1="-.1" x2="1" y2="-.1" gradientUnits="objectBoundingBox"><stop offset="0" stop-color="#0c59a4"/><stop offset="1" stop-color="#114a8b"/></linearGradient><linearGradient id="b" x1=".9" y1=".5" x2=".2" y2="-.1" gradientUnits="objectBoundingBox"><stop offset="0" stop-color="#1b9de2"/><stop offset=".2" stop-color="#1595df"/><stop offset=".7" stop-color="#0680d7"/><stop offset="1" stop-color="#0078d4"/></linearGradient><radialGradient id="c" cx=".1" cy=".3" r="1.2" gradientTransform="matrix(-.025 .999 1.417 .08 -4.3 2.6)" gradientUnits="objectBoundingBox"><stop offset="0" stop-color="#35c1f1"/><stop offset=".1" stop-color="#34c1ed"/><stop offset=".2" stop-color="#2fc2df"/><stop offset=".3" stop-color="#2bc3d2"/><stop offset=".7" stop-color="#36c752"/></radialGradient></defs><path d="M235.7 195.5a93.7 93.7 0 01-10.6 4.7 101.9 101.9 0 01-35.9 6.4c-47.3 0-88.5-32.5-88.5-74.3a31.5 31.5 0 0116.4-27.3c-42.8 1.8-53.8 46.4-53.8 72.5 0 74 68.1 81.4 82.8 81.4 7.9 0 19.8-2.3 27-4.6l1.3-.4a128.3 128.3 0 0066.6-52.8 4 4 0 00-5.3-5.6z" transform="translate(-4.6 -5)" fill="url(#a)"/><path d="M231 190.5a93.7 93.7 0 01-10.5 4.7 101.9 101.9 0 01-35.9 6.5c-47.3 0-88.5-32.5-88.5-74.3a31.5 31.5 0 0116.4-27.3c-42.8 1.8-53.8 46.4-53.8 72.5 0 73.9 68.1 81.4 82.8 81.4 7.9 0 19.8-2.3 27-4.6l1.3-.4a128.3 128.3 0 0066.6-52.8 4 4 0 00-5.3-5.7z" fill="#cbcbcb"/><path d="M110.3 246.3A79.2 79.2 0 0187.6 225a80.7 80.7 0 0129.5-120c3.2-1.5 8.5-4.1 15.6-4a32.4 32.4 0 0125.7 13 31.9 31.9 0 016.3 18.7c0-.2 24.5-79.6-80-79.6-43.9 0-80 41.6-80 78.2a130.2 130.2 0 0012.1 56 128 128 0 00156.4 67 75.5 75.5 0 01-62.8-8z" transform="translate(-4.6 -5)" fill="url(#b)"/><path d="M105.7 241.4A79.2 79.2 0 0183 220.1a80.7 80.7 0 0129.5-120c3.1-1.5 8.5-4.2 15.6-4a32.4 32.4 0 0125.7 13 31.9 31.9 0 016.3 18.6c0-.2 24.5-79.6-80-79.6-43.9 0-80 41.7-80 78.2a130.2 130.2 0 0012.1 56 128 128 0 00156.4 67.2 75.5 75.5 0 01-62.8-8z" fill="#bbb"/><path d="M157 153.8c-.9 1-3.4 2.5-3.4 5.6 0 2.6 1.7 5.2 4.8 7.3 14.3 10 41.4 8.6 41.5 8.6a59.6 59.6 0 0030.3-8.3 61.4 61.4 0 0030.4-52.9c.3-22.4-8-37.3-11.3-43.9C228 28.8 182.3 5 132.6 5a128 128 0 00-128 126.2c.5-36.5 36.8-66 80-66 3.5 0 23.5.3 42 10a72.6 72.6 0 0130.9 29.2c6.1 10.7 7.2 24.2 7.2 29.6s-2.7 13.3-7.8 19.9z" transform="translate(-4.6 -5)" fill="url(#c)"/><path d="M152.3 148.9c-.8 1-3.3 2.5-3.3 5.6 0 2.6 1.7 5.1 4.8 7.2 14.3 10 41.4 8.7 41.5 8.7a59.6 59.6 0 0030.3-8.3 61.4 61.4 0 0030.4-52.9c.3-22.4-8-37.3-11.3-44C223.5 23.9 177.7 0 128 0A128 128 0 000 126.2c.5-36.5 36.8-66 80-66 3.5 0 23.5.3 42 10a72.6 72.6 0 0130.9 29.2c6.1 10.7 7.2 24.2 7.2 29.5s-2.7 13.4-7.8 20z" fill="#cbcbcb"/></svg>