<svg xmlns="http://www.w3.org/2000/svg" width="259.922" height="268.483" viewBox="0 0 259.922 268.483"><path d="M119.085,268.008A130.129,130.129,0,0,1,0,138.463v-.671a97,97,0,0,1,1.037-12.119q.225-1.785.493-3.564c.877-6.338,2.033-11.393,2.065-11.525A109.9,109.9,0,0,1,21.054,71.159v0A113.7,113.7,0,0,1,33.218,56.568,94.726,94.726,0,0,1,45.935,45.673a23.223,23.223,0,0,1,4.344-2.307l0,.055.054-.022c-.295,4.5-.656,25.984,4.473,32.56h.013A96.363,96.363,0,0,1,86.136,51.754l0,.013.027-.013a60.32,60.32,0,0,0,.366,31.8q1.582,1.069,3.054,2.291.172.143.343.287c1.984,1.682,4.224,3.922,8.941,8.572.612.6,1.289,1.206,2.021,1.808,9.351,7.676,27.459,15.146,29.31,16.724.125.1.192.179.194.235l-.044.016c-.315,3.3-11.666,14.351-15.644,14.351-37,0-43.007,22.383-43.007,22.383a49.045,49.045,0,0,0,9.98,25.281,61.144,61.144,0,0,0,20.669,17.3l-.04-.018.04.021c-.625-.278-1.2-.594-1.8-.886q.919.475,1.837.916l-.047-.029.077.04-.063-.04c.724.376,1.46.712,2.2,1.048q1.91.849,3.82,1.565a57.876,57.876,0,0,0,16.932,3.266q1.793.084,3.535.084c61.75-.013,73-78.059,27.067-101.026a44.956,44.956,0,0,1,31.388,7.618,65.671,65.671,0,0,0-57.015-33.3c-1.551,0-3.055.128-4.573.232,1.021-17.72,12.11-53.147,44.794-72.284l-.05.087c.031-.013.074-.043.094-.05s.047-.037.064-.037a.47.47,0,0,1,.245,0,.336.336,0,0,1,.3.336,23.715,23.715,0,0,0,1.94,5.154c.4.815.859,1.7,1.434,2.686,1,1.723,2.035,3.353,3.065,4.982q2.293,3.624,4.658,6.972c.247.351.492.7.74,1.044l.168.235.293.408q.305.423.612.844c18.964,26,40.364,41.285,53.552,74.137l-.011-.063v-.124a135.169,135.169,0,0,0-13.178-39.5c8.981,4.643,20.45,19.331,26.1,32.936a133.812,133.812,0,0,1,9.409,49.243h0a133.807,133.807,0,0,1-.969,16.121c-.194,1.7-.373,3.357-.59,5.035A130.127,130.127,0,0,1,130.241,268.484C126.552,268.483,122.823,268.327,119.085,268.008Z" fill="#cbcbcb"/></svg>