<svg xmlns="http://www.w3.org/2000/svg" width="259.9" height="268.5"><path d="M119 268A130.1 130.1 0 010 138.5v-.7a97 97 0 011-12.1l.5-3.6 2-11.5a109.9 109.9 0 0117.6-39.4 113.7 113.7 0 0112.1-14.6 94.7 94.7 0 0112.7-11 23.2 23.2 0 014.4-2.2c-.3 4.5-.6 26 4.5 32.6a96.4 96.4 0 0131.3-24.2 60.3 60.3 0 00.4 31.8q1.6 1 3 2.2l.4.3c2 1.7 4.2 4 9 8.6l2 1.8c9.3 7.7 27.4 15.2 29.3 16.7l.2.3c-.4 3.3-11.7 14.3-15.7 14.3-37 0-43 22.4-43 22.4a49 49 0 0010 25.3 61.1 61.1 0 0020.6 17.3l-1.8-.9 1.9 1 2.1 1 3.9 1.5a57.9 57.9 0 0016.9 3.3h3.5c61.8 0 73-78 27.1-101a45 45 0 0131.4 7.7 65.7 65.7 0 00-57-33.3c-1.6 0-3 0-4.6.2A95 95 0 01170.5 0v.1h.1a.5.5 0 01.3 0 .3.3 0 01.3.2 23.7 23.7 0 001.9 5.2l1.4 2.7 3 5 4.7 7 .8 1 .2.2.2.4.7.9c19 26 40.3 41.3 53.5 74.1v-.2a135.2 135.2 0 00-13.2-39.5c9 4.7 20.5 19.4 26.1 33a133.8 133.8 0 019.4 49.2 133.8 133.8 0 01-1 16.1l-.5 5a130.1 130.1 0 01-128.2 108c-3.6 0-7.4 0-11.1-.4z" fill="#cbcbcb"/></svg>