<svg xmlns="http://www.w3.org/2000/svg" width="288.3" height="182.3"><path d="M50.3 8.8c77.8 107.3 175.8 63 199.2-8.8 6.4 76.7-3.2 72.3-31.2 100.7-2.6 20-3.5 19.4-17 48.3-39.5 66.7-181 18.5-193.7-18.2l14-32.9c24-.7 45-3.5 69.4-5.6C64.7 62.2 59.8 43.4 50.3 8.8z" fill="#bbb"/><path d="M53.1 108.2c9.6 17 5.3 35-12.8 43-13.9 6.2-30.1-5.2-37.1-23.5S.8 90.6 15.1 85.1s29.5 8 38 23.1z" fill="#cbcbcb"/><path d="M94 96.8c0 11.9-9.3 21.5-20.8 21.5s-20.8-9.6-20.8-21.5 9.3-21.4 20.8-21.4S94.1 85 94.1 96.8z" fill="#fff"/><path d="M146.6 103.4a25.7 25.7 0 11-25.7-26 26 26 0 0125.7 26z" fill="#fff"/><path d="M87.8 102.2c0 5.9-4.1 10.6-9.2 10.6s-9.1-4.7-9.1-10.6 4-10.5 9.1-10.5 9.2 4.7 9.2 10.5zM138.3 109.6c0 6.9-5 12.4-11 12.4s-11-5.5-11-12.4 5-12.5 11-12.5 11 5.6 11 12.5zM49 164.9c55.8-1.7 80.1-2.8 109.9-35.6.2 27.9-12.7 45-27.2 47.4-25.6 4.2-53-.4-82.6-11.8zM146.4 72.9c27.4-.6 69.8-1.4 103-72.9C238 72.6 207 80 192.8 82.1c-14.6 2.3-36.8-4.4-46.3-9.2z" fill="#cbcbcb"/><path d="M139 147.2l61.8 2.6-4.2 17.3-65.3-15.2a46 46 0 007.6-4.7z" fill="#cbcbcb"/><path d="M233.4 154.2l-32.6-4.4-4.2 17.3 35.8-.1z" fill="#bbb"/><path d="M241.3 148.7c-7 .2-11 7.8-11.2 13.3-.2 5.4 14.1 25.6 58.2 6-16.7-5.7-39.4-19.6-47-19.3z" fill="#cbcbcb"/></svg>