<svg xmlns="http://www.w3.org/2000/svg" width="288.313" height="182.282" viewBox="0 0 288.313 182.282"><g transform="translate(-1098.687 4441)"><path d="M213.626,218.633c77.729,107.3,175.8,62.96,199.162-8.833,6.419,76.725-3.187,72.347-31.136,100.714-2.607,19.939-3.56,19.373-17.042,48.319-39.505,66.675-181.006,18.5-193.67-18.253l14.042-32.835c24-.76,44.836-3.548,69.289-5.666-26.23-30.08-31.174-48.834-40.645-83.447Z" transform="translate(935.384 -4650.8)" fill="#bbb"/><path d="M212.2,364.377c9.529,16.91,5.293,34.928-12.817,42.992-13.868,6.186-30.135-5.2-37.105-23.458s-2.368-37.189,11.854-42.671S203.678,349.261,212.2,364.377Z" transform="translate(939.609 -4697.172)" fill="#cbcbcb"/><path d="M301.089,369.495c0,11.851-9.321,21.459-20.819,21.459s-20.819-9.607-20.819-21.459,9.321-21.459,20.819-21.459S301.089,357.644,301.089,369.495Z" transform="translate(891.657 -4713.663)" fill="#fff"/><path d="M371.728,449.48a25.706,25.706,0,1,1-25.7-26.1A25.906,25.906,0,0,1,371.728,449.48Z" transform="translate(873.54 -4787.072)" fill="#fff"/><path d="M285.3,362.785c0,5.815-4.106,10.53-9.171,10.53s-9.171-4.714-9.171-10.53,4.106-10.53,9.171-10.53S285.3,356.969,285.3,362.785Z" transform="translate(901.184 -4701.539)" fill="#cbcbcb"/><path d="M373.656,388.2c0,6.878-4.916,12.454-10.982,12.454s-10.983-5.576-10.983-12.454,4.917-12.454,10.982-12.454,10.983,5.576,10.983,12.454Z" transform="translate(863.323 -4719.61)" fill="#cbcbcb"/><path d="M235.28,446.246C291,444.54,315.34,443.471,345.123,410.7c.212,27.858-12.7,45.023-27.221,47.392C292.3,462.277,264.954,457.667,235.28,446.246Z" transform="translate(912.468 -4722.355)" fill="#cbcbcb"/><path d="M386.46,282.681c27.453-.625,69.8-1.41,103.09-72.881-11.518,72.559-42.441,79.925-56.753,82.14C418.168,294.206,395.937,287.51,386.46,282.681Z" transform="translate(858.622 -4650.8)" fill="#cbcbcb"/><path d="M-10.643,503.22l61.889,2.6-4.163,17.293L-18.271,507.92a46.064,46.064,0,0,0,7.629-4.7Z" transform="translate(1248.248 -4796.975)" fill="#cbcbcb"/><path d="M119.989,511.586,87.4,507.26l-4.163,17.293,35.791-.155Z" transform="translate(1212.093 -4798.413)" fill="#bbb"/><path d="M146.428,505.516c-6.979.212-11.042,7.8-11.209,13.3-.167,5.331,14.138,25.592,58.2,5.923C176.688,519.075,154.045,505.143,146.428,505.516Z" transform="translate(1193.579 -4797.79)" fill="#cbcbcb"/></g></svg>