<svg xmlns="http://www.w3.org/2000/svg" width="221" height="221"><path fill="rgba(247,223,30,0)" d="M0 0h221v221H0z"/><path d="M148.59 172.8c4.45 7.28 10.25 12.63 20.5 12.63 8.6 0 14.1-4.3 14.1-10.25 0-7.13-5.64-9.65-15.12-13.8l-5.2-2.23c-15-6.4-24.97-14.4-24.97-31.32 0-15.59 11.88-27.46 30.44-27.46 13.22 0 22.72 4.6 29.57 16.65l-16.19 10.39c-3.56-6.4-7.4-8.9-13.38-8.9-6.08 0-9.94 3.85-9.94 8.9 0 6.23 3.86 8.76 12.78 12.62l5.2 2.23c17.66 7.57 27.63 15.3 27.63 32.65 0 18.71-14.7 28.96-34.45 28.96-19.3 0-31.77-9.2-37.87-21.25zm-73.43 1.8c3.27 5.8 6.24 10.7 13.38 10.7 6.83 0 11.13-2.67 11.13-13.06v-70.68h20.79v70.96c0 21.52-12.62 31.32-31.04 31.32-16.64 0-26.28-8.61-31.18-18.99z" fill="#353535"/></svg>