<svg xmlns="http://www.w3.org/2000/svg" width="218.59" height="218.59"><path d="M130.72 141.47l-53.6-11.2a12.5 12.5 0 01-.75 1.26l48.8 71.2 2.94-2.95 8.3-51.63a9.78 9.78 0 01-5.7-6.68zm-19.55-70.08a11.12 11.12 0 01-11.2 4.96L75.5 114.61l65.32-28.11c-.02-.26-.08-.5-.08-.78a9.62 9.62 0 01.17-1.6l-29.75-12.73zm1.77-6.97l31.65 13.53a9.77 9.77 0 013.4-1.72l5.2-32.34-19.82-19.82-22.3 34.9a11.11 11.11 0 011.87 5.44zm66.32 5.54L159.4 50.1l-4.32 26.82a9.93 9.93 0 012.9 2.2l21.28-9.16zm-47.59 64.44a9.7 9.7 0 017.76-4.99l5.7-35.48a9.82 9.82 0 01-1.24-1.02L78.2 121.2a13 13 0 01.34 2.12l53.13 11.1zm53-59.03l-22.98 9.89 56.7 24.24.2-.2-33.92-33.93zm-41.07 72.88l-6.9 42.94 40.1-40.1-28.89-6.03a9.7 9.7 0 01-4.3 3.2zm-77.94-11.04a12.89 12.89 0 01-4.15-.69L48.2 157.37l-5.14-5.15 12.61-19.74a13.72 13.72 0 01-.87-1.2l-22.86 9.83-5.41-5.41 25.02-10.77L6.3 115.5.11 109.3l1.96-1.96 52.16 10.9a12.8 12.8 0 012.27-3.1L31.2 78.22l5.11-5.12 26.45 38.58a12.57 12.57 0 016.13.09l24.75-38.72a11.16 11.16 0 01-2.83-10.36l-30.88-13.2 5.42-5.42 29.25 12.5a11.2 11.2 0 0110.8-1.93l22.82-35.71L109.3 0 0 109.3l109.3 109.3 10.76-10.76-49.18-71.73a12.9 12.9 0 01-5.22 1.1zm86.44-41.74l-5.8 36.06a9.7 9.7 0 013.58 6.67l32.93 6.88 30.16-30.16-54.44-23.27a9.83 9.83 0 01-6.44 3.82z" fill="#353535"/></svg>