<svg xmlns="http://www.w3.org/2000/svg" width="218.6" height="218.6"><path d="M130.7 141.5l-53.6-11.2a12.5 12.5 0 01-.7 1.2l48.8 71.2 3-3 8.2-51.6a9.8 9.8 0 01-5.7-6.6zm-19.5-70.1a11.1 11.1 0 01-11.2 5l-24.5 38.2 65.3-28.1v-.8a9.6 9.6 0 01.1-1.6l-29.7-12.7zm1.7-7L144.6 78a9.8 9.8 0 013.4-1.7l5.2-32.3L133.4 24 111 59a11.1 11.1 0 011.8 5.4zm66.4 5.6L159.4 50l-4.3 26.8a10 10 0 012.9 2.2l21.3-9.1zm-47.6 64.4a9.7 9.7 0 017.7-5l5.7-35.5a9.8 9.8 0 01-1.2-1l-65.7 28.3a13 13 0 01.3 2.1l53.2 11.1zm53-59l-23 9.9 56.7 24.2.2-.2-34-34zm-41.1 72.9l-6.9 42.9 40.1-40.1-28.9-6a9.7 9.7 0 01-4.3 3.2zm-78-11a12.9 12.9 0 01-4-.8l-13.4 20.9-5.2-5.2 12.7-19.7a13.7 13.7 0 01-1-1.2L32 141l-5.4-5.4 25-10.8-45.2-9.4-6.2-6.2 2-2 52.1 11a12.8 12.8 0 012.3-3.2L31.2 78.2l5.1-5.1 26.5 38.6a12.6 12.6 0 016 0L93.7 73a11.2 11.2 0 01-2.8-10.3L60 49.5l5.5-5.4 29.2 12.5a11.2 11.2 0 0110.8-2L128.2 19 109.3 0 0 109.3l109.3 109.3 10.8-10.8-49.2-71.7a12.9 12.9 0 01-5.2 1.1zm86.5-41.8l-5.8 36a9.7 9.7 0 013.6 6.7l33 6.9 30-30.2-54.4-23.3a9.8 9.8 0 01-6.4 3.9z" fill="#cbcbcb"/></svg>