<svg xmlns="http://www.w3.org/2000/svg" width="218.592" height="218.595" viewBox="0 0 218.592 218.595"><path d="M130.723,141.469l-53.61-11.2a12.493,12.493,0,0,1-.748,1.26l48.8,71.194,2.944-2.941,8.3-51.633a9.784,9.784,0,0,1-5.694-6.677ZM111.166,71.388a11.115,11.115,0,0,1-11.2,4.966L75.514,114.609,140.834,86.5c-.02-.263-.079-.509-.079-.779a9.621,9.621,0,0,1,.164-1.609L111.166,71.388Zm1.776-6.971L144.591,77.95a9.774,9.774,0,0,1,3.4-1.715l5.2-32.345L133.37,24.073l-22.307,34.9a11.111,11.111,0,0,1,1.879,5.441Zm66.316,5.543L159.4,50.1,155.08,76.915a9.929,9.929,0,0,1,2.9,2.206l21.279-9.16ZM131.673,134.4a9.7,9.7,0,0,1,7.761-4.99l5.7-35.477a9.821,9.821,0,0,1-1.24-1.018L78.2,121.194a13,13,0,0,1,.338,2.114l53.132,11.1Zm53-59.031-22.979,9.888,56.7,24.24.2-.2L184.668,75.374ZM143.6,148.252,136.7,191.189l40.1-40.1-28.885-6.032a9.705,9.705,0,0,1-4.31,3.2ZM65.657,137.213a12.886,12.886,0,0,1-4.143-.69L48.193,157.368l-5.147-5.144,12.617-19.742a13.722,13.722,0,0,1-.871-1.209l-22.857,9.841L26.518,135.7l25.019-10.769-45.232-9.44L.12,109.3l1.957-1.957,52.159,10.889a12.792,12.792,0,0,1,2.278-3.088L31.2,78.216,36.311,73.1l26.45,38.582a12.568,12.568,0,0,1,6.131.085L93.641,73.045A11.158,11.158,0,0,1,90.81,62.686l-30.877-13.2,5.417-5.417L94.6,56.579a11.2,11.2,0,0,1,10.8-1.937l22.819-35.713L109.3,0,0,109.3,109.3,218.6l10.755-10.755-49.17-71.734a12.894,12.894,0,0,1-5.226,1.107Zm86.438-41.745-5.8,36.064a9.7,9.7,0,0,1,3.583,6.671l32.936,6.875,30.16-30.16L158.533,91.646a9.827,9.827,0,0,1-6.438,3.822Z" fill="#cbcbcb"/></svg>