<svg xmlns="http://www.w3.org/2000/svg" xmlns:xlink="http://www.w3.org/1999/xlink" width="1920" height="1080" viewBox="0 0 1920 1080"><defs><clipPath id="a"><rect width="1920" height="1080" fill="#fff" stroke="#707070" stroke-width="1"/></clipPath><clipPath id="b"><rect width="2203" height="794" transform="translate(0 0.464)" fill="#fff"/></clipPath><linearGradient id="c" x1="0.506" y1="0.228" x2="0.407" y2="0.546" gradientUnits="objectBoundingBox"><stop offset="0" stop-color="#270c66"/><stop offset="1" stop-color="#140635"/></linearGradient><linearGradient id="d" x1="0.622" y1="0.788" x2="0.052" y2="0.522" gradientUnits="objectBoundingBox"><stop offset="0" stop-color="#fc7a4b"/><stop offset="0.49" stop-color="#ab0d5e"/><stop offset="1" stop-color="#790054"/></linearGradient><linearGradient id="e" x1="0.878" y1="1.125" x2="0.051" y2="0.26" xlink:href="#d"/><linearGradient id="f" x1="0.778" y1="0.863" x2="-0.017" y2="-0.093" xlink:href="#d"/><linearGradient id="g" x1="0.897" y1="1" x2="-0.07" y2="0.045" xlink:href="#d"/><linearGradient id="h" x1="1" y1="0.5" x2="0" y2="0.5" gradientUnits="objectBoundingBox"><stop offset="0" stop-color="#ffffc2"/><stop offset="1" stop-color="#142c6f"/></linearGradient><linearGradient id="i" y1="0.5" x2="0" y2="0.5" xlink:href="#h"/><linearGradient id="j" x1="0.914" y1="1.022" x2="-0.14" y2="0.007" xlink:href="#h"/><linearGradient id="k" x1="1.035" y1="1.182" x2="-0.239" y2="-0.314" xlink:href="#h"/><clipPath id="l"><path d="M6.6,94.8V876.327H2204.18c-220.316-32.571-231.773-146.289-365.431-204.466-119.852-52.34-275.248-4.33-461.489-88.677h0a575.785,575.785,0,0,1-65.8-35.019c-275.836-168.317-626.579-75.5-819.282-144.971a342.371,342.371,0,0,1-70.8-35.584l-1.762-1.13C277.442,273.472,197.834,96.683,6.6,94.8Z" transform="translate(-6.6 -94.8)" fill="none"/></clipPath></defs><g clip-path="url(#a)"><g transform="translate(0 -159.278)"><rect width="2203" height="1239" transform="translate(0 0.278)" fill="#140635"/><g transform="translate(0 444.815)" clip-path="url(#b)"><g transform="translate(-204.013 71.06)"><path d="M322.006,481.214c-155.4,78.7-304.036-37.843-347.806-17.7s103.4,125.2,103.4,125.2S198.629,629.951,237.111,603.4s98.114-65.331,99.583-80.017S322.006,481.214,322.006,481.214Z" transform="translate(2170.064 285.439)" fill="url(#c)"/><path d="M6.6,94.8V876.327H2204.18c-220.316-32.571-231.773-146.289-365.431-204.466-119.852-52.34-275.248-4.33-461.489-88.677h0a575.785,575.785,0,0,1-65.8-35.019c-275.836-168.317-626.579-75.5-819.282-144.971a342.371,342.371,0,0,1-70.8-35.584l-1.762-1.13C277.442,273.472,197.834,96.683,6.6,94.8Z" transform="translate(183.607 -37.941)" fill="url(#d)"/><path d="M6.6,94.8V513.522c119.264,66.461,298.455,119.743,505.846,120.684,312.849,1.13,663.592,106.752,712.355,242.121H2204.18c-220.316-32.571-231.773-146.289-365.431-204.466-119.852-52.34-275.248-4.33-461.489-88.677h0a575.785,575.785,0,0,1-65.8-35.019c-275.836-168.317-626.579-75.5-819.282-144.971a342.371,342.371,0,0,1-70.8-35.584l-1.762-1.13C277.442,273.472,197.834,96.683,6.6,94.8Z" transform="translate(183.607 -37.941)" fill="url(#e)"/><path d="M6.6,239.7C207.822,374.693,458.1,553.93,812.663,593.091c222.079,24.664,337.818,101.292,393.631,155.326h583.1c-220.316-32.571-231.773-146.289-365.431-204.466-119.852-52.34-275.248-4.33-461.489-88.677h0a575.776,575.776,0,0,1-65.8-35.019C749.8,330.636,581.478,315.01,427.257,309.55h0c-61.395-2.259-120.439-2.824-175.078-5.648-65.8-3.765-125.433-10.92-174.784-28.618A342.37,342.37,0,0,1,6.6,239.7Z" transform="translate(598.389 89.969)" fill="url(#f)"/><path d="M6.6,354.2c125.14,66.837,188,235.908,452.089,293.143H833.52C613.2,614.772,601.747,501.054,468.089,442.877c-60.807-26.547-131.015-27.3-210.035-32.571-42.007-2.824-86.364-6.966-133.071-17.133H124.4c-42-9.268-81.681-22.4-117.8-38.973Z" transform="translate(1554.267 191.043)" fill="url(#g)"/><path d="M21.4,374.9c197.109,44.809,147.759,198.253,468.539,254.17,9.106,1.694,18.8,3.2,28.788,4.707,48.176,3.577,167.734,0,167.734,0-10.937-1.058-21.737-2.631-32.313-4.707-178.309-33.137-274.954-184.7-499.677-237.038C112.464,389.209,68.107,385.067,21.4,374.9Z" transform="translate(1657.85 209.316)" fill="url(#h)" style="mix-blend-mode:soft-light;isolation:isolate"/><path d="M142.7,273.8c289.055,20.522,242.642,159.092,529.053,222.917,246.754,54.976,410.375,163.234,462.957,221.6a91.172,91.172,0,0,1,16.744,23.911l128.665-4.9c-14.688-2.824-32.313-9.6-52.582-19.016-131.6-61.566-338.112-244-509.958-323.267-127.49-58.93-237.06-98.091-399.8-115.6h0C256.383,277.189,197.338,276.624,142.7,273.8Z" transform="translate(707.868 120.07)" fill="url(#i)" style="mix-blend-mode:soft-light;isolation:isolate"/><path d="M1774.4,896.821c-2.347-68.867-145.508-122.289-219.142-134.464s-133.48-28.892-235.277-53.6S687.2,538.494,567.8,378.409s-93.509-161.22-173.084-239.672S249.5,64.6,249.5,64.6V221.959c157.536,14.9,136.121,175.348,382.546,293.64,166.337,79.77,508.1,141.914,691.163,203.513s341.181,98.667,305.978,168.262Z" transform="translate(-102.145 -20.525)" fill="url(#j)" style="mix-blend-mode:soft-light;isolation:isolate"/><path d="M1470.886,668.518C1408.61,353.723,551.14,568.92,402.5,357.3,450.088,724.435,1174.194,470.265,1470.886,668.518Z" transform="translate(-243.137 193.779)" fill="url(#k)" style="mix-blend-mode:soft-light;isolation:isolate"/><g transform="translate(190.207 56.859)" clip-path="url(#l)"><g transform="translate(-45.238 424.182)" opacity="0.3"><path d="M1567.55,691.754c2.056-23.346-20.269-52.34-63.157-81.9-106.046-73.239-334.587-148.36-605.722-151C678.061,456.787,457.745,399.74,363.156,320.1l-4.7,2.259c49.057,41.42,128.958,76.816,231.185,102.045,94.883,23.723,204.747,37.278,309.03,38.22,269.373,2.636,496.152,77,601.61,149.678,41.713,28.806,63.451,56.859,61.4,79.263Z" transform="translate(-358.456 -320.1)" fill="#fff"/></g><g transform="translate(-26.438 156.644)" opacity="0.3"><path d="M1638.83,827.17c19.682-77.757-185.359-158.527-361.025-212.75-42.007-12.8-111.333-29.747-191.822-49.516C920.6,524.425,714.678,473.967,630.958,430.1c-60.22-31.442-120.733-91.313-174.2-144.218C398.3,228.081,348.072,178.377,311.352,178v3.765c33.488.188,85.483,51.587,140.415,106s114.564,113.341,175.372,145.16c84.6,44.244,291.111,94.89,456.789,135.558,80.2,19.581,149.521,36.525,191.234,49.328,173.9,53.658,376.887,133.3,357.793,208.8Z" transform="translate(-311.352 -178)" fill="#fff"/></g><g transform="translate(309.911 144.03)" opacity="0.3"><path d="M1458.036,832.9c4.406-48.387-45.826-91.69-149.815-128.78s-234.123-56.106-270.548-60.624c-70.5-8.661-246.46-52.905-419.776-134.428C473.663,441.1,290.654,327.379,237.191,171.3l-5.581.753c53.757,157.4,237.941,271.68,382.762,340.024,173.9,81.9,351.331,126.52,422.126,135.181,158.921,19.769,425.357,80.958,415.663,185.45Z" transform="translate(-231.609 -171.3)" fill="#fff"/></g><g transform="translate(722.049 329.104)" opacity="0.3"><path d="M1157.241,760.62l5.581-1.318c-44.419-69.9-118.377-130.47-213.56-174.907-62.276-28.806-132.777-50.269-201.222-70.791s-141.59-42.926-204.159-72.486c-40.245-19.016-76.964-41.42-112.8-62.884-19.094-11.673-39.069-23.911-59.339-35.207C326.209,317.422,256.3,281.838,172.869,269.6l-1.469,3.577c82.251,12.238,151.578,47.257,196.522,72.674,19.975,11.3,39.951,23.346,59.339,35.019,35.544,21.652,72.558,44.056,113.1,63.26,63.157,29.747,135.421,51.587,205.335,72.862s138.359,41.8,200.047,70.415C1040.081,631.361,1113.346,691.362,1157.241,760.62Z" transform="translate(-171.4 -269.6)" fill="#fff"/></g><g transform="translate(1442.924 506.646)" opacity="0.3"><path d="M660.8,664.763h17.919V661C411.4,665.892,300.067,557.446,210.471,470.463c-51.7-50.269-96.058-93.572-159.509-106.563L49.2,367.477c61.395,12.614,105.458,55.541,156.278,105.057C293.9,558.387,403.175,664.763,660.8,664.763Z" transform="translate(-49.2 -363.9)" fill="#fff"/></g></g><path d="M1780.378,870.246c-37.307-131.227-296.105-231.954-685.036-280.152S987.24,172.313,743.717,100.015c-70.207-20.71-133.952-22.97-189.178-15.627C392.68,105.852,293.1,210.532,331.873,313.518S518.7,557.71,996.346,633.4c826.92,131.227,358.675,264.9,140.415,255.488Z" transform="translate(-384.5 -23.499)" fill="#fff" opacity="0.1"/><path d="M923.777,728.472c-58.751-146.666-608.66-229.318-809.588-298.6s-158.04-182.25,86.07-136.5S828.894,721.694,1146.149,734.5,804.219,619.461,715.5,470.16s247.342-124.638,347.806,38.784,96.645,182.25,202.4,215.574-31.432-37.843,41.126-83.97,358.087-16.38,244.7,94.7S923.777,728.472,923.777,728.472Z" transform="translate(873.982 196.988)" fill="#fff" opacity="0.1"/></g></g></g></g></svg>