<svg xmlns="http://www.w3.org/2000/svg" xmlns:xlink="http://www.w3.org/1999/xlink" width="1920" height="1000"><defs><linearGradient id="a" x1=".4" y1=".2" x2=".9" y2=".5" gradientUnits="objectBoundingBox"><stop offset="0" stop-color="#fc7a4b"/><stop offset=".5" stop-color="#ab0d5e"/><stop offset="1" stop-color="#790054"/></linearGradient><linearGradient id="e" x1=".1" y1="-.1" x2=".9" y2=".7" xlink:href="#a"/><linearGradient id="f" x1=".2" y1=".1" x2="1" y2="1.1" xlink:href="#a"/><linearGradient id="g" x1=".1" y1="0" x2="1.1" y2="1" xlink:href="#a"/><linearGradient id="b" y1=".5" x2="1" y2=".5" gradientUnits="objectBoundingBox"><stop offset="0" stop-color="#ffffc2"/><stop offset="1" stop-color="#142c6f"/></linearGradient><linearGradient id="h" y1=".5" x2="1" y2=".5" xlink:href="#b"/><linearGradient id="i" x1=".1" y1="0" x2="1.1" y2="1" xlink:href="#b"/><linearGradient id="j" x1="0" y1="-.2" x2="1.2" y2="1.3" xlink:href="#b"/><linearGradient id="l" x1=".6" y1=".8" x2=".1" y2=".5" xlink:href="#a"/><linearGradient id="m" x1=".9" y1="1.1" x2=".1" y2=".3" xlink:href="#a"/><linearGradient id="n" x1=".8" y1=".9" x2="0" y2="-.1" xlink:href="#a"/><linearGradient id="o" x1=".9" y1="1" x2="-.1" y2="0" xlink:href="#a"/><linearGradient id="p" x1="1" y1=".5" x2="0" y2=".5" xlink:href="#b"/><linearGradient id="q" x1="1" y1=".5" x2="0" y2=".5" xlink:href="#b"/><linearGradient id="r" x1=".9" y1="1" x2="-.1" y2="0" xlink:href="#b"/><linearGradient id="s" x1="1" y1="1.2" x2="-.2" y2="-.3" xlink:href="#b"/><clipPath id="c"><path data-name="Rechteck 17858" transform="translate(-11399 5969)" fill="#0f0f0f" d="M0 0h1920v1000H0z"/></clipPath><clipPath id="d"><path data-name="Rechteck 17731" fill="#fff" d="M0 0h2203v1239H0z"/></clipPath><clipPath id="k"><path data-name="Pfad 335" d="M2204 1314V95H7c220 51 231 228 365 319 120 81 275 7 462 138a558 558 0 0165 55c276 262 627 118 820 226a322 322 0 0170 56l2 1c142 145 222 421 413 424z" transform="translate(-7 -95)" fill="none"/></clipPath><clipPath id="t"><path data-name="Pfad 315" d="M7 95v781h2197c-220-32-232-146-365-204-120-52-275-4-462-89a576 576 0 01-66-35c-275-168-626-75-819-145a342 342 0 01-71-35l-1-2C277 273 198 97 7 95z" transform="translate(-7 -95)" fill="none"/></clipPath></defs><g data-name="Gruppe 160"><path data-name="Rechteck 17859" fill="#0f0f0f" d="M0 0h1920v1000H0z"/><g data-name="Gruppe maskieren 63" transform="translate(11399 -5969)" clip-path="url(#c)"><g data-name="Gruppe 159"><g data-name="Gruppe maskieren 53" transform="translate(-11658 7161)" clip-path="url(#d)"><g data-name="Gruppe 135"><path data-name="Pfad 322" d="M2204 1314V95H7c220 51 231 228 365 319 120 81 275 7 462 138a558 558 0 0165 55c276 262 627 118 820 226a322 322 0 0170 56l2 1c142 145 222 421 413 424z" transform="translate(13 -274)" fill="url(#a)"/><path data-name="Pfad 323" d="M2204 1314V661a788 788 0 00-506-188c-313-2-663-167-712-378H7c220 51 231 228 365 319 120 81 275 7 462 138a558 558 0 0165 55c276 262 627 118 820 226a322 322 0 0170 56l2 1c142 145 222 421 413 424z" transform="translate(13 -274)" fill="url(#e)"/><path data-name="Pfad 324" d="M1789 1033c-201-210-451-490-806-551a569 569 0 01-393-242H7c220 51 231 228 365 319 120 81 275 6 462 138a558 558 0 0165 55c147 140 316 164 470 172 61 4 120 5 175 9 66 6 125 17 175 45a322 322 0 0170 55z" transform="translate(13 -419)" fill="url(#f)"/><path data-name="Pfad 325" d="M834 812C708 707 646 444 381 354H7c220 51 231 228 365 319 61 42 131 43 210 51 42 4 86 11 133 27h1a459 459 0 01118 61z" transform="translate(13 -534)" fill="url(#g)"/><path data-name="Pfad 326" d="M686 781c-197-70-147-309-468-396l-29-8c-48-5-168 0-168 0a225 225 0 0133 8c178 51 275 288 499 370 42 4 87 10 133 26z" transform="translate(41 -564)" fill="url(#b)" style="mix-blend-mode:soft-light;isolation:isolate"/><path data-name="Pfad 327" d="M1280 1005c-289-32-243-249-529-348a912 912 0 01-463-346 160 160 0 01-17-37l-128 7c14 5 32 15 52 30 132 96 338 381 510 504a887 887 0 00400 181c61 3 120 4 175 9z" transform="translate(276 -491)" fill="url(#h)" style="mix-blend-mode:soft-light;isolation:isolate"/><path data-name="Pfad 328" d="M250 65c2 111 145 197 219 217s134 47 236 87 633 275 753 534 51 175 173 387c8 5 145 120 145 120v-254c-157-24-136-284-383-475-166-129-508-230-692-329S360 192 395 80z" transform="translate(483 -281)" fill="url(#i)" style="mix-blend-mode:soft-light;isolation:isolate"/><path data-name="Pfad 329" d="M403 357c62 491 919 156 1068 486-48-573-772-176-1068-486z" transform="translate(777 -574)" fill="url(#j)" style="mix-blend-mode:soft-light;isolation:isolate"/><g data-name="Gruppe 134" transform="translate(19 -179)" clip-path="url(#k)"><g data-name="Gruppe 129"><path data-name="Pfad 330" d="M1034-22c-2 36 20 81 63 127 106 115 334 232 606 236 220 3 441 92 535 217l5-4a522 522 0 00-231-159c-95-37-205-58-309-60-270-4-497-120-602-233-42-45-63-89-61-124z" fill="#fff" opacity=".3"/></g><g data-name="Gruppe 130"><path data-name="Pfad 331" d="M897-38c-20 121 185 247 361 332 42 20 111 46 191 77 166 63 372 142 455 211 61 49 121 142 175 225 58 90 108 167 145 168v-6c-33 0-85-80-140-165s-115-177-176-227c-84-69-291-148-457-211-80-31-149-57-191-77-174-84-377-208-358-326z" fill="#fff" opacity=".3"/></g><g data-name="Gruppe 131"><path data-name="Pfad 332" d="M661-38c-4 76 46 143 150 201s234 88 271 95c70 13 246 82 419 210 145 106 328 283 381 527l6-2c-54-245-238-423-383-530a1265 1265 0 00-422-211C924 221 657 126 667-37z" fill="#fff" opacity=".3"/></g><g data-name="Gruppe 132"><path data-name="Pfad 333" d="M490-60l-6 2a633 633 0 00214 273c62 45 132 78 201 110s141 67 204 113c40 30 77 65 113 98 19 19 39 38 59 55 46 40 116 96 199 115l2-6c-83-19-152-73-197-113l-59-55c-36-33-73-68-113-98-64-47-136-81-206-114s-138-65-200-110A625 625 0 01490-60z" fill="#fff" opacity=".3"/></g><g data-name="Gruppe 133"><path data-name="Pfad 334" d="M143-41h-18v6c267-7 379 162 468 298 52 78 96 146 160 166l2-6c-62-19-106-86-157-164C510 125 401-41 143-41z" fill="#fff" opacity=".3"/></g></g><path data-name="Pfad 336" d="M950-150c37 204 296 362 685 437s108 652 352 764c70 33 134 36 189 25 162-34 261-197 223-358s-187-381-665-499c-827-205-359-413-140-398z" fill="#fff" opacity=".1"/><path data-name="Pfad 337" d="M615-208c59 229 609 358 810 466s158 285-86 213-629-668-946-688S735-38 824 195s-248 195-348-60-97-284-203-336 32 59-41 131-358 25-245-148 628 10 628 10z" fill="#fff" opacity=".1"/></g></g><g data-name="Gruppe 128"><path data-name="Pfad 302" d="M7 95v781h2197c-220-32-232-146-365-204-120-52-275-4-462-89a576 576 0 01-66-35c-275-168-626-75-819-145a342 342 0 01-71-35l-1-2C277 273 198 97 7 95z" transform="translate(-11404 6286)" fill="url(#l)"/><path data-name="Pfad 303" d="M7 95v419c119 66 298 119 505 120 313 1 664 107 713 242h979c-220-32-232-146-365-204-120-52-275-4-462-89a576 576 0 01-66-35c-275-168-626-75-819-145a342 342 0 01-71-35l-1-2C277 273 198 97 7 95z" transform="translate(-11404 6286)" fill="url(#m)"/><path data-name="Pfad 304" d="M7 240c201 135 451 314 806 353 222 25 337 101 393 155h583c-220-32-231-146-365-204-120-52-275-4-462-89a576 576 0 01-65-35c-147-89-316-105-470-110-61-3-120-3-175-6-66-4-125-11-175-29a342 342 0 01-70-35z" transform="translate(-10990 6414)" fill="url(#n)"/><path data-name="Pfad 305" d="M7 354c125 67 188 236 452 293h375c-221-32-232-146-366-204-61-27-131-27-210-33-42-3-86-7-133-17h-1c-42-9-81-22-117-39z" transform="translate(-10034 6515)" fill="url(#o)"/><path data-name="Pfad 306" d="M21 375c198 45 148 198 469 254l29 5c48 3 167 0 167 0l-32-5c-178-33-275-185-500-237-42-3-86-7-133-17z" transform="translate(-9930 6533)" fill="url(#p)" style="mix-blend-mode:soft-light;isolation:isolate"/><path data-name="Pfad 307" d="M143 274c289 20 242 159 529 223 247 55 410 163 463 221a91 91 0 0116 24l129-5c-15-2-32-9-52-19-132-61-339-244-510-323-128-59-237-98-400-116-62-2-121-2-175-5z" transform="translate(-10880 6444)" fill="url(#q)" style="mix-blend-mode:soft-light;isolation:isolate"/><path data-name="Pfad 308" d="M1774 897c-2-69-145-122-219-135s-133-29-235-53-633-171-752-331-94-161-173-239-145-74-145-74v157c157 15 136 175 382 294 166 79 508 142 691 203s341 99 306 168z" transform="translate(-11690 6303)" fill="url(#r)" style="mix-blend-mode:soft-light;isolation:isolate"/><path data-name="Pfad 309" d="M1471 669c-62-315-920-100-1068-312 47 367 771 113 1068 312z" transform="translate(-11831 6517)" fill="url(#s)" style="mix-blend-mode:soft-light;isolation:isolate"/><g data-name="Gruppe 127" transform="translate(-11398 6380)" clip-path="url(#t)"><g data-name="Gruppe 122"><path data-name="Pfad 310" d="M1164 796c2-24-20-53-63-82-106-73-335-148-606-151-221-2-441-59-536-139l-4 2c49 42 129 77 231 102 95 24 205 38 309 39 269 2 496 77 602 149 41 29 63 57 61 80z" fill="#fff" opacity=".3"/></g><g data-name="Gruppe 123"><path data-name="Pfad 311" d="M1301 806c20-78-185-159-361-213-42-13-111-30-192-49-165-41-371-91-455-135-60-32-121-92-174-144C61 207 10 157-26 157v3c33 1 85 52 140 106s115 114 175 146c85 44 291 94 457 135 80 20 150 37 191 49 174 54 377 134 358 209z" fill="#fff" opacity=".3"/></g><g data-name="Gruppe 124"><path data-name="Pfad 312" d="M1536 806c5-49-45-92-149-129s-235-56-271-61c-71-8-246-53-420-134-144-68-327-182-381-338l-5 1c54 157 238 271 383 340 174 82 351 126 422 135 159 20 425 81 415 185z" fill="#fff" opacity=".3"/></g><g data-name="Gruppe 125"><path data-name="Pfad 313" d="M1708 820l5-1a498 498 0 00-213-175c-62-29-133-50-201-71s-142-43-204-72c-41-19-77-42-113-63-19-12-39-24-60-35-45-26-115-62-198-74l-2 4c82 12 152 47 197 72l59 35c35 22 72 44 113 64 63 29 135 51 205 72s139 42 200 71c95 44 168 104 212 173z" fill="#fff" opacity=".3"/></g><g data-name="Gruppe 126"><path data-name="Pfad 314" d="M2055 808h17v-4c-267 5-378-104-468-191-52-50-96-93-159-106l-2 3c61 13 105 56 156 105 89 86 198 193 456 193z" fill="#fff" opacity=".3"/></g></g><path data-name="Pfad 316" d="M-10192 7170c-37-131-296-232-685-280s-108-418-352-490c-70-21-134-23-189-16-162 22-261 127-223 230s187 244 665 319c827 132 359 265 140 256z" fill="#fff" opacity=".1"/><path data-name="Pfad 317" d="M-9790 7249c-59-147-609-229-810-299s-158-182 86-136 629 428 946 441-342-115-431-264 248-125 348 39 97 182 203 215-32-38 41-84 358-16 245 95-628-7-628-7z" fill="#fff" opacity=".1"/></g></g></g></g></svg>