<svg xmlns="http://www.w3.org/2000/svg" xmlns:xlink="http://www.w3.org/1999/xlink" width="1920" height="1000" viewBox="0 0 1920 1000">
  <defs>
    <clipPath id="clip-path">
      <rect id="Rechteck_17858" data-name="Rechteck 17858" width="1920" height="1000" transform="translate(-11399 5969)" fill="#0f0f0f"/>
    </clipPath>
    <clipPath id="clip-path-2">
      <rect id="Rechteck_17731" data-name="Rechteck 17731" width="2203" height="1239" fill="#fff"/>
    </clipPath>
    <linearGradient id="linear-gradient" x1="0.378" y1="0.212" x2="0.948" y2="0.478" gradientUnits="objectBoundingBox">
      <stop offset="0" stop-color="#fc7a4b"/>
      <stop offset="0.49" stop-color="#ab0d5e"/>
      <stop offset="1" stop-color="#790054"/>
    </linearGradient>
    <linearGradient id="linear-gradient-2" x1="0.122" y1="-0.125" x2="0.949" y2="0.74" xlink:href="#linear-gradient"/>
    <linearGradient id="linear-gradient-3" x1="0.222" y1="0.137" x2="1.017" y2="1.093" xlink:href="#linear-gradient"/>
    <linearGradient id="linear-gradient-4" x1="0.103" y1="0" x2="1.07" y2="0.955" xlink:href="#linear-gradient"/>
    <linearGradient id="linear-gradient-5" y1="0.5" x2="1" y2="0.5" gradientUnits="objectBoundingBox">
      <stop offset="0" stop-color="#ffffc2"/>
      <stop offset="1" stop-color="#142c6f"/>
    </linearGradient>
    <linearGradient id="linear-gradient-6" y1="0.5" x2="1" y2="0.5" xlink:href="#linear-gradient-5"/>
    <linearGradient id="linear-gradient-7" x1="0.086" y1="-0.022" x2="1.14" y2="0.993" xlink:href="#linear-gradient-5"/>
    <linearGradient id="linear-gradient-8" x1="-0.035" y1="-0.182" x2="1.239" y2="1.314" xlink:href="#linear-gradient-5"/>
    <clipPath id="clip-path-3">
      <path id="Pfad_335" data-name="Pfad 335" d="M2204.18,1314.176V94.8H6.6c220.316,50.82,231.773,228.247,365.431,319.018,119.852,81.664,275.248,6.756,461.489,138.359h0a557.856,557.856,0,0,1,65.8,54.638C1175.156,869.431,1525.9,724.61,1718.6,833.006a321.956,321.956,0,0,1,70.8,55.52l1.762,1.763C1933.338,1035.4,2012.945,1311.239,2204.18,1314.176Z" transform="translate(-6.6 -94.8)" fill="none"/>
    </clipPath>
    <linearGradient id="linear-gradient-9" x1="0.622" y1="0.788" x2="0.052" y2="0.522" xlink:href="#linear-gradient"/>
    <linearGradient id="linear-gradient-10" x1="0.878" y1="1.125" x2="0.051" y2="0.26" xlink:href="#linear-gradient"/>
    <linearGradient id="linear-gradient-11" x1="0.778" y1="0.863" x2="-0.017" y2="-0.093" xlink:href="#linear-gradient"/>
    <linearGradient id="linear-gradient-12" x1="0.897" y1="1" x2="-0.07" y2="0.045" xlink:href="#linear-gradient"/>
    <linearGradient id="linear-gradient-13" x1="1" y1="0.5" x2="0" y2="0.5" xlink:href="#linear-gradient-5"/>
    <linearGradient id="linear-gradient-14" x1="1" y1="0.5" x2="0" y2="0.5" xlink:href="#linear-gradient-5"/>
    <linearGradient id="linear-gradient-15" x1="0.914" y1="1.022" x2="-0.14" y2="0.007" xlink:href="#linear-gradient-5"/>
    <linearGradient id="linear-gradient-16" x1="1.035" y1="1.182" x2="-0.239" y2="-0.314" xlink:href="#linear-gradient-5"/>
    <clipPath id="clip-path-4">
      <path id="Pfad_315" data-name="Pfad 315" d="M6.6,94.8V876.327H2204.18c-220.316-32.571-231.773-146.289-365.431-204.466-119.852-52.34-275.248-4.33-461.489-88.677h0a575.785,575.785,0,0,1-65.8-35.019c-275.836-168.317-626.579-75.5-819.282-144.971a342.371,342.371,0,0,1-70.8-35.584l-1.762-1.13C277.442,273.472,197.834,96.683,6.6,94.8Z" transform="translate(-6.6 -94.8)" fill="none"/>
    </clipPath>
  </defs>
  <g id="Gruppe_160" data-name="Gruppe 160" transform="translate(9239 -5969)">
    <rect id="Rechteck_17859" data-name="Rechteck 17859" width="1920" height="1000" transform="translate(-9239 5969)" fill="#0f0f0f"/>
    <g id="Gruppe_maskieren_63" data-name="Gruppe maskieren 63" transform="translate(2160)" clip-path="url(#clip-path)">
      <g id="Gruppe_159" data-name="Gruppe 159" transform="translate(-2541)">
        <g id="Gruppe_maskieren_53" data-name="Gruppe maskieren 53" transform="translate(-9117 7161)" clip-path="url(#clip-path-2)">
          <g id="Gruppe_135" data-name="Gruppe 135" transform="translate(-99.839 -292.557)">
            <path id="Pfad_322" data-name="Pfad 322" d="M2204.18,1314.176V94.8H6.6c220.316,50.82,231.773,228.247,365.431,319.018,119.852,81.664,275.248,6.756,461.489,138.359h0a557.856,557.856,0,0,1,65.8,54.638C1175.156,869.431,1525.9,724.61,1718.6,833.006a321.956,321.956,0,0,1,70.8,55.52l1.762,1.763C1933.338,1035.4,2012.945,1311.239,2204.18,1314.176Z" transform="translate(112.465 18.356)" fill="url(#linear-gradient)"/>
            <path id="Pfad_323" data-name="Pfad 323" d="M2204.18,1314.176V660.865c-119.264-103.7-298.455-186.828-505.846-188.3C1385.485,470.806,1034.742,306.01,985.979,94.8H6.6c220.316,50.82,231.773,228.247,365.431,319.018,119.852,81.664,275.248,6.756,461.489,138.359h0a557.856,557.856,0,0,1,65.8,54.638C1175.156,869.431,1525.9,724.61,1718.6,833.006a321.956,321.956,0,0,1,70.8,55.52l1.762,1.763C1933.338,1035.4,2012.945,1311.239,2204.18,1314.176Z" transform="translate(112.465 18.356)" fill="url(#linear-gradient-2)"/>
            <path id="Pfad_324" data-name="Pfad 324" d="M1789.4,1033.425C1588.176,822.8,1337.9,543.149,983.335,482.048,761.256,443.566,645.517,324.008,589.7,239.7H6.6c220.316,50.82,231.773,228.247,365.431,319.018,119.852,81.664,275.248,6.756,461.489,138.358h0a557.847,557.847,0,0,1,65.8,54.638c146.877,139.827,315.2,164.209,469.42,172.728h0c61.395,3.525,120.439,4.406,175.078,8.813,65.8,5.875,125.433,17.038,174.784,44.651a321.952,321.952,0,0,1,70.8,55.52Z" transform="translate(112.465 -126.544)" fill="url(#linear-gradient-3)"/>
            <path id="Pfad_325" data-name="Pfad 325" d="M833.52,811.576C708.38,707.293,645.517,443.5,381.431,354.2H6.6c220.316,50.82,231.773,228.247,365.431,319.018,60.807,41.42,131.015,42.594,210.035,50.82,42.007,4.406,86.364,10.869,133.071,26.732h.588a458.838,458.838,0,0,1,117.8,60.807Z" transform="translate(112.465 -241.045)" fill="url(#linear-gradient-4)"/>
            <path id="Pfad_326" data-name="Pfad 326" d="M686.461,781.294C489.351,711.38,538.7,471.97,217.922,384.724c-9.106-2.644-18.8-4.994-28.788-7.344-48.176-5.581-167.734,0-167.734,0a224.991,224.991,0,0,1,32.313,7.344C232.022,436.425,328.667,672.9,553.39,754.562,595.4,758.968,639.754,765.431,686.461,781.294Z" transform="translate(141.141 -271.569)" fill="url(#linear-gradient-5)" style="mix-blend-mode: soft-light;isolation: isolate"/>
            <path id="Pfad_327" data-name="Pfad 327" d="M1280.119,1004.662c-289.055-32.019-242.642-248.223-529.053-347.806C504.312,571.08,340.691,402.171,288.109,311.107A160.383,160.383,0,0,1,271.365,273.8L142.7,281.438c14.688,4.406,32.313,14.981,52.582,29.669,131.6,96.058,338.112,380.706,509.958,504.377,127.49,91.945,237.06,153.046,399.8,180.365h0C1166.436,999.374,1225.48,1000.256,1280.119,1004.662Z" transform="translate(376.165 -197.951)" fill="url(#linear-gradient-6)" style="mix-blend-mode: soft-light;isolation: isolate"/>
            <path id="Pfad_328" data-name="Pfad 328" d="M249.5,64.6c2.35,111.333,145.7,197.7,219.435,217.379s133.658,46.707,235.591,86.658,633.629,275.248,753.187,534.046,51.113,175.665,173.315,387.463c7.931,4.7,145.409,119.852,145.409,119.852V1155.605c-157.747-24.088-136.3-283.473-383.056-474.708C1226.822,551.939,884.6,451.475,701.295,351.892S359.658,192.383,394.908,79.875Z" transform="translate(583.096 11.249)" fill="url(#linear-gradient-7)" style="mix-blend-mode: soft-light;isolation: isolate"/>
            <path id="Pfad_329" data-name="Pfad 329" d="M402.5,357.3c62.276,491.158,919.746,155.4,1068.386,485.577C1423.3,270.055,699.193,666.624,402.5,357.3Z" transform="translate(876.603 -281.451)" fill="url(#linear-gradient-8)" style="mix-blend-mode: soft-light;isolation: isolate"/>
            <g id="Gruppe_134" data-name="Gruppe 134" transform="translate(119.065 113.156)" clip-path="url(#clip-path-3)">
              <g id="Gruppe_129" data-name="Gruppe 129" transform="translate(1033.593 -22.325)" opacity="0.3">
                <path id="Pfad_330" data-name="Pfad 330" d="M358.586,320.1c-2.056,36.425,20.269,81.664,63.157,127.783,106.046,114.27,334.587,231.479,605.723,235.591,220.61,3.231,440.926,92.239,535.515,216.5l4.7-3.525c-49.057-64.626-128.958-119.852-231.185-159.215-94.883-37.013-204.747-58.163-309.03-59.632-269.373-4.113-496.152-120.146-601.61-233.535-41.713-44.944-63.451-88.714-61.4-123.671Z" transform="translate(-358.456 -320.1)" fill="#fff"/>
              </g>
              <g id="Gruppe_130" data-name="Gruppe 130" transform="translate(895.225 -37.894)" opacity="0.3">
                <path id="Pfad_331" data-name="Pfad 331" d="M312.667,178C292.986,299.321,498.027,425.341,673.692,509.943,715.7,529.918,785.025,556.356,865.514,587.2,1030.9,650.357,1236.82,729.084,1320.54,797.529c60.22,49.057,120.733,142.471,174.2,225.016,58.457,90.183,108.689,167.734,145.409,168.322v-5.875c-33.488-.294-85.483-80.489-140.415-165.384s-114.564-176.84-175.372-226.485c-84.6-69.032-291.111-148.052-456.789-211.5-80.2-30.55-149.521-56.988-191.234-76.964-173.9-83.72-376.887-207.978-357.793-325.774Z" transform="translate(-311.352 -178)" fill="#fff"/>
              </g>
              <g id="Gruppe_131" data-name="Gruppe 131" transform="translate(660.976 -37.601)" opacity="0.3">
                <path id="Pfad_332" data-name="Pfad 332" d="M231.876,171.3C227.469,246.8,277.7,314.359,381.691,372.228s234.123,87.539,270.548,94.589c70.5,13.513,246.46,82.545,419.776,209.741,144.234,106.045,327.243,283.473,380.706,527l5.581-1.175C1404.545,956.8,1220.361,778.491,1075.54,671.858c-173.9-127.783-351.331-197.4-422.126-210.916C494.493,430.1,228.057,334.628,237.751,171.594Z" transform="translate(-231.609 -171.3)" fill="#fff"/>
              </g>
              <g id="Gruppe_132" data-name="Gruppe 132" transform="translate(484.108 -60.22)" opacity="0.3">
                <path id="Pfad_333" data-name="Pfad 333" d="M176.981,269.6l-5.581,2.056a633.042,633.042,0,0,0,213.56,272.9c62.276,44.944,132.777,78.432,201.222,110.452s141.59,66.976,204.159,113.1c40.245,29.669,76.964,64.626,112.8,98.114,19.094,18.213,39.069,37.307,59.339,54.932,45.532,39.951,115.446,95.47,198.872,114.564l1.469-5.581c-82.251-19.094-151.578-73.732-196.522-113.389-19.975-17.625-39.951-36.426-59.339-54.638-35.544-33.782-72.558-68.739-113.1-98.7-63.157-46.413-135.421-80.489-205.335-113.683S450.173,584.5,388.485,539.854A624.821,624.821,0,0,1,176.981,269.6Z" transform="translate(-171.4 -269.6)" fill="#fff"/>
              </g>
              <g id="Gruppe_133" data-name="Gruppe 133" transform="translate(125.139 -40.538)" opacity="0.3">
                <path id="Pfad_334" data-name="Pfad 334" d="M67.119,363.9H49.2v5.875c267.317-7.637,378.65,161.565,468.245,297.28,51.7,78.432,96.058,146,159.509,166.265l1.763-5.581c-61.395-19.682-105.458-86.658-156.278-163.915C434.019,529.872,324.742,363.9,67.119,363.9Z" transform="translate(-49.2 -363.9)" fill="#fff"/>
              </g>
            </g>
            <path id="Pfad_336" data-name="Pfad 336" d="M323.5,110.389C360.807,315.136,619.605,472.295,1008.536,547.5s108.1,651.842,351.625,764.644c70.207,32.313,133.952,35.838,189.178,24.382,161.859-33.488,261.442-196.816,222.666-357.5s-186.828-381-664.474-499.089C280.612,275.185,748.857,66.619,967.117,81.307Z" transform="translate(726.474 31.848)" fill="#fff" opacity="0.1"/>
            <path id="Pfad_337" data-name="Pfad 337" d="M640.9,367.725c58.751,228.835,608.66,357.793,809.588,465.9s158.04,284.355-86.07,212.972S735.785,378.3,418.53,358.325,760.46,537.809,849.174,770.756,601.833,965.222,501.369,710.243s-96.645-284.355-202.4-336.349,31.432,59.045-41.126,131.015-358.087,25.557-244.7-147.759S640.9,367.725,640.9,367.725Z" transform="translate(74.191 -282.77)" fill="#fff" opacity="0.1"/>
          </g>
        </g>
        <g id="Gruppe_128" data-name="Gruppe 128" transform="translate(-9047.013 6323.596)">
          <path id="Pfad_302" data-name="Pfad 302" d="M6.6,94.8V876.327H2204.18c-220.316-32.571-231.773-146.289-365.431-204.466-119.852-52.34-275.248-4.33-461.489-88.677h0a575.785,575.785,0,0,1-65.8-35.019c-275.836-168.317-626.579-75.5-819.282-144.971a342.371,342.371,0,0,1-70.8-35.584l-1.762-1.13C277.442,273.472,197.834,96.683,6.6,94.8Z" transform="translate(183.607 -37.941)" fill="url(#linear-gradient-9)"/>
          <path id="Pfad_303" data-name="Pfad 303" d="M6.6,94.8V513.522c119.264,66.461,298.455,119.743,505.846,120.684,312.849,1.13,663.592,106.752,712.355,242.121H2204.18c-220.316-32.571-231.773-146.289-365.431-204.466-119.852-52.34-275.248-4.33-461.489-88.677h0a575.785,575.785,0,0,1-65.8-35.019c-275.836-168.317-626.579-75.5-819.282-144.971a342.371,342.371,0,0,1-70.8-35.584l-1.762-1.13C277.442,273.472,197.834,96.683,6.6,94.8Z" transform="translate(183.607 -37.941)" fill="url(#linear-gradient-10)"/>
          <path id="Pfad_304" data-name="Pfad 304" d="M6.6,239.7C207.822,374.693,458.1,553.93,812.663,593.091c222.079,24.664,337.818,101.292,393.631,155.326h583.1c-220.316-32.571-231.773-146.289-365.431-204.466-119.852-52.34-275.248-4.33-461.489-88.677h0a575.776,575.776,0,0,1-65.8-35.019C749.8,330.636,581.478,315.01,427.257,309.55h0c-61.395-2.259-120.439-2.824-175.078-5.648-65.8-3.765-125.433-10.92-174.784-28.618A342.37,342.37,0,0,1,6.6,239.7Z" transform="translate(598.389 89.969)" fill="url(#linear-gradient-11)"/>
          <path id="Pfad_305" data-name="Pfad 305" d="M6.6,354.2c125.14,66.837,188,235.908,452.089,293.143H833.52C613.2,614.772,601.747,501.054,468.089,442.877c-60.807-26.547-131.015-27.3-210.035-32.571-42.007-2.824-86.364-6.966-133.071-17.133H124.4c-42-9.268-81.681-22.4-117.8-38.973Z" transform="translate(1554.267 191.043)" fill="url(#linear-gradient-12)"/>
          <path id="Pfad_306" data-name="Pfad 306" d="M21.4,374.9c197.109,44.809,147.759,198.253,468.539,254.17,9.106,1.694,18.8,3.2,28.788,4.707,48.176,3.577,167.734,0,167.734,0-10.937-1.058-21.737-2.631-32.313-4.707-178.309-33.137-274.954-184.7-499.677-237.038C112.464,389.209,68.107,385.067,21.4,374.9Z" transform="translate(1657.85 209.316)" fill="url(#linear-gradient-13)" style="mix-blend-mode: soft-light;isolation: isolate"/>
          <path id="Pfad_307" data-name="Pfad 307" d="M142.7,273.8c289.055,20.522,242.642,159.092,529.053,222.917,246.754,54.976,410.375,163.234,462.957,221.6a91.172,91.172,0,0,1,16.744,23.911l128.665-4.9c-14.688-2.824-32.313-9.6-52.582-19.016-131.6-61.566-338.112-244-509.958-323.267-127.49-58.93-237.06-98.091-399.8-115.6h0C256.383,277.189,197.338,276.624,142.7,273.8Z" transform="translate(707.868 120.07)" fill="url(#linear-gradient-14)" style="mix-blend-mode: soft-light;isolation: isolate"/>
          <path id="Pfad_308" data-name="Pfad 308" d="M1774.4,896.821c-2.347-68.867-145.508-122.289-219.142-134.464s-133.48-28.892-235.277-53.6S687.2,538.494,567.8,378.409s-93.509-161.22-173.084-239.672S249.5,64.6,249.5,64.6V221.959c157.536,14.9,136.121,175.348,382.546,293.64,166.337,79.77,508.1,141.914,691.163,203.513s341.181,98.667,305.978,168.262Z" transform="translate(-102.145 -20.525)" fill="url(#linear-gradient-15)" style="mix-blend-mode: soft-light;isolation: isolate"/>
          <path id="Pfad_309" data-name="Pfad 309" d="M1470.886,668.518C1408.61,353.723,551.14,568.92,402.5,357.3,450.088,724.435,1174.194,470.265,1470.886,668.518Z" transform="translate(-243.137 193.779)" fill="url(#linear-gradient-16)" style="mix-blend-mode: soft-light;isolation: isolate"/>
          <g id="Gruppe_127" data-name="Gruppe 127" transform="translate(190.207 56.859)" clip-path="url(#clip-path-4)">
            <g id="Gruppe_122" data-name="Gruppe 122" transform="translate(-45.238 424.182)" opacity="0.3">
              <path id="Pfad_310" data-name="Pfad 310" d="M1567.55,691.754c2.056-23.346-20.269-52.34-63.157-81.9-106.046-73.239-334.587-148.36-605.722-151C678.061,456.787,457.745,399.74,363.156,320.1l-4.7,2.259c49.057,41.42,128.958,76.816,231.185,102.045,94.883,23.723,204.747,37.278,309.03,38.22,269.373,2.636,496.152,77,601.61,149.678,41.713,28.806,63.451,56.859,61.4,79.263Z" transform="translate(-358.456 -320.1)" fill="#fff"/>
            </g>
            <g id="Gruppe_123" data-name="Gruppe 123" transform="translate(-26.438 156.644)" opacity="0.3">
              <path id="Pfad_311" data-name="Pfad 311" d="M1638.83,827.17c19.682-77.757-185.359-158.527-361.025-212.75-42.007-12.8-111.333-29.747-191.822-49.516C920.6,524.425,714.678,473.967,630.958,430.1c-60.22-31.442-120.733-91.313-174.2-144.218C398.3,228.081,348.072,178.377,311.352,178v3.765c33.488.188,85.483,51.587,140.415,106s114.564,113.341,175.372,145.16c84.6,44.244,291.111,94.89,456.789,135.558,80.2,19.581,149.521,36.525,191.234,49.328,173.9,53.658,376.887,133.3,357.793,208.8Z" transform="translate(-311.352 -178)" fill="#fff"/>
            </g>
            <g id="Gruppe_124" data-name="Gruppe 124" transform="translate(309.911 144.03)" opacity="0.3">
              <path id="Pfad_312" data-name="Pfad 312" d="M1458.036,832.9c4.406-48.387-45.826-91.69-149.815-128.78s-234.123-56.106-270.548-60.624c-70.5-8.661-246.46-52.905-419.776-134.428C473.663,441.1,290.654,327.379,237.191,171.3l-5.581.753c53.757,157.4,237.941,271.68,382.762,340.024,173.9,81.9,351.331,126.52,422.126,135.181,158.921,19.769,425.357,80.958,415.663,185.45Z" transform="translate(-231.609 -171.3)" fill="#fff"/>
            </g>
            <g id="Gruppe_125" data-name="Gruppe 125" transform="translate(722.049 329.104)" opacity="0.3">
              <path id="Pfad_313" data-name="Pfad 313" d="M1157.241,760.62l5.581-1.318c-44.419-69.9-118.377-130.47-213.56-174.907-62.276-28.806-132.777-50.269-201.222-70.791s-141.59-42.926-204.159-72.486c-40.245-19.016-76.964-41.42-112.8-62.884-19.094-11.673-39.069-23.911-59.339-35.207C326.209,317.422,256.3,281.838,172.869,269.6l-1.469,3.577c82.251,12.238,151.578,47.257,196.522,72.674,19.975,11.3,39.951,23.346,59.339,35.019,35.544,21.652,72.558,44.056,113.1,63.26,63.157,29.747,135.421,51.587,205.335,72.862s138.359,41.8,200.047,70.415C1040.081,631.361,1113.346,691.362,1157.241,760.62Z" transform="translate(-171.4 -269.6)" fill="#fff"/>
            </g>
            <g id="Gruppe_126" data-name="Gruppe 126" transform="translate(1442.924 506.646)" opacity="0.3">
              <path id="Pfad_314" data-name="Pfad 314" d="M660.8,664.763h17.919V661C411.4,665.892,300.067,557.446,210.471,470.463c-51.7-50.269-96.058-93.572-159.509-106.563L49.2,367.477c61.395,12.614,105.458,55.541,156.278,105.057C293.9,558.387,403.175,664.763,660.8,664.763Z" transform="translate(-49.2 -363.9)" fill="#fff"/>
            </g>
          </g>
          <path id="Pfad_316" data-name="Pfad 316" d="M1780.378,870.246c-37.307-131.227-296.105-231.954-685.036-280.152S987.24,172.313,743.717,100.015c-70.207-20.71-133.952-22.97-189.178-15.627C392.68,105.852,293.1,210.532,331.873,313.518S518.7,557.71,996.346,633.4c826.92,131.227,358.675,264.9,140.415,255.488Z" transform="translate(-384.5 -23.499)" fill="#fff" opacity="0.1"/>
          <path id="Pfad_317" data-name="Pfad 317" d="M923.777,728.472c-58.751-146.666-608.66-229.318-809.588-298.6s-158.04-182.25,86.07-136.5S828.894,721.694,1146.149,734.5,804.219,619.461,715.5,470.16s247.342-124.638,347.806,38.784,96.645,182.25,202.4,215.574-31.432-37.843,41.126-83.97,358.087-16.38,244.7,94.7S923.777,728.472,923.777,728.472Z" transform="translate(873.982 196.988)" fill="#fff" opacity="0.1"/>
        </g>
      </g>
    </g>
  </g>
</svg>
