<svg xmlns="http://www.w3.org/2000/svg" width="206.6" height="124"><g fill="#cbcbcb"><path d="M48.7 32.3h39v3.1H52.3v23.2h33.3v3.1H52.3v25.5h35.8v3H48.7zm42.5 0h4.1l18.4 25.5 18.7-25.5L158 0 116 60.5l21.6 29.7h-4.3l-19.6-27-19.8 27h-4.2l21.8-29.7zm48 3.1v-3h44.4v3H163v54.8h-3.6V35.4zM0 32.3h4.5L66 124 40.6 90.2 3.7 36.7l-.1 53.5H0zM183.2 86.2a1.3 1.3 0 10-1.3-1.3 1.3 1.3 0 001.3 1.3zm3.5-3.4a3.5 3.5 0 003.8 3.6 3.6 3.6 0 003.9-4v-8.8h-2v8.8c0 1.4-.6 2.2-1.9 2.2a1.7 1.7 0 01-1.9-1.8zm10.2 0c.2 2.2 2 3.6 4.8 3.6 3 0 4.9-1.5 4.9-3.9 0-1.9-1.1-3-3.7-3.5l-1.3-.3c-1.7-.4-2.3-1-2.3-1.8 0-1.2 1-1.9 2.5-1.9a2.4 2.4 0 012.7 1.9h1.9c-.2-2.1-2-3.6-4.6-3.6-2.7 0-4.5 1.5-4.5 3.7 0 1.8 1 3 3.3 3.4l1.6.4c1.7.4 2.4 1 2.4 2s-1.2 1.9-2.7 1.9c-1.7 0-2.9-.8-3-2z"/></g></svg>