<svg xmlns="http://www.w3.org/2000/svg" width="206.559" height="124.017" viewBox="0 0 206.559 124.017"><g transform="translate(-1596 4671)"><path d="M48.942,32.632H87.9v3.082H52.513V58.907H85.791v3.082H52.513V87.453H88.307v3.082H48.942Zm42.449,0h4.139L113.874,58.1l18.749-25.464L158.124.287l-41.9,60.485,21.589,29.762h-4.3L113.874,63.448,94.151,90.534H89.93l21.752-29.762Zm47.968,3.082V32.632h44.4v3.082H163.3V90.534h-3.571V35.714Z" transform="translate(1595.797 -4671.287)" fill="#cbcbcb"/><path d="M.2,32.632H4.667L66.224,124.3,40.785,90.534,3.936,37.011,3.774,90.534H.2Z" transform="translate(1595.797 -4671.287)" fill="#cbcbcb"/><path d="M183.4,86.523a1.29,1.29,0,1,0-1.277-1.29A1.253,1.253,0,0,0,183.4,86.523Zm3.509-3.393a3.493,3.493,0,0,0,3.822,3.549,3.588,3.588,0,0,0,3.874-3.956V73.885h-1.946v8.829c0,1.394-.7,2.138-1.946,2.138a1.742,1.742,0,0,1-1.893-1.723Zm10.241-.113c.139,2.233,2.006,3.661,4.786,3.661,2.97,0,4.829-1.5,4.829-3.886,0-1.878-1.06-2.917-3.631-3.514l-1.381-.338c-1.633-.381-2.293-.892-2.293-1.783,0-1.125,1.025-1.861,2.563-1.861a2.393,2.393,0,0,1,2.649,1.87h1.893c-.113-2.1-1.971-3.583-4.516-3.583-2.737,0-4.561,1.48-4.561,3.7,0,1.835,1.034,2.926,3.3,3.454l1.616.39c1.659.389,2.388.961,2.388,1.913,0,1.108-1.146,1.913-2.71,1.913-1.676,0-2.84-.753-3.005-1.939Z" transform="translate(1595.797 -4671.287)" fill="#cbcbcb"/></g></svg>