<svg width="250" height="54" xmlns="http://www.w3.org/2000/svg"><g fill="none" fill-rule="evenodd"><rect fill="#0c0014" x=".5" y=".5" width="249" height="53" rx="10"/><text font-family="Poppins" font-size="9" font-weight="normal" fill="#FFF"><tspan x="53" y="20">COME JOIN US ON</tspan></text><text font-family="Poppins" font-size="21" font-weight="bold" fill="#FFF"><tspan x="52" y="40">Product Hunt</tspan></text><g fill="#FFF"><path d="M227 23h-11l5.5-10z"/><text font-family="Poppins" font-size="13" font-weight="normal" transform="translate(201 13)"><tspan x="9.1" y="27">109</tspan></text></g><path d="M42 27.5a15.5 15.5 0 11-31 0 15.5 15.5 0 0131 0" fill="#EA532A"/><path d="M28.4 28h-4.3v-4.7h4.3c1.3 0 2.3 1 2.3 2.3 0 1.3-1 2.4-2.3 2.4m0-7.8H21v15.5h3v-4.6h4.4c3 0 5.4-2.5 5.4-5.5s-2.4-5.4-5.4-5.4" fill="#FFF"/></g></svg>