<svg xmlns="http://www.w3.org/2000/svg" width="221" height="196.8"><path d="M56 194c-13-7-16-30-10-58-28-9-46-23-46-38 0-14 18-28 46-37-6-28-3-51 9-58a20 20 0 0110-3c13 0 29 9 45 24 17-15 33-24 45-24a20 20 0 0110 3c13 7 16 30 10 58 28 9 46 23 46 37 0 15-18 29-46 38 6 28 4 51-9 58a20 20 0 01-10 3c-13 0-29-9-45-24-17 15-33 24-45 24a20 20 0 01-10-3zm-2-43c-2 18 0 31 6 35a11 11 0 006 1c9 0 23-8 37-21a220 220 0 01-18-23 218 218 0 01-29-5l-2 13zm82-8a213 213 0 01-18 23c14 13 28 21 38 21a10 10 0 005-2c6-3 8-17 6-34a126 126 0 00-2-13 210 210 0 01-29 5zm-25 16a176 176 0 0012-15 229 229 0 01-25 0 186 186 0 0013 15zM90 63a241 241 0 00-20 36l9 17 11 18a252 252 0 0041 0 240 240 0 0020-36l-9-18-11-17a253 253 0 00-41 0zm60 58l-6 11 18-4-6-17-6 10zm-91 7l18 4-6-11c-3-3-4-7-6-10l-6 17zM36 76c-16 6-26 15-26 22s10 16 26 23l13 5a213 213 0 0110-27 216 216 0 01-10-28l-13 5zm126 22a216 216 0 0110 28l13-5c16-7 26-15 26-23 0-7-10-16-26-22l-13-5a213 213 0 01-10 27zM58 68l7 18a257 257 0 0112-21l-19 3zm92 7l6 11 6-18-18-3 6 10zM65 10a10 10 0 00-5 1c-6 4-8 17-6 35l2 13a210 210 0 0129-5 213 213 0 0118-23C89 18 75 10 65 10zm53 21a220 220 0 0118 23 218 218 0 0129 5l2-14c2-17 0-30-6-34a10 10 0 00-6-1c-9 0-23 8-37 21zm5 22a186 186 0 00-13-15 176 176 0 00-12 15 229 229 0 0125 0zM90 98a21 21 0 1120 21 21 21 0 01-20-21z" fill="#cbcbcb"/></svg>