<svg xmlns="http://www.w3.org/2000/svg" width="221" height="196.81" viewBox="0 0 221 196.81"><path d="M55.543,194.288c-12.7-7.3-15.586-30.092-9.1-58.741C18.334,126.942,0,113.068,0,98.428,0,83.832,18.244,70,46.264,61.354c-6.532-28.56-3.694-51.308,8.964-58.606A20.084,20.084,0,0,1,65.408.225V.18c12.388,0,28.6,8.739,45,23.965C126.807,8.829,143.023,0,155.412,0V.045a19.729,19.729,0,0,1,10.045,2.523c12.7,7.3,15.586,30.092,9.1,58.741C202.666,69.913,221,83.787,221,98.428c0,14.6-18.245,28.47-46.174,37.074,6.532,28.56,3.694,51.308-8.964,58.605a20.088,20.088,0,0,1-10.181,2.523c-12.388,0-28.6-8.739-45-23.964-16.4,15.315-32.614,24.145-45,24.145A19.805,19.805,0,0,1,55.543,194.288Zm-1.757-42.795c-2.072,17.208.586,30.587,6.712,34.1a10.746,10.746,0,0,0,5.09,1.216c9.37,0,23.154-7.478,37.84-21.127a219.756,219.756,0,0,1-18.74-22.523,218.482,218.482,0,0,1-28.6-4.91C55.093,142.8,54.282,147.258,53.786,151.493Zm82.571-8.379a212.818,212.818,0,0,1-18.6,22.479c14.685,13.559,28.515,20.992,37.84,20.992a10.026,10.026,0,0,0,5.18-1.172c6.081-3.559,8.694-16.937,6.577-34.145a126.24,126.24,0,0,0-2.343-13.109A210.414,210.414,0,0,1,136.357,143.114ZM110.59,158.565a175.673,175.673,0,0,0,12.388-14.414c-4.1.225-8.288.315-12.523.315-4.189,0-8.334-.135-12.388-.315A185.727,185.727,0,0,0,110.59,158.565ZM90.139,63.381C86.4,68.742,82.8,74.507,79.283,80.589c-3.379,5.9-6.532,11.938-9.325,17.974q4.257,9.054,9.37,17.929,5.27,9.054,10.9,17.118c6.667.54,13.469.856,20.272.856,6.847,0,13.649-.316,20.361-.9,3.74-5.36,7.343-11.126,10.857-17.207,3.379-5.9,6.486-11.938,9.325-17.974-2.839-6.036-5.946-12.028-9.37-17.929q-5.27-9.054-10.9-17.118C124.1,62.8,117.3,62.48,110.5,62.48,103.653,62.48,96.851,62.8,90.139,63.381Zm60.273,57.975c-2.072,3.649-4.279,7.208-6.487,10.677,6.442-.946,12.658-2.163,18.56-3.6-1.712-5.856-3.784-11.893-6.216-17.929C154.421,114.1,152.483,117.752,150.412,121.356Zm-91.805,7.118c5.9,1.441,12.073,2.613,18.469,3.559q-3.31-5.135-6.486-10.541c-2.118-3.6-4.054-7.208-5.9-10.812C62.345,116.672,60.273,122.663,58.606,128.474ZM36.263,75.633C20.316,82.391,10,91.355,10,98.428s10.315,15.991,26.262,22.793c3.919,1.667,8.153,3.2,12.613,4.6a213.116,213.116,0,0,1,10-27.3A216.358,216.358,0,0,1,48.74,71.084C44.371,72.481,40.136,73.967,36.263,75.633Zm125.816,22.7a216.348,216.348,0,0,1,10.136,27.433c4.369-1.4,8.6-2.883,12.479-4.549C200.639,114.464,210.955,105.5,211,98.428c0-7.072-10.316-15.992-26.262-22.794-3.965-1.666-8.2-3.2-12.659-4.594A213.309,213.309,0,0,1,162.078,98.338ZM58.471,68.381c1.712,5.856,3.784,11.893,6.216,17.929,1.847-3.6,3.784-7.208,5.856-10.812,2.072-3.649,4.28-7.207,6.486-10.676C70.589,65.768,64.372,66.984,58.471,68.381Zm91.9,6.982c2.117,3.6,4.054,7.207,5.9,10.812,2.342-5.991,4.415-11.983,6.081-17.794-5.9-1.442-12.073-2.613-18.47-3.559C146.087,68.246,148.294,71.76,150.367,75.363ZM65.408,10.271a10.022,10.022,0,0,0-5.18,1.171C54.147,15,51.534,28.38,53.651,45.588c.541,4.19,1.307,8.559,2.343,13.064A210.248,210.248,0,0,1,84.643,53.7a212.8,212.8,0,0,1,18.6-22.478C88.562,17.658,74.732,10.226,65.408,10.226Zm52.164,20.9A219.777,219.777,0,0,1,136.312,53.7a218.206,218.206,0,0,1,28.6,4.91c.991-4.549,1.8-9.01,2.3-13.244,2.073-17.207-.585-30.587-6.711-34.1a10.432,10.432,0,0,0-5.135-1.171v-.045C146,10.07,132.234,17.545,117.572,31.172ZM122.888,52.7A185.936,185.936,0,0,0,110.365,38.29,175.872,175.872,0,0,0,97.977,52.7c4.1-.225,8.289-.315,12.524-.315C114.69,52.39,118.833,52.525,122.888,52.7ZM89.869,98.428a20.587,20.587,0,1,1,20.587,20.586A20.587,20.587,0,0,1,89.869,98.428Z" fill="#cbcbcb"/></svg>