<svg xmlns="http://www.w3.org/2000/svg" width="256.1" height="256.1"><path d="M118.2 128.4c0-4.7 3.4-9.1 8.4-9.1 4.6 0 9 3.3 9 8.3 0 4.7-3.3 9.1-8.3 9.1-4.7 0-9.1-3.4-9.1-8.3zM256 128A128 128 0 11128 0a128 128 0 01128 128zm-13.7 0A114.3 114.3 0 10128 242.3 114.3 114.3 0 00242.3 128zM205 178c0 1.9 6.7 5.3 8.4 6.3a102.8 102.8 0 01-60.9 43l-2.2-9.6c-.2-1.2-1-1.4-2.2-1.4-1 0-1.5 1.4-1.4 2.2l2.2 9.7a101 101 0 01-20.8 2.1 102.3 102.3 0 01-53.2-15c.9-1.4 6.3-9.3 6.3-10.4a2 2 0 00-1.9-1.9c-2 0-6.3 8.6-7.5 10.3a102.7 102.7 0 01-43.2-61.7l9.9-2.2a2 2 0 001.4-2.2c0-1-1.4-1.5-2.3-1.4l-9.6 2.2a101.1 101.1 0 0113.6-74c1.4.8 8.3 5.5 9.4 5.5a1.8 1.8 0 001.9-1.7c0-2-7.6-5.8-9.3-7a102.8 102.8 0 0161.8-42.3l2.2 9.6a2 2 0 002.1 1.4c1 0 1.6-1.4 1.5-2.2l-2.2-9.5a108 108 0 0119.2-1.8 102.2 102.2 0 0154.1 15.6c-1 1.4-5.5 8.1-5.5 9.2a1.8 1.8 0 001.7 2c2 0 5.8-7.5 6.8-9.2a102.2 102.2 0 0142.2 61l-8 1.7c-1.3.3-1.4 1.1-1.4 2.3 0 1 1.4 1.5 2.1 1.4l8.2-1.9a103.7 103.7 0 012 20 101.7 101.7 0 01-14.9 53c-1.4-.7-7.4-5-8.5-5a2 2 0 00-2 1.9zm-17.1-125c-6.8 6.3-69.3 63.8-71 66.8l-50 82.9c6.6-6.2 69.3-64 71-66.8l50-83z" fill="#cbcbcb"/></svg>