<svg xmlns="http://www.w3.org/2000/svg" width="220.92" height="265.5"><path d="M206.84 35.13C182.18-.16 133.5-10.62 98.29 11.8L36.46 51.22A70.94 70.94 0 004.4 98.73a74.7 74.7 0 007.37 47.96A71.13 71.13 0 001.17 173.2a75.6 75.6 0 0012.91 57.17c24.66 35.29 73.35 45.74 108.55 23.31l61.83-39.4a70.92 70.92 0 0032.05-47.52 74.73 74.73 0 00-7.36-47.96 71.12 71.12 0 0010.6-26.5 75.57 75.57 0 00-12.91-57.17" fill="#353535"/><path d="M92.25 233.7a49.11 49.11 0 01-52.72-19.55 45.45 45.45 0 01-7.76-34.38 43.12 43.12 0 011.47-5.77l1.17-3.55 3.17 2.33a79.76 79.76 0 0024.18 12.08l2.3.7-.2 2.3a13.86 13.86 0 002.48 9.19 14.79 14.79 0 0015.88 5.89 13.62 13.62 0 003.8-1.67l61.83-39.4a12.87 12.87 0 005.8-8.6 13.74 13.74 0 00-2.33-10.37 14.8 14.8 0 00-15.88-5.9 13.61 13.61 0 00-3.8 1.68l-23.6 15.03a45.12 45.12 0 01-12.55 5.51 49.11 49.11 0 01-52.71-19.54A45.45 45.45 0 0135 105.3a42.64 42.64 0 0119.27-28.56l61.83-39.41a45.05 45.05 0 0112.56-5.52 49.11 49.11 0 0152.72 19.54 45.45 45.45 0 017.77 34.38 43.62 43.62 0 01-1.48 5.77l-1.17 3.55-3.16-2.32a79.7 79.7 0 00-24.2-12.1l-2.3-.7.22-2.29a13.89 13.89 0 00-2.5-9.19 14.79 14.79 0 00-15.87-5.89 13.62 13.62 0 00-3.8 1.67l-61.82 39.4a12.85 12.85 0 00-5.8 8.61 13.72 13.72 0 002.33 10.37 14.8 14.8 0 0015.88 5.89 13.67 13.67 0 003.8-1.67l23.6-15.03a44.99 44.99 0 0112.54-5.53 49.11 49.11 0 0152.71 19.54 45.45 45.45 0 017.77 34.38 42.66 42.66 0 01-19.27 28.58l-61.83 39.4a45.05 45.05 0 01-12.56 5.52" fill="#fff"/></svg>