<svg xmlns="http://www.w3.org/2000/svg" width="332" height="332"><g transform="translate(-389 -334)" fill="#fff"><rect width="332" height="332" rx="20" transform="rotate(180 360.5 333)" opacity=".1"/><rect width="100" height="100" rx="20" transform="rotate(180 244.5 333)"/><rect width="100" height="100" rx="20" transform="rotate(180 302.5 333)"/><rect width="100" height="100" rx="20" transform="rotate(180 360.5 333)" opacity=".2"/><rect width="100" height="100" rx="20" transform="rotate(180 244.5 217)" opacity=".2"/><rect width="100" height="100" rx="20" transform="rotate(180 302.5 217)" opacity=".2"/><rect width="100" height="100" rx="20" transform="rotate(180 360.5 217)" opacity=".2"/><rect width="100" height="100" rx="20" transform="rotate(180 244.5 275)"/><rect width="100" height="100" rx="20" transform="rotate(180 302.5 275)"/><rect width="100" height="100" rx="20" transform="rotate(180 360.5 275)" opacity=".2"/></g></svg>