<svg xmlns="http://www.w3.org/2000/svg" width="332" height="332" viewBox="0 0 332 332"><g transform="translate(-334 -334)"><rect width="332" height="332" rx="20" transform="translate(666 666) rotate(180)" fill="#fff" opacity="0.1"/><rect width="100" height="100" rx="20" transform="translate(434 666) rotate(180)" fill="#fff"/><rect width="100" height="100" rx="20" transform="translate(550 666) rotate(180)" fill="#fff"/><rect width="100" height="100" rx="20" transform="translate(666 666) rotate(180)" fill="#fff"/><rect width="100" height="100" rx="20" transform="translate(434 434) rotate(180)" fill="#fff"/><rect width="100" height="100" rx="20" transform="translate(550 434) rotate(180)" fill="#fff"/><rect width="100" height="100" rx="20" transform="translate(666 434) rotate(180)" fill="#fff"/><rect width="100" height="100" rx="20" transform="translate(434 550) rotate(180)" fill="#fff"/><rect width="100" height="100" rx="20" transform="translate(550 550) rotate(180)" fill="#fff"/><rect width="100" height="100" rx="20" transform="translate(666 550) rotate(180)" fill="#fff"/></g></svg>