<svg xmlns="http://www.w3.org/2000/svg" width="332" height="332" viewBox="0 0 332 332"><g transform="translate(-162 -346)"><rect width="332" height="332" rx="20" transform="translate(494 678) rotate(180)" fill="#fff" opacity="0.1"/><rect width="100" height="100" rx="20" transform="translate(262 678) rotate(180)" fill="#fff" opacity="0.2"/><rect width="100" height="100" rx="20" transform="translate(378 678) rotate(180)" fill="#fff"/><rect width="100" height="100" rx="20" transform="translate(494 678) rotate(180)" fill="#fff" opacity="0.2"/><rect width="100" height="100" rx="20" transform="translate(262 446) rotate(180)" fill="#fff" opacity="0.22"/><rect width="100" height="100" rx="20" transform="translate(378 446) rotate(180)" fill="#fff"/><rect width="100" height="100" rx="20" transform="translate(494 446) rotate(180)" fill="#fff" opacity="0.2"/><rect width="100" height="100" rx="20" transform="translate(262 562) rotate(180)" fill="#fff"/><rect width="100" height="100" rx="20" transform="translate(378 562) rotate(180)" fill="#fff"/><rect width="100" height="100" rx="20" transform="translate(494 562) rotate(180)" fill="#fff"/></g></svg>