<svg xmlns="http://www.w3.org/2000/svg" width="332" height="332"><g transform="translate(-334 -172)" fill="#fff"><rect width="332" height="332" rx="20" transform="rotate(180 333 252)" opacity=".1"/><rect width="100" height="100" rx="20" transform="rotate(180 217 252)" opacity=".3"/><rect width="100" height="100" rx="20" transform="rotate(180 275 252)" opacity=".4"/><rect width="100" height="100" rx="20" transform="rotate(180 333 252)" opacity=".5"/><rect width="100" height="100" rx="20" transform="rotate(180 217 136)" opacity=".8"/><rect width="100" height="100" rx="20" transform="rotate(180 275 136)" opacity=".9"/><rect width="100" height="100" rx="20" transform="rotate(180 333 136)"/><rect width="100" height="100" rx="20" transform="rotate(180 217 194)" opacity=".5"/><rect width="100" height="100" rx="20" transform="rotate(180 275 194)" opacity=".8"/><rect width="100" height="100" rx="20" transform="rotate(180 333 194)" opacity=".7"/></g></svg>