<svg xmlns="http://www.w3.org/2000/svg" width="332" height="332" viewBox="0 0 332 332"><g transform="translate(-334 -172)"><rect width="332" height="332" rx="20" transform="translate(666 504) rotate(180)" fill="#fff" opacity="0.1"/><rect width="100" height="100" rx="20" transform="translate(434 504) rotate(180)" fill="#fff" opacity="0.32"/><rect width="100" height="100" rx="20" transform="translate(550 504) rotate(180)" fill="#fff" opacity="0.43"/><rect width="100" height="100" rx="20" transform="translate(666 504) rotate(180)" fill="#fff" opacity="0.54"/><rect width="100" height="100" rx="20" transform="translate(434 272) rotate(180)" fill="#fff" opacity="0.8"/><rect width="100" height="100" rx="20" transform="translate(550 272) rotate(180)" fill="#fff" opacity="0.9"/><rect width="100" height="100" rx="20" transform="translate(666 272) rotate(180)" fill="#fff"/><rect width="100" height="100" rx="20" transform="translate(434 388) rotate(180)" fill="#fff" opacity="0.5"/><rect width="100" height="100" rx="20" transform="translate(550 388) rotate(180)" fill="#fff" opacity="0.76"/><rect width="100" height="100" rx="20" transform="translate(666 388) rotate(180)" fill="#fff" opacity="0.7"/></g></svg>