<svg xmlns="http://www.w3.org/2000/svg" width="332" height="332" viewBox="0 0 332 332"><g transform="translate(-334 -347)"><rect width="332" height="332" rx="20" transform="translate(666 679) rotate(180)" fill="#fff" opacity="0.1"/><rect width="100" height="100" rx="20" transform="translate(434 679) rotate(180)" fill="#fff"/><rect width="100" height="100" rx="20" transform="translate(550 679) rotate(180)" fill="#fff"/><rect width="100" height="100" rx="20" transform="translate(666 679) rotate(180)" fill="#fff"/><rect width="100" height="100" rx="20" transform="translate(434 447) rotate(180)" fill="#fff"/><rect width="100" height="100" rx="20" transform="translate(550 447) rotate(180)" fill="#fff"/><rect width="100" height="100" rx="20" transform="translate(666 447) rotate(180)" fill="#fff"/><rect width="100" height="100" rx="20" transform="translate(434 563) rotate(180)" fill="#fff"/><rect width="100" height="100" rx="20" transform="translate(666 563) rotate(180)" fill="#fff"/><rect width="80" height="80" rx="20" transform="translate(540 553) rotate(180)" fill="#fff"/></g></svg>