<svg xmlns="http://www.w3.org/2000/svg" width="332" height="332"><defs><clipPath id="a"><rect width="332" height="332" rx="20" transform="rotate(180 333 252)" fill="#fff" opacity=".1"/></clipPath></defs><g transform="translate(-334 -172)" fill="#fff"><rect width="332" height="332" rx="20" transform="rotate(180 333 252)" opacity=".1"/><rect width="100" height="100" rx="20" transform="rotate(180 234.5 252)"/><rect width="100" height="100" rx="20" transform="rotate(180 302.5 252)"/><rect width="100" height="100" rx="20" transform="rotate(180 234.5 136)"/><rect width="100" height="100" rx="20" transform="rotate(180 302.5 136)"/><rect width="100" height="100" rx="20" transform="rotate(180 234.5 194)"/><rect width="100" height="100" rx="20" transform="rotate(180 302.5 194)"/><g clip-path="url(#a)"><rect width="100" height="100" rx="20" transform="rotate(180 176.5 136)"/><rect width="100" height="100" rx="20" transform="rotate(180 360.5 136)"/><rect width="100" height="100" rx="20" transform="rotate(180 360.5 252)"/></g></g></svg>