<svg xmlns="http://www.w3.org/2000/svg" width="332" height="332" viewBox="0 0 332 332"><g transform="translate(-411 -188)"><rect width="332" height="332" rx="20" transform="translate(743 520) rotate(180)" fill="#fff" opacity="0.1"/><rect width="100" height="100" rx="20" transform="translate(743 520) rotate(180)" fill="#fff"/><rect width="100" height="100" rx="20" transform="translate(511 288) rotate(180)" fill="#fff" opacity="0.1"/><rect width="100" height="100" rx="20" transform="translate(523 300) rotate(180)" fill="#fff" opacity="0.2"/><rect width="100" height="100" rx="20" transform="translate(535 312) rotate(180)" fill="#fff" opacity="0.3"/><rect width="100" height="100" rx="20" transform="translate(547 324) rotate(180)" fill="#fff" opacity="0.4"/><rect width="100" height="100" rx="20" transform="translate(559 336) rotate(180)" fill="#fff" opacity="0.5"/><rect width="100" height="100" rx="20" transform="translate(571 348) rotate(180)" fill="#fff" opacity="0.6"/><rect width="100" height="100" rx="20" transform="translate(583 360) rotate(180)" fill="#fff" opacity="0.7"/><rect width="100" height="100" rx="20" transform="translate(595 372) rotate(180)" fill="#fff" opacity="0.8"/><rect width="100" height="100" rx="20" transform="translate(607 384) rotate(180)" fill="#fff" opacity="0.9"/></g></svg>