<svg xmlns="http://www.w3.org/2000/svg" width="332" height="332"><g transform="translate(-411 -188)" fill="#fff"><rect width="332" height="332" rx="20" transform="rotate(180 371.5 260)" opacity=".1"/><rect width="100" height="100" rx="20" transform="rotate(180 371.5 260)"/><rect width="100" height="100" rx="20" transform="rotate(180 255.5 144)" opacity=".1"/><rect width="100" height="100" rx="20" transform="rotate(180 261.5 150)" opacity=".2"/><rect width="100" height="100" rx="20" transform="rotate(180 267.5 156)" opacity=".3"/><rect width="100" height="100" rx="20" transform="rotate(180 273.5 162)" opacity=".4"/><rect width="100" height="100" rx="20" transform="rotate(180 279.5 168)" opacity=".5"/><rect width="100" height="100" rx="20" transform="rotate(180 285.5 174)" opacity=".6"/><rect width="100" height="100" rx="20" transform="rotate(180 291.5 180)" opacity=".7"/><rect width="100" height="100" rx="20" transform="rotate(180 297.5 186)" opacity=".8"/><rect width="100" height="100" rx="20" transform="rotate(180 303.5 192)" opacity=".9"/></g></svg>