<svg xmlns="http://www.w3.org/2000/svg" width="332" height="332"><g transform="translate(-334 -334)" fill="#fff"><rect width="332" height="332" rx="20" transform="rotate(180 333 333)" opacity=".1"/><rect width="100" height="100" rx="20" transform="rotate(180 217 333)"/><rect width="100" height="100" rx="20" transform="rotate(180 275 333)"/><rect width="100" height="100" rx="20" transform="rotate(180 333 333)"/><rect width="100" height="100" rx="20" transform="rotate(180 217 217)"/><rect width="100" height="100" rx="20" transform="rotate(180 275 217)" opacity=".2"/><rect width="100" height="100" rx="20" transform="rotate(180 333 217)" opacity=".2"/><rect width="100" height="100" rx="20" transform="rotate(180 217 275)"/><rect width="100" height="100" rx="20" transform="rotate(180 275 275)"/><rect width="100" height="100" rx="20" transform="rotate(180 333 275)" opacity=".2"/></g></svg>