<svg xmlns="http://www.w3.org/2000/svg" width="332" height="332"><g transform="translate(-162 -346)" fill="#fff"><rect width="332" height="332" rx="20" transform="rotate(180 247 339)" opacity=".1"/><rect width="100" height="100" rx="20" transform="rotate(180 131 339)" opacity=".2"/><rect width="100" height="100" rx="20" transform="rotate(180 189 339)"/><rect width="100" height="100" rx="20" transform="rotate(180 247 339)" opacity=".2"/><rect width="100" height="100" rx="20" transform="rotate(180 131 223)" opacity=".2"/><rect width="100" height="100" rx="20" transform="rotate(180 189 223)"/><rect width="100" height="100" rx="20" transform="rotate(180 247 223)" opacity=".2"/><rect width="100" height="100" rx="20" transform="rotate(180 131 281)"/><rect width="100" height="100" rx="20" transform="rotate(180 189 281)"/><rect width="100" height="100" rx="20" transform="rotate(180 247 281)"/></g></svg>