<svg xmlns="http://www.w3.org/2000/svg" width="332" height="332"><g transform="translate(-334 -347)" fill="#fff"><rect width="332" height="332" rx="20" transform="rotate(180 333 339.5)" opacity=".1"/><rect width="100" height="100" rx="20" transform="rotate(180 217 339.5)"/><rect width="100" height="100" rx="20" transform="rotate(180 275 339.5)"/><rect width="100" height="100" rx="20" transform="rotate(180 333 339.5)"/><rect width="100" height="100" rx="20" transform="rotate(180 217 223.5)"/><rect width="100" height="100" rx="20" transform="rotate(180 275 223.5)"/><rect width="100" height="100" rx="20" transform="rotate(180 333 223.5)"/><rect width="100" height="100" rx="20" transform="rotate(180 217 281.5)"/><rect width="100" height="100" rx="20" transform="rotate(180 333 281.5)"/><rect width="80" height="80" rx="20" transform="rotate(180 270 276.5)"/></g></svg>