<svg xmlns="http://www.w3.org/2000/svg" width="144.69" height="144.69"><path d="M72.34 10.14a61.97 61.97 0 0142.08 16.4c-5.42-.15-10.84 3.08-11.07 10.47-.45 14.94 17.87 18.12 8 48.16l-8.17 24.86-22.24-65.5c-.34-1.02.06-1.6 1.3-1.6h6.29a.6.6 0 00.6-.62V38.6a.6.6 0 00-.6-.62q-17.86.78-35.5 0a.6.6 0 00-.6.62v3.72a.61.61 0 00.6.62h6.31c1.41 0 1.8.47 2.14 1.38L70.6 69.3l-13.74 41.5-22.6-66.55c-.27-.83.07-1.32.87-1.32h7.2a.6.6 0 00.6-.62V38.6a.6.6 0 00-.6-.62c-7.56.4-15.14.48-22.21.55a62.16 62.16 0 0152.21-28.38zm54.72 32.58a62.24 62.24 0 01-24.86 84.2l19.4-54.95c3-8.5 5.8-20 5.46-29.25zm-33.89 88.25a62.44 62.44 0 01-38.92.9l19.17-54.91 19.75 54.01zm-47.44-2.4a62.25 62.25 0 01-30-82.02l30 82.03zM72.34 4.3A68.04 68.04 0 114.3 72.34 68.05 68.05 0 0172.34 4.3zm0-4.3A72.34 72.34 0 110 72.34 72.35 72.35 0 0172.34 0z" fill="#464342" fill-rule="evenodd"/></svg>