<svg xmlns="http://www.w3.org/2000/svg" width="144.7" height="144.7"><path d="M72.3 10.1a62 62 0 0142.1 16.4c-5.4-.1-10.8 3.1-11 10.5-.5 15 17.8 18.1 8 48.2l-8.2 24.8-22.3-65.5c-.3-1 .1-1.6 1.3-1.6h6.3a.6.6 0 00.6-.6v-3.7a.6.6 0 00-.6-.6q-17.8.7-35.5 0a.6.6 0 00-.6.6v3.7a.6.6 0 00.6.6h6.3c1.5 0 1.8.5 2.2 1.4l9.1 25L57 110.8 34.3 44.3c-.3-.9 0-1.4.8-1.4h7.2a.6.6 0 00.6-.6v-3.7a.6.6 0 00-.6-.6c-7.5.4-15.1.4-22.2.5a62.2 62.2 0 0152.2-28.4zm54.8 32.6a62.2 62.2 0 01-24.9 84.2l19.4-55c3-8.4 5.8-20 5.5-29.2zM93 131a62.4 62.4 0 01-38.8.9l19.1-55 19.8 54zm-47.4-2.4a62.2 62.2 0 01-30-82l30 82zM72.3 4.3a68 68 0 11-68 68 68 68 0 0168-68zm0-4.3A72.3 72.3 0 110 72.3 72.4 72.4 0 0172.3 0z" fill="#cbcbcb" fill-rule="evenodd"/></svg>