<svg xmlns="http://www.w3.org/2000/svg" width="144.688" height="144.687" viewBox="0 0 144.688 144.687"><path d="M75.855,11.806a61.971,61.971,0,0,1,42.078,16.4c-5.428-.146-10.846,3.081-11.07,10.47-.457,14.938,17.862,18.12,7.991,48.167L106.69,111.7,84.452,46.192c-.345-1.014.056-1.591,1.3-1.591h6.287a.609.609,0,0,0,.594-.621V40.256a.6.6,0,0,0-.594-.621q-17.859.781-35.506,0a.6.6,0,0,0-.594.622v3.724a.61.61,0,0,0,.594.621h6.321c1.406,0,1.8.469,2.131,1.375l9.137,24.988-13.745,41.5L37.787,45.921c-.28-.835.059-1.319.863-1.319h7.2a.609.609,0,0,0,.594-.621V40.257a.6.6,0,0,0-.594-.621c-7.557.4-15.143.482-22.21.555A62.155,62.155,0,0,1,75.852,11.805h0Zm54.711,32.585a62.238,62.238,0,0,1-24.855,84.2l19.4-54.949c3.006-8.5,5.8-20,5.454-29.252h0ZM96.681,132.636a62.439,62.439,0,0,1-38.918.9L76.927,78.623l19.754,54.016h0Zm-47.445-2.392a62.246,62.246,0,0,1-30-82.028l30,82.029h0ZM75.853,5.969A68.041,68.041,0,1,1,7.813,74.01,68.05,68.05,0,0,1,75.853,5.969Zm0-4.3A72.343,72.343,0,1,1,3.51,74.012,72.354,72.354,0,0,1,75.853,1.668Z" transform="translate(-3.51 -1.668)" fill="#cbcbcb" fill-rule="evenodd"/></svg>