<?xml version="1.0" encoding="UTF-8" standalone="no"?>
<svg
   xmlns:svg="http://www.w3.org/2000/svg"
   xmlns="http://www.w3.org/2000/svg"
   xmlns:xlink="http://www.w3.org/1999/xlink"
   version="1.1"
   id="svg2"
   width="4390"
   height="1302">
  <path
     d="M 1092.06,946.55328 546.031,0.56123374 0.0117188,946.55328 Z"
     style="fill:#6d71b5"
     id="path4" />
  <path
     d="m 1092.06,946.55328 -205.201,-236.504 -681.656,0.012 -205.1912812,236.492 z"
     style="fill:#12b17d"
     id="path6" />
  <path
     d="M 546.031,1301.303 886.871,710.06128 H 205.203 Z"
     style="fill:#222d5f"
     id="path8" />
  <path
     d="m 1347.39,368.38528 h 80.2 l -40.09,-152.494 z m 94.45,62.265 h -108.7 l -16.35,62.262 h -76.51 l 104.47,-351.941 h 84.96 l 105,351.941 h -76.52 l -16.35,-62.262"
     id="path10" />
  <path
     d="m 1575.35,140.97128 h 70.71 v 289.679 h 118.19 v 62.262 h -188.9 v -351.941"
     id="path12" />
  <use
     xlink:href="#path12"
     transform="translate(244.84)"
     id="use14" />
  <path
     d="m 2067.67,140.97128 h 70.7 v 351.941 h -70.7 v -351.941"
     id="path16" />
  <use
     xlink:href="#path10"
     transform="translate(946.66)"
     id="use18" />
  <path
     d="m 2600.63,284.49128 v 208.421 h -70.71 v -351.941 h 71.77 l 115.03,201.035 v -201.035 h 71.23 v 351.941 h -67.54 l -119.78,-208.421"
     id="path20" />
  <path
     d="m 2840.72,317.20128 c 0,-106.58 57.52,-182.04 149.33,-182.04 67.01,0 99.21,43.8 117.66,84.95 l -59.09,25.33 c -10.56,-27.96 -30.6,-47.49 -58.57,-47.49 -48.02,0 -77.04,50.13 -77.04,119.25 0,69.129 29.02,119.254 77.04,119.254 29.02,0 49.6,-22.168 59.1,-51.187 l 58.56,25.328 c -17.41,42.211 -49.6,88.648 -117.66,88.648 -91.81,0 -149.33,-75.453 -149.33,-182.043"
     id="path22" />
  <path
     d="m 3167.88,140.97128 h 201.57 v 62.26 h -130.86 v 79.68 h 127.17 v 62.255 h -127.17 v 85.484 h 130.86 v 62.262 h -201.57 v -351.941"
     id="path24" />
  <path
     d="m 3568.41,140.97128 h 201.56 v 62.26 h -130.86 v 79.68 h 127.17 v 62.255 h -127.17 v 147.746 h -70.7 v -351.941"
     id="path26" />
  <path
     d="m 3964.17,197.95128 c -48.55,0 -74.93,51.19 -74.93,119.25 0,67.539 26.38,119.254 74.93,119.254 48.02,0 74.4,-51.715 74.4,-119.254 0,-68.06 -26.38,-119.25 -74.4,-119.25 z m 0,-62.79 c 91.81,0 146.68,77.57 146.68,182.04 0,105.008 -54.87,182.043 -146.68,182.043 -92.34,0 -147.22,-77.035 -147.22,-182.043 0,-104.47 54.88,-182.04 147.22,-182.04"
     id="path28" />
  <path
     d="m 4269.69,203.23128 h -50.13 v 100.255 h 50.13 c 27.44,0 45.37,-19.525 45.37,-50.125 0,-30.61 -17.93,-50.13 -45.37,-50.13 z m -12.14,162.521 h -37.99 v 127.16 h -70.7 v -351.941 h 131.38 c 64.37,0 107.11,46.43 107.11,111.34 0,61.199 -32.18,91.277 -61.2,100.773 l 63.85,139.828 h -78.63 l -53.82,-127.16"
     id="path30" />
  <use
     xlink:href="#path28"
     transform="translate(-2585.12,453.344)"
     id="use32" />
  <path
     d="m 1689.85,656.56828 h -50.65 v 100.258 h 50.65 c 26.92,0 44.86,-19.519 44.86,-50.125 0,-30.605 -17.94,-50.133 -44.86,-50.133 z m -121.35,-62.257 h 129.8 c 72.29,0 108.7,52.234 108.7,112.39 0,60.156 -36.41,112.383 -108.7,112.383 h -59.1 v 127.168 h -70.7 v -351.941"
     id="path34" />
  <use
     xlink:href="#path24"
     transform="translate(-1319.19,453.341)"
     id="use36" />
  <use
     xlink:href="#path20"
     transform="translate(-423.19,453.336)"
     id="use38" />
  <path
     d="m 2829.12,718.83828 -79.15,227.414 h -27.43 l -78.1,-227.414 v 227.414 h -70.71 v -351.941 h 94.45 l 68.07,196.812 69.13,-196.812 h 93.93 v 351.941 h -70.19 v -227.414"
     id="path40" />
  <use
     xlink:href="#path24"
     transform="translate(-211.58,453.34)"
     id="use42" />
  <path
     d="m 3338.87,883.99428 c 52.22,0 80.73,-45.906 80.73,-113.445 0,-69.66 -27.44,-113.981 -80.73,-113.981 h -42.75 v 227.426 z m -113.46,-289.683 h 113.46 c 97.09,0 153.01,73.335 153.01,176.238 0,103.426 -55.4,175.703 -153.01,175.703 h -113.46 v -351.941"
     id="path44" />
  <path
     d="m 3543.09,594.31128 h 70.71 v 351.941 h -70.71 v -351.941"
     id="path46" />
  <use
     xlink:href="#path10"
     transform="translate(2427.34,453.344)"
     id="use48" />
</svg>
