<svg xmlns="http://www.w3.org/2000/svg" xmlns:xlink="http://www.w3.org/1999/xlink" width="192" height="128" viewBox="0 0 192 128"><defs><linearGradient id="a" x1="0.5" y1="1" x2="0.5" gradientUnits="objectBoundingBox"><stop offset="0" stop-color="#bde2ff"/><stop offset="1" stop-color="#d3ecff"/></linearGradient><linearGradient id="b" x1="0.5" x2="0.5" y2="1" gradientUnits="objectBoundingBox"><stop offset="0" stop-color="#29c6ff"/><stop offset="1" stop-color="#29a2ff"/></linearGradient></defs><g transform="translate(0 0)"><path d="M186.375,61H5.625C2.475,61,0,63.166,0,65.923V179.154l73.5-44.308,45,49.231L141,164.385l49.425,23.237A5.287,5.287,0,0,0,192,184.077V65.923C192,63.166,189.525,61,186.375,61Z" transform="translate(0 -61)" fill="url(#a)"/></g><g transform="translate(0 29.563)"><path d="M129.884,180.531c9.315,0,16.892-6.624,16.892-14.766S139.2,151,129.884,151s-16.892,6.624-16.892,14.766S120.569,180.531,129.884,180.531Zm15.243,28.089a6.219,6.219,0,0,0-7.963,0l-18.542,16.207L77.506,179.9a6.183,6.183,0,0,0-8.379-.406L0,239.594v4.922c0,2.756,2.477,4.922,5.631,4.922H186.568a7.024,7.024,0,0,0,4.054-1.378Z" transform="translate(0 -151)" fill="url(#b)"/></g></svg>