<svg width="0" height="0" class="hidden">
  <symbol aria-hidden="true" data-prefix="fab" data-icon="reddit-square" xmlns="http://www.w3.org/2000/svg" viewBox="0 0 448 512" id="reddit-square">
    <path fill="currentColor" d="M283 346c3 2 3 6 0 9-24 24-94 24-118 0-3-3-3-7 0-10 2-2 6-2 9 1 18 19 81 19 100 0 3-3 7-3 9 0zm-91-54a27 27 0 10-53-1 27 27 0 0053 1zm91-27a27 27 0 100 53 27 27 0 000-53zM448 80v352c0 27-21 48-48 48H48c-26 0-48-21-48-48V80c0-26 22-48 48-48h352c27 0 48 22 48 48zM348 221c-10 0-19 4-25 10-24-16-57-27-93-28l19-85 59 14c0 14 12 26 27 26a27 27 0 000-53c-11 0-19 6-24 15l-66-15c-3-1-6 2-7 5l-21 93c-35 1-67 12-91 29-7-7-16-11-26-11-38 0-50 50-16 67l-2 17c0 56 64 102 142 102 79 0 142-46 142-102 0-6 0-12-2-17 34-17 22-67-16-67z"></path>
  </symbol>
  <symbol aria-hidden="true" data-prefix="fab" data-icon="twitter-square" xmlns="http://www.w3.org/2000/svg" viewBox="0 0 448 512" id="twitter-square">
    <path fill="currentColor" d="M400 32H48C22 32 0 54 0 80v352c0 27 22 48 48 48h352c27 0 48-21 48-48V80c0-26-21-48-48-48zm-49 159v8c0 87-66 187-186 187-37 0-72-11-101-30a138 138 0 0097-27c-29 0-53-19-61-45 10 1 19 1 30-1-30-6-53-33-53-65v-1c9 5 19 8 30 9a65 65 0 01-30-55c0-12 4-23 9-33 33 40 81 66 136 69a66 66 0 01111-60c15-3 29-9 42-16-5 15-15 28-29 36 13-1 26-5 38-10-9 13-20 25-33 34z"></path>
  </symbol>
  <symbol aria-hidden="true" data-prefix="fab" data-icon="facebook-square" xmlns="http://www.w3.org/2000/svg" viewBox="0 0 448 512" id="facebook-square">
    <path fill="currentColor" d="M400 32H48A48 48 0 000 80v352a48 48 0 0048 48h137V328h-63v-72h63v-55c0-62 37-96 94-96 27 0 55 5 55 5v61h-31c-31 0-40 19-40 38v47h69l-11 72h-58v152h137a48 48 0 0048-48V80a48 48 0 00-48-48z"></path>
  </symbol>
</svg>