<svg xmlns="http://www.w3.org/2000/svg" width="36" height="36"><path d="M13.7 35.5l1.8-3.2a13.4 13.4 0 005 0l1.8 3.2a.9.9 0 001 .5 18 18 0 007-4.2 1 1 0 000-1.1l-1.7-3.2a14.5 14.5 0 002.6-4.7h3.5a.9.9 0 00.9-.7 19.9 19.9 0 000-8.2.9.9 0 00-.9-.8h-3.6a15 15 0 00-2.5-4.6l1.8-3.2a1 1 0 00-.2-1.1A17.8 17.8 0 0023.3 0a.9.9 0 00-1 .5l-1.8 3.2a13.4 13.4 0 00-5 0L13.6.5a.9.9 0 00-1-.5 18 18 0 00-7 4.2 1 1 0 000 1.1l1.7 3.2a14.5 14.5 0 00-2.5 4.7H1.3a.9.9 0 00-.9.7 19.9 19.9 0 000 8.2.9.9 0 00.9.8h3.6a15 15 0 002.5 4.6l-1.8 3.2a1 1 0 00.2 1.1 17.8 17.8 0 006.9 4.2.9.9 0 001-.5zM12.2 18a6 6 0 015.8-6 6 6 0 015.8 6 6 6 0 01-5.8 6 6 6 0 01-5.8-6z" fill="#8797a3"/></svg>