<svg xmlns="http://www.w3.org/2000/svg" width="259.92" height="268.48"><path d="M119.08 268A130.13 130.13 0 010 138.47v-.67a97 97 0 011.04-12.12q.22-1.78.49-3.56c.88-6.34 2.03-11.4 2.06-11.53a109.9 109.9 0 0117.46-39.42 113.7 113.7 0 0112.17-14.6 94.73 94.73 0 0112.72-10.89 23.22 23.22 0 014.34-2.3v.05l.05-.02c-.3 4.5-.65 25.98 4.48 32.56a96.36 96.36 0 0131.33-24.2h.02a60.32 60.32 0 00.37 31.8q1.58 1.06 3.05 2.28l.35.3c1.98 1.67 4.22 3.91 8.94 8.56.6.6 1.29 1.21 2.02 1.81 9.35 7.68 27.46 15.15 29.3 16.73.13.1.2.18.2.23l-.04.02c-.32 3.3-11.67 14.35-15.65 14.35-37 0-43 22.38-43 22.38a49.05 49.05 0 009.98 25.28 61.14 61.14 0 0020.67 17.3l-.04-.02.04.03c-.63-.28-1.2-.6-1.8-.9q.91.48 1.83.93l-.04-.03.07.04-.06-.04c.72.37 1.46.7 2.2 1.04q1.91.85 3.82 1.57a57.88 57.88 0 0016.93 3.27q1.8.08 3.54.08c61.75-.01 73-78.06 27.06-101.03a44.96 44.96 0 0131.4 7.62 65.67 65.67 0 00-57.02-33.3c-1.55 0-3.06.13-4.58.23 1.02-17.72 12.11-53.14 44.8-72.28l-.05.09c.03-.02.07-.05.1-.05s.04-.04.06-.04a.47.47 0 01.24 0 .34.34 0 01.3.34 23.71 23.71 0 001.94 5.15c.4.81.86 1.7 1.43 2.69 1 1.72 2.04 3.35 3.07 4.98q2.3 3.62 4.66 6.97l.74 1.04.17.24.29.4.61.85c18.96 26 40.36 41.29 53.55 74.14v-.19a135.17 135.17 0 00-13.19-39.5c8.98 4.64 20.45 19.33 26.1 32.94a133.81 133.81 0 019.41 49.24 133.8 133.8 0 01-.97 16.12c-.19 1.7-.37 3.36-.59 5.04a130.13 130.13 0 01-128.13 108.02c-3.69 0-7.42-.15-11.16-.47z" fill="rgba(53,53,53,0.8)"/></svg>